/* XPM */
static char *abhql_9j1v0[] = {
/* columns rows colors chars-per-pixel */
"64 64 179 2 ",
"   c #0E0F10",
".  c #0F1011",
"X  c #131313",
"o  c #191716",
"O  c #1F1817",
"+  c #171818",
"@  c #1C1B1B",
"#  c #221E1E",
"$  c #2B1F1E",
"%  c #25201F",
"&  c #2E211F",
"*  c #1E2020",
"=  c #262221",
"-  c #2B2322",
";  c #292827",
":  c #262728",
">  c #272828",
",  c #2A2A2A",
"<  c #322625",
"1  c #352827",
"2  c #392927",
"3  c #31272A",
"4  c #352A2C",
"5  c #3B2C2A",
"6  c #34302F",
"7  c #3F302E",
"8  c #2E2F30",
"9  c #2F3131",
"0  c #353332",
"q  c #3D3332",
"w  c #3C3B3B",
"e  c #412E2C",
"r  c #45312E",
"t  c #49322F",
"y  c #443331",
"u  c #4D3431",
"i  c #4E3936",
"p  c #453D3D",
"a  c #4C3C3A",
"s  c #513633",
"d  c #543936",
"f  c #593A37",
"g  c #543D3A",
"h  c #5B3D3A",
"j  c #613B36",
"k  c #623F3B",
"l  c #42403F",
"z  c #4C403F",
"x  c #56403E",
"c  c #5B413E",
"v  c #64423E",
"b  c #6B433F",
"n  c #4E3F46",
"m  c #513F44",
"M  c #434343",
"N  c #4B4443",
"B  c #4B4B4B",
"V  c #524046",
"C  c #5C4443",
"Z  c #554947",
"A  c #5B4947",
"S  c #554248",
"D  c #5B4549",
"F  c #514D4C",
"G  c #5B4B4A",
"H  c #54504F",
"J  c #5E504E",
"K  c #545454",
"L  c #5A5555",
"P  c #5C5B5A",
"I  c #644542",
"U  c #6C4642",
"Y  c #654846",
"T  c #6B4A45",
"R  c #604749",
"E  c #654A4C",
"W  c #6B4C4A",
"Q  c #704742",
"!  c #704844",
"~  c #724E4A",
"^  c #61504F",
"/  c #6B514E",
"(  c #76514C",
")  c #79524D",
"_  c #645453",
"`  c #6F5552",
"'  c #655857",
"]  c #6B5957",
"[  c #655C5B",
"{  c #6C5B59",
"}  c #765351",
"|  c #7C5551",
" . c #745956",
".. c #735E5B",
"X. c #7A5B58",
"o. c #6C605F",
"O. c #76605E",
"+. c #7A615F",
"@. c #5F6061",
"#. c #626262",
"$. c #6C6463",
"%. c #6F6867",
"&. c #676969",
"*. c #6C6B6B",
"=. c #716665",
"-. c #7B6461",
";. c #736867",
":. c #7D6966",
">. c #736C6B",
",. c #7D6C6A",
"<. c #7B706F",
"1. c #6E6F70",
"2. c #747271",
"3. c #7C7372",
"4. c #767879",
"5. c #797979",
"6. c #7A7979",
"7. c #7B7B7B",
"8. c #7D7C7C",
"9. c #7C7C7C",
"0. c #815651",
"q. c #815752",
"w. c #815751",
"e. c #875A53",
"r. c #835854",
"t. c #865A55",
"y. c #845955",
"u. c #855954",
"i. c #895A54",
"p. c #8B5C56",
"a. c #8C5C56",
"s. c #8B5C56",
"d. c #8F5E58",
"f. c #905F58",
"g. c #816664",
"h. c #806A67",
"j. c #826C6A",
"k. c #81706E",
"l. c #807371",
"z. c #817472",
"x. c #837573",
"c. c #847573",
"v. c #847574",
"b. c #867776",
"n. c #827473",
"m. c #837877",
"M. c #887876",
"N. c #827E7D",
"B. c #877D7C",
"V. c #847F7F",
"C. c #847F7E",
"Z. c #847E7E",
"A. c #8B7C7B",
"S. c #8A7C7B",
"D. c #85807F",
"F. c #85807F",
"G. c #8F817F",
"H. c #8D807F",
"J. c #848080",
"K. c #858584",
"L. c #858181",
"P. c #888383",
"I. c #8F8281",
"U. c #8B8787",
"Y. c #8B8585",
"T. c #8B8887",
"R. c #8C8C8C",
"E. c #8D8989",
"W. c #918483",
"Q. c #958886",
"!. c #908B8A",
"~. c #948B8A",
"^. c #979191",
"/. c #979292",
"(. c #939190",
"). c #999494",
"_. c #979898",
"`. c #989898",
"'. c #A19C9C",
/* pixels */
"n n S D E ~ ( ) ) ( ( ( ( ( ) ) | ) T g 2 # X . X X X X X X X X X X X .   X @ 2 g T ) | ) ) ( ( ( ( ( ) ) ( ~ E D V n n n V V V ",
"n V S D E ~ ( ) ) ( ( ( ( ( ) ) ) ( T g 5 = @ + + @ @ @ @ @ @ @ @ @ @ + + @ = 5 g T ( ) ) ( ( ( ( ( ( ) ) ( ~ E D S V m V V V V ",
"S S D R E ~ ( ) ) ( ( ) ) ( ( ~ ~ T I g y 4 , > > , , , , , , , , , , , , , 6 y g I T ~ ~ ( ( ( ) ( ( ) ) ( ~ W E D D S S V V V ",
"D D R E W ( ( ) ) ( ) ) ) ) ~ T v h g a p M M M M M M M M M M M M M M B B B B N z g g v T ~ ) ) ) ) ( ) ) ( ( ~ W E E D D S V m ",
"E E E W ~ ( ( ) ( ( ) ) ) ) ~ v s r q p F L #.#.#.#.@.@.@.@.@.@.@.@.#.&.*.*.*.L N y r u v ~ ) ) ) ) ( ( ( ( ( ) } } ~ E D S V n ",
"~ ~ ~ ~ ( ( ( ( ( ( ( ) ) ( T g r < 4 l L *.5.8.5.5.5.5.5.5.5.5.5.5.8.K.R.R.J.&.B 0 < e g T ( ) ) ( ( ( ( ( ) | w.r.| } E D V n ",
"( ( ( ( ( ( ( ) ) ( ( ~ ~ T I i q 4 0 B P 2.N.L.L.N.N.V.V.V.V.V.V.L.P.~.(.(.U.>.K w 0 q g I T ~ ~ ( ( ( ( ( ) w.e.i.e.} E D V n ",
") ) ) ) ) ( ) ) ) ) ~ T v g i a p M B K [ %.>.3.3.3.3.x.x.x.x.x.x.b.b.A.I.I.A.3.#.K B N a g g v T ~ ) ) ) ) ) w.i.p.e.} E D V n ",
") ) ) ) ( ( ) ) ) ) ~ v i r q p B L #.[ [ ' ' ] { ....O.O.-.-.-.-.-.-.-.-.:.,.,.3.2.*.L N q e u v ~ ) ) ) ) ) w.i.p.e.} E D V n ",
"( ) ( ) ( ( ( ) ) ( T g r < 4 M L *.2.%.' A C C I Y W W ~ ( ( ( ( ( ( ~ W /  .,.B.Y.J.*.B 0 < e g T ( ) ) ( ) w.u.i.e.} E D V n ",
"( ( ( ) ( ( ( ~ ~ T I g q 4 0 B #.2.3.=._ x s d h v v U U U ! ! ! ! U U v v W -.S.~.Y.2.K w 0 q g I T ~ ~ ( ) w.e.i.e.} E D V n ",
"( ( ( ) ) ( ~ T I h g a p M B K o.%.=.{ E h d d f h k v b U U Q Q U U b k k Y  .j.S.B.3.#.K B N a g h v T ~ ) w.i.i.e.} E D V n ",
"( ( ( ) ) ( W v s y y p B L P [ [ ' _ E C h f f h k v v U U U Q Q Q U b k k I W  .-.,.,.2.>.&.L B y y i c W ) w.i.i.e.} E D V n ",
"( ( ) ) ) ( T g e < 4 M L *.2.%.' A x h h h k k v v v b U U ! ! ! ! U U v v v I I W  .,.V.T.J.*.B 0 < 5 g T ) u.i.i.e.} E D V n ",
"( ( ( ) ) ( T s 2 = , M @.5.N.>.' x s s f k v v v v v U U U ! ! ! ! U U U v v k k v W :.W.).(.2.B , = 1 s T ) u.i.i.e.} E D V n ",
"( ( ( ) ) ( T s 1 % > M #.8.L.3.' g u s f k v v v U U U U T ! ! ! ! U U U U v k f k T :.Q.'.`.4.B , % < i T ) u.i.i.e.} E D V n ",
"( ( ( ) ) ( T s 1 = , M #.8.L.3.' g u s f k v b U U U U U ! ! ! ! ! ! T U U U k j k T :.Q.'.`.4.F , % 1 i T ) u.i.i.e.} E D V n ",
"( ( ( ) ) ( T s 2 = , M @.5.N.>.' x s s f k v b U U U T T ! ! ! ! ! ! ! T U U b v v W :.W.).(.2.B , = 1 s T ) u.i.i.e.} E D V n ",
"( ( ( ) ) ( T s 2 = > w K *.2.;.' A x g h h v v U U U U U U U U U U U U U U U T T W  .,.V.T.J.&.M , = 2 s T ) u.p.p.e.} E D V n ",
") ) ) ) ) ( T s 2 = = 9 M K [ [ [ ' _ R C h h h v b U U U b U b b b b b b b T (  .-.:.,.2.>.#.B 0 > = 5 g ~ w.i.a.a.e.} E D V n ",
") ) ) ) ) ( T g 5 = @ : 8 w B K o.%.=.{ R h d f h v v b v v v v v v v k k v T  .j.S.B.3.#.K M 0 : = = 5 c ( u.a.f.d.e.} E D V n ",
"( ( ) ) ) ( T g 5 = @ @ @ > 0 B #.2.3.=._ x s d h v v v v v v v v v v v v v W -.S.~.T.2.K w , * @ @ = r v ) i.f.f.a.e.} E D V n ",
"~ ~ ( ) ) ) T g 5 = @ + o @ , M P 2.3.;.' A C C I Y T E E E E E T T E T E W  .j.G.~.Y.>.F 4 # o + @ = y I ) a.f.a.e.| ( E D V n ",
"T T W ( ) ) ~ c 7 = @ o o # < p L $.;.=.o.' ' ' ] { ..................O.-.:.,.c.A.A.v.o.Z 5 $ O o @ = y I | a.a.e.| ( E D S V n ",
"I I T ~ ) w.( c r = @ @ # < 2 y V J ' o.%.;.>.>.<.<.<.3.3.3.<.<.<.3.3.m.V.H.A.S.c.,.O./ c y 2 & # @ = y I | p.i.) ~ T Y C S V n ",
"c C I ~ ) q.) v r = @ # < 5 y i i g A ' ;.3.N.L.D.V.V.V.V.V.V.N.N.V.L.E.(./.~.A.,. .W I v h s 5 - # = r I ) e.w.~ Y C C S V V V ",
"x c C E ) | ( c r = # ; q i g g s i g ^ =.3.V.P.L.D.D.D.V.V.V.V.V.D.P.~.(./.~.M.O.W I I T W Y a 2 = = 5 c ( w.) T C V V V V V V ",
"m V C Y ~ ( T g 5 = = 4 N G _ A g i s A { ,.x.b.v.x.z.3.3.3.3.3.3.x.b.A.I.W.A.h.} I v T  .-...G q > = 5 g T ( W Y C V m m V V V ",
"m V S A Y T I i 1 = > w K $.=.{ A s s c W  .O.-.-.O.O.O.........O.O.-.g.j.j.-. .T v I } j.S.3.[ M , % 1 u C Y Y A S V m V V V V ",
"V V S C A C g y - % > w L >.3.=._ x s h I W ( ( ( ( ( W W W W W W ( ( } } } ( W U I W -.S.~.Y.*.B , # - r g C A C S V V V V V V ",
"V V V S C C g r - # > w L >.3.;.' A C c I U ! ! ! ! U U b v v v U U ! ! ! ! ! T T W  .j.G.~.Y.*.B , # - r g C A S V V V V V V V ",
"n m V C A C h y < % > w F $.;.;.$.' _ W T U U b b U b b k k k k b b b b b b T (  .-.,.b.A.A.3.[ p ; % < y h C A C V n n n V V V ",
"n m V D R Y C i 1 % = 4 p G ' $.;.;.;...} ! U b b U b b k k k k b b b b b U ~ X.j.S.A.A.M.,.{ Z q = % 1 i C Y R D V n n n V V V ",
"n V S D E W I s 5 = # ; 5 i A { ;.3.3.,.X.( ! Q U T U U b v v b U U ! U U ! ( g.A.~.~.G.j. .I i 1 = = 2 s I W E R S V V V V V V ",
"S S D E W ~ T g 5 = # % 1 y g _ =.3.3.,.-. .( ( ( ( ( W W W W W W ( ( ~ ~ ( X.j.G.~.~.S.-.W h e - # = 5 g T ~ W E D D S V V V V ",
"D D R W ~ ( T g 5 = # # 1 e g A ' %.;.,.:.-.-.O.O.O.O.O.........O.O.O.O.O.O.:.k.S.A.S.j. .I d e - # = 5 g T ( ( ~ W E D D S V m ",
"E E W ~ ( ( T g 5 = # % 1 e i g A _ ' $.;.<.z.x.x.x.z.3.3.3.3.3.3.z.x.x.x.z.z.k.,.:.-. .W I d e - # = 5 g T ) | | } } E D S V n ",
"~ ~ ~ ( ) ( T g 5 = # = 2 r i s g x A ' ;.6.D.L.L.D.D.D.V.V.V.V.D.D.L.L.L.D.m.,.O.` W T U v f r < # = 5 g T ) w.e.r.| } E D V n ",
"( ( ) ) ) ( T g 5 = # = 2 r u u s s C _ =.3.V.L.L.L.D.D.V.V.V.V.D.D.L.L.L.V.v.:. .T v v v v f r < # = 5 g T ) u.i.i.e.} E D V n ",
") ) ) ) ) ( T g 5 % # = 2 y i s d f c W ..,.z.v.v.x.z.3.3.3.3.3.z.z.x.v.v.z.,.O./ I k k v v h r < # % 2 s T ) u.p.a.e.} E D V n ",
") ) ) ) ) ( T g 5 % @ = 2 y s f h k I W } X.O.-.-.O.O.O.........O.O.-.-.-.O.X.} T v k v v v h r < # % 2 g T ) u.p.a.e.} E D V n ",
"( ( ) ) ) ( T g 5 = # = 2 r s h v I U ! ~ ~ ( ( ( ( ( W W W W W W ( ( ( ( ( ~ T U v v v v v f r < # = 5 g T ) u.i.p.e.} E D V n ",
"( ( ( ) ) ( T g 5 - % = 1 e u d h I U U ! ! ! ! ! ! U U U v v U U U ! ! ! ! U U U v v v h h s e < = - 5 g T ) q.i.i.e.} E D V n ",
"( ( ( ) ) ( T c y 1 - - < 2 5 y d k I U U U U Q Q Q U b v k v v b U Q Q Q Q U U U v v h s u e 2 < < 1 y h T ) q.i.i.e.} E D V n ",
"( ( ( ) ) ( W v s e 2 < - - < 5 y d h v U U Q Q Q Q U U v v v v U U U Q Q Q U U U v h s r 2 < < < 2 e s v W ) w.i.i.e.} E D V n ",
"( ( ( ) ) ( ~ I h u e 1 = # = < 5 u d h v U ! ! ! ! U U v v v v U U ! ! ! ! U U U v h u 2 - = - 1 e u h I ~ ) w.i.i.e.} E D V n ",
"( ( ( ) ) ( ~ U h s r 2 - % % - 1 e u d v U U ! ! U U U v v v v U U U ! ! U U U v h s e < = % - 2 r s h U ~ ) w.i.i.e.} E D V n ",
"( ( ( ) ) ( ~ U c d y e 1 - - - < 1 5 u h v U U U U U U U v v U U U U U U U U k d u r 2 < - - 1 5 y d c U ~ ) w.i.i.e.} E D V n ",
"( ( ( ) ) ( ~ U c d u r e 5 1 < - - < e s v U U U U U U v v v v U U U U U U v d r 2 1 < 1 2 2 5 e u d h U ~ ) w.i.i.e.} E D V n ",
"( ( ( ) ) ( ~ U h s u t t r e 1 - % = 2 u h v v v v v v v v v v v v v v v v h u 2 - = - 2 e r t t u s h I ~ ) w.i.i.e.} E D V n ",
"( ( ( ) ) ( ~ I h s u u u u r 2 - % = 1 r s f h h h h h f f h f h h h h h f s r 1 = % - 2 r u u u u s h U ~ ) u.i.p.e.} E D V n ",
") ) ) ) ) ( ~ I h s u u u u t e 1 - - < 2 e r r y r r r r r r r r r r r r r e 2 < - - 1 e t u u u u d c T ) w.i.a.a.e.} E D V n ",
") ) ) ) ) ( ~ I h s u u u u y r e 5 2 1 < < < < < < < < < < < < < < < < < < < < 1 1 2 e r y u u u u d v ! ) e.a.d.a.e.} E D V n ",
"( ( ( ) ) ( ~ U h s u u u u u u t r e 2 < = # # # # # # # # # # # # # # # # = < 2 e r t u u u u u u d v ~ w.p.d.f.a.e.} E D V n ",
"~ ~ ~ ( ) ) ~ T v d u u u u s s s u t 5 < = # @ @ @ @ @ @ @ @ @ @ @ @ @ @ # = < 5 t u s s u u u u s f I ~ u.a.a.a.e.| ~ E D V n ",
"T T W ( ) ) ) ! v f s s s s d d d d s t 5 1 - = % # # # # # # # # # # % = - 1 5 t s d d d d s s s s h U ( u.a.p.u.) ( E D S V n ",
"I I T ~ ) w.0.~ U h d d d d f f f f d s u r e 2 1 - - = - - - - = - - 1 2 e r y s d f f f f d d d d h U ) e.i.u.) ~ T Y C S V n ",
"c C I W ) q.w.( U k f f f f f f f f f d d s u r e 2 1 < 3 3 3 3 < 1 2 e r u s d f f f f f f f f d f v U ) u.e.| ~ Y C C S V V V ",
"x c C T ( | w.( U v h f d d d d d d d d d d s u r 5 2 2 4 4 4 4 2 2 5 r u s d d f d d d d d d f f h v U ( w.w.( T C C V V V V V ",
"m V C Y W ( ( ~ U c h d s s u u u u u s s s u y e 5 2 4 4 4 4 4 4 5 5 e y u s s s s u u u u s s d h c I W ( ( W Y C V m m V V V ",
"m V S A Y T T I I c g s u y r r r r r r t t r e 5 5 4 4 4 4 4 4 4 4 5 5 e r r t r r r r r r y u s h c I Y T T Y A V V m m V V V ",
"V V S S C C C c c c g i u e 5 5 5 5 5 e 5 5 5 5 5 4 4 4 4 4 4 4 4 4 4 5 5 5 5 5 5 5 5 5 5 5 e u i g c c C C C C S V V V V V V V ",
"V V V V V c c c c c g i y 5 2 2 2 2 2 2 2 2 2 2 4 4 4 4 4 4 4 4 4 4 4 4 2 2 2 2 2 2 2 2 2 2 5 y i g c c c c c V V V V V V V V V ",
"V V V V m g x c c c g i y 5 2 1 2 2 2 2 2 2 2 2 4 4 4 4 4 4 4 4 4 4 4 4 2 2 2 2 2 2 2 2 1 2 5 y i g c c c x x V m V V V V V V V "
};
