/* XPM */
static char *a14rl_49pi9[] = {
/* columns rows colors chars-per-pixel */
"64 64 188 2 ",
"   c #3F211E",
".  c #41221F",
"X  c #432522",
"o  c #462825",
"O  c #492A27",
"+  c #452B2A",
"@  c #4C2D2A",
"#  c #4E312E",
"$  c #55332E",
"%  c #58342F",
"&  c #482F30",
"*  c #4C3333",
"=  c #4A363B",
"-  c #4F393D",
";  c #533533",
":  c #583531",
">  c #563834",
",  c #5C3935",
"<  c #533A3B",
"1  c #5C3D3B",
"2  c #623C37",
"3  c #623D39",
"4  c #65413D",
"5  c #69423D",
"6  c #4E3F46",
"7  c #4E3F48",
"8  c #523F45",
"9  c #4F4149",
"0  c #524147",
"q  c #5D4543",
"w  c #554349",
"e  c #5B4549",
"r  c #5E494B",
"t  c #524651",
"y  c #554A54",
"u  c #5C4D53",
"i  c #5B4E59",
"p  c #5E5059",
"a  c #634642",
"s  c #6D4742",
"d  c #654846",
"f  c #6C4A45",
"g  c #624749",
"h  c #654A4C",
"j  c #6A4C4B",
"k  c #724B46",
"l  c #734F4B",
"z  c #784E49",
"x  c #77514C",
"c  c #79524D",
"v  c #644E51",
"b  c #684D50",
"n  c #655054",
"m  c #6D5254",
"M  c #64555E",
"N  c #6C565A",
"B  c #6D585E",
"V  c #765452",
"C  c #795552",
"Z  c #795855",
"A  c #725758",
"S  c #755A5C",
"D  c #795C5C",
"F  c #5C5562",
"G  c #5E5967",
"H  c #5C5A6B",
"J  c #5D5F70",
"K  c #615760",
"L  c #635A64",
"P  c #6D5B62",
"I  c #625D6C",
"U  c #6A5E69",
"Y  c #715E64",
"T  c #7A5F61",
"R  c #615F70",
"E  c #57647C",
"W  c #59667E",
"Q  c #6D606A",
"!  c #716067",
"~  c #7B6164",
"^  c #74636C",
"/  c #7A656B",
"(  c #7B686F",
")  c #636272",
"_  c #6C6674",
"`  c #6E6876",
"'  c #65667A",
"]  c #686779",
"[  c #646A7F",
"{  c #6E6B7B",
"}  c #736672",
"|  c #796771",
" . c #736976",
".. c #7B6A72",
"X. c #736C7B",
"o. c #7A6E7B",
"O. c #7C717E",
"+. c #815651",
"@. c #855955",
"#. c #8A5B55",
"$. c #865D5B",
"%. c #8D5E58",
"&. c #87615F",
"*. c #89605E",
"=. c #846364",
"-. c #8A6666",
";. c #80666D",
":. c #896768",
">. c #82686C",
",. c #88696C",
"<. c #806C73",
"1. c #846E75",
"2. c #886F75",
"3. c #877076",
"4. c #83737E",
"5. c #80747F",
"6. c #85737D",
"7. c #897178",
"8. c #596781",
"9. c #5D6A84",
"0. c #5E6D89",
"q. c #636D85",
"w. c #6A6E83",
"e. c #616F89",
"r. c #726F81",
"t. c #667086",
"y. c #6C7186",
"u. c #65728C",
"i. c #6A748C",
"p. c #6C788F",
"a. c #767384",
"s. c #747184",
"d. c #7C7280",
"f. c #7F7785",
"g. c #7B7483",
"h. c #7F7886",
"j. c #777789",
"k. c #72768B",
"l. c #7B778A",
"z. c #75798E",
"x. c #7C7A8A",
"c. c #7A7A8C",
"v. c #667491",
"b. c #697691",
"n. c #6C7994",
"m. c #6D7D9B",
"M. c #737C94",
"N. c #7A7E92",
"B. c #717E9A",
"V. c #807785",
"C. c #807785",
"Z. c #817986",
"A. c #817E8E",
"S. c #827D8C",
"D. c #887D8B",
"F. c #817E90",
"G. c #768097",
"H. c #7E8194",
"J. c #75819C",
"K. c #7B859C",
"L. c #7584A1",
"P. c #7A87A1",
"I. c #7C89A4",
"U. c #7D8DA9",
"Y. c #838497",
"T. c #828396",
"R. c #83879A",
"E. c #83869A",
"W. c #81899E",
"Q. c #88889B",
"!. c #868CA2",
"~. c #858FA7",
"^. c #838EA4",
"/. c #888FA5",
"(. c #818FAA",
"). c #8590A7",
"_. c #8890A6",
"`. c #8791A9",
"'. c #8592AB",
"]. c #8993AA",
"[. c #8B97AF",
"{. c #8A96AD",
"}. c #8C98AF",
"|. c #8795B0",
" X c #8997B0",
".X c #8C99B1",
"XX c #8D9AB2",
"oX c #919DB5",
/* pixels */
"6 6 w e h l x c c x x x x x x x x x x c c x l h e 0 6 6 6 8 8 6 6 6 w e h l x c c c x x x x x x x x x c c x l h e 0 6 6 6 0 0 0 ",
"6 0 w e h l x c c x x x x x x x x x x c c x l h e w 0 0 0 0 0 8 0 0 w e h l x c c x x x x x x x x x x c c x l h e w 0 8 0 0 0 0 ",
"w w e g h l x c c x x x x x x x x x x c c x l j h e e w 0 0 0 0 0 w e g j l x c c x x x x x x x x x x c c x l j h e e w 0 0 0 0 ",
"e e g h j x x c c x x x x x x x x x x x c x x l j j h r e w w w e e g h j x x c c x x x x x x x x x x c c x x l j j h e e w 0 8 ",
"h h h j l x x c x x x x x x x x x x x x x x x c C C V b r e w e g h j l x x x c x x x x x x x x x x x x x x x c C C l j e w 0 6 ",
"l l l l x x x x x x x x x x x x x x x x x x c C @.@.Z A v u u u n A Z V V V C c x x x x x x x x x x x x x x c c +.@.C l g e 0 6 ",
"x x x x x x x x x x x x x x x x x x x x x x c @.$.*.=.T B M M M P T T D D Z Z C C x x x x x x x x x x x x x c +.@.@.@.C h e 0 6 ",
"c c c c c x x x x x x x x x x x x x x x x x C @.&.-.,.;.^ _ _ _  . ...( / ~ D Z C c x x x x x x x x x x x x c +.@.#.@.C h e 0 6 ",
"c c c c x x x x x x x x x c c c C C C x x c C $.=.,.2.4.d.a.a.j.x.Z.C.5.o.( ~ D Z C x x c C C c c c x x x x c +.@.#.@.C h e 0 6 ",
"x c x c x x x x x x x x c C C C Z Z Z Z C Z Z ~ >.1.6.Z.F.H.K.W.W.R.T.A.V.O...~ D Z Z C Z Z Z Z C C C x x x c +.@.#.@.C h e 0 6 ",
"x x x x x x x x x x x C C Z Z D D T ~ D D D ~ / <.4.Z.T.R.!.~.`.`.`.!.R.A.g.o.../ T D D T ~ T D D Z Z C V x c +.@.#.@.C h e 0 6 ",
"x x x x x x x x x x c C Z D ~ / ( ......( ( ..o.O.g.A.Y.!.].[..X.X[.].!.T.x.g.o.....( ........( / ~ D Z C c c +.@.#.@.C h e 0 7 ",
"x x x C C C C x c c C Z T ~ ( o.O.C.C.f.g.g.g.l.l.c.H.R./.[..XoXoX.X[.~.R.N.j.l.g.g.g.g.f.C.C.O.o.( ~ D Z C C +.@.%.$.Z b e 0 9 ",
"V V V Z Z Z Z Z C Z Z D / ..O.f.A.T.R.R.T.H.N.N.N.N.G.W.).}.oXoXoXoX.X).K.N.N.z.N.N.H.T.R.R.T.A.f.O...~ D Z Z @.$.*.$.Z n u w w ",
"A A A D D T ~ D D D T / ..o.g.A.R.!.).~.^.W.K.G.M.M.G.K.~.[.XXoXoXXX[.^.K.M.M.M.G.K.W.^.~.).!.R.A.g.o.../ T D =.=.:.=.T B p y y ",
"Y ! ! ^ ( ........( ....o.g.x.T.!.].[.[.`.^.I.K.G.M.M.J.I.'..X.X.X.X'.I.J.M.M.M.K.I.^.`.[.[.].!.T.x.g.o. .....<.1.7.1...Q L F F ",
"_ `  .X.d.f.C.C.g.g.g.g.l.j.N.R.).[..X.X[.`.^.K.M.n.n.B.P.U.(.'.'.(.U.P.B.n.n.B.K.^.`.[..X.X[.~.R.N.j.l.g.g.g.C.D.D.Z.g.{ ' ) J ",
"{ w.s.j.N.T.R.R.T.H.N.N.z.N.N.K.`..X.X.X}.`.^.K.M.b.b.n.J.P.P.U.U.P.P.J.n.b.b.M.K.^.]..X.XXX.X`.K.N.N.z.N.N.H.T.Q.Q.R.N.k.w.[ [ ",
"y.u.k.N.K.!.~.~.!.W.K.G.M.M.M.K.`..X.X.X[.`.U.K.n.b.i.b.m.J.P.L.L.L.J.m.n.v.b.n.K.U.`.[..X.X.X).K.M.M.M.G.K.W.!._._.!.K.N.i.u.t.",
"i.i.M.G.^.].[.[.`.^.I.K.G.M.M.J.U.'.|.{.'.(.I.J.n.i.u.b.n.B.L.L.L.L.B.n.v.u.u.n.J.I.(.'.|.|.'.U.K.M.M.G.K.I.^.`.[.[.].^.G.M.i.i.",
"i.n.M.K.^.[..X.X[.`.^.K.B.n.n.B.P.U.U.U.U.P.P.B.b.u.u.b.n.n.B.B.B.B.B.n.u.u.u.b.m.K.P.U.U.U.U.P.B.n.n.B.K.^.`.[..X.X[.^.K.M.n.i.",
"p.n.M.K.`..XXX.X}.].^.K.M.b.b.n.J.P.P.P.P.J.B.n.i.q.q.u.b.n.n.n.B.M.n.b.u.q.q.u.n.B.J.P.P.P.L.J.n.b.b.M.K.^.]..X.XXX}.).K.M.n.p.",
"p.n.M.K.(..X.X.X[.`.^.K.M.i.i.b.M.J.J.J.J.B.M.i.w.q.[ q.q.u.i.i.i.i.i.w.w.q.w.w.i.M.B.G.J.J.J.M.b.i.i.M.K.^.`..X.X.X[.^.K.M.n.i.",
"i.i.n.J.I.'.|.|.'.(.I.G.M.i.i.i.z.M.N.N.N.M.k.w.] ) R ) ) ' ' ' ' ] ] ] ` `  .X.s.j.M.M.N.N.N.z.i.i.i.M.G.I.(.'.|.|.'.I.J.n.i.i.",
"u.u.b.m.P.U.(.(.U.I.K.M.k.r.r.r.a.j.l.l.l.l.s. .U L F F F G G G L L L U ! ^ |  .o.d.l.j.l.l.j.a.s.r.s.k.M.K.I.U.(.(.U.P.m.b.u.u.",
"e.e.u.n.J.P.P.P.P.J.B.z.s.X. .X.o.o.O.d.O.o. .^ L n y y y i i i i u n N S T =.;...o.o.o.O.d.O.o.X. .X.s.z.B.J.P.P.P.L.J.n.u.e.0.",
"9.0.e.v.n.J.L.L.J.B.M.k.X.} ^ ^ } | ......| ! P n r e w w w w w w e r j V Z D ~ ~ ( | | ....| } ^ ^ } X.k.M.B.J.L.L.J.n.v.e.0.9.",
"8.8.0.u.v.n.m.m.n.n.i.w._ U L P P P Y Y Y Y B n v e w w 0 0 0 0 w w e g j V V Z S S Y Y Y Y P P P L U _ w.i.n.n.m.m.n.v.u.9.8.8.",
"E W 8.0.u.v.n.n.b.i.q.' I M n n v n n n n v h r e w 0 0 0 0 0 0 0 0 w q d h j j j v n n n n n n n n M I ' q.i.b.b.b.v.u.0.8.W E ",
"E E W 9.e.u.v.v.i.u.[ ) K u r r q q q q q q q e w 0 0 0 0 0 0 0 0 0 w w q q q a q q q q q q q q r r u K ) q.u.u.i.i.u.e.9.W E E ",
"E W 8.9.u.i.b.b.i.u.[ ) K u r q q q q q q q q q w 0 0 0 0 0 0 0 0 0 0 w q q q q q q q q q q q q q r v K ) [ u.i.b.b.i.u.9.8.W E ",
"W 8.9.e.i.n.n.n.n.i.y._ L n h d a a a a a a a q w 0 6 6 9 0 0 0 6 8 0 w q a a a a a a a a a a a d h n L _ y.i.n.n.n.n.i.e.9.8.W ",
"9.q.q.i.n.J.J.J.G.M.j.X.! N j j f f f f f f d g q 0 6 6 6 8 8 6 6 8 0 q g d f f f f f f f f f f j j N Q X.k.M.G.J.J.J.n.i.q.q.9.",
"q.q.u.n.B.P.I.I.P.G.N.O.^ S V x x l l l l l j h e w 0 0 8 0 0 8 8 0 w e h j l l l l l l l l l x x V S ^ O.c.K.I.I.I.K.B.n.u.q.q.",
"q.u.i.n.J.P.I.I.I.K.N.g.( D Z C x x x c c x l j h e e w 0 0 0 0 0 w e g j l x c c x x x x x x x C Z D ( d.N.K.I.I.I.P.G.n.i.u.q.",
"q.e.u.b.J.P.P.P.P.K.N.d...D Z C c c c c c c x l j j h e e w 0 w e e g h j x c c c c c c c c c c C Z T | d.N.K.I.I.P.P.J.n.u.e.q.",
"0.e.u.b.m.L.P.P.P.G.M.s.^ D Z C c c c c c c c c C C V j e w w e e h j j l x c c c c c c c x x x C Z D ^ s.M.G.P.P.P.L.m.v.u.e.0.",
"9.9.e.v.n.m.L.L.J.B.k.X.^ S Z C x x x x x x c C +.@.C V h e w e h j l x x x x x x x x x x x x x x Z S ^ X.k.B.J.L.L.m.n.v.0.9.9.",
"8.9.0.u.v.n.m.m.m.n.i.X.^ S Z x x x x x x x c +.@.@.@.C h e w e h l x c c x x x x x x x x x x x x Z S ^ X.k.n.m.m.m.n.v.u.0.9.9.",
"8.8.9.0.v.v.n.n.n.b.i.{ ! S Z x x x x x x x c +.@.#.@.C h e w e h l c c c x x x x x x x x x x x x Z S ! { i.b.n.n.n.v.v.0.9.8.8.",
"E E 8.9.u.v.v.b.b.i.w.` Y S V x x x x x x x c +.@.#.@.C h e w e h l c c c x x x x x x x x x x x x V A ! ` w.i.b.b.v.v.u.9.8.E E ",
"E E 8.9.e.u.i.v.i.u.w.` Y S V x x x x x x x c +.@.@.@.C h e w e h l x c c x x x x x x x x x x x x V S Y ` w.u.i.i.v.u.e.9.W E E ",
"E W 8.9.u.i.b.b.i.u.w.` ! A V x x x x x x x c +.@.@.@.C h e w e h l x c c x x x x x x x x x x x x V A ! ` w.u.i.b.b.i.u.9.8.W E ",
"W 8.9.u.i.n.n.M.M.z.s. .! S V x x x x x x x c +.@.@.@.C h e w e h l x c c x x x x x x x x x x x x V S !  .s.p.n.n.n.n.i.e.9.9.W ",
"9.q.q.i.n.G.J.K.G.M.z.X.^ D Z C x x x x x x c +.@.@.@.C h e w e h l x c c x x x x x x x x x x x C Z S ^ X.z.M.G.J.J.J.n.i.e.q.9.",
"q.q.u.n.J.P.I.I.P.G.N.d.( D Z C x x x x x x c +.@.@.@.C h e w e h l x c c x x x x x x x x x x x C Z D ( d.N.K.P.I.I.P.J.n.u.q.q.",
"q.u.i.n.G.I.I.I.I.K.N.d...D Z C x x x x x x c +.#.@.@.C h e w e h l x c c x x x x x x x x x x x C Z D ( g.N.K.I.I.I.I.G.n.i.u.q.",
"q.e.u.b.J.P.P.P.P.K.N.d.( D Z C x x x x x x c +.@.@.@.C h e w e h l x c c x x x x x x x x x x x C Z D ( d.N.K.I.I.P.P.J.b.u.e.q.",
"0.e.u.b.m.L.P.P.P.G.M.s.^ D Z C x x x x x x c +.@.@.@.C h e w e h l x c c c x x x x x x x x x x C Z D ^ s.M.G.P.P.P.L.m.v.u.e.0.",
"9.9.e.v.n.m.L.L.J.B.k.X.^ S Z C x x x x x x c +.@.@.@.C h e w e h l x c c x x x x x x x x x x x x Z S ^ X.k.B.J.L.L.m.n.v.0.9.9.",
"8.9.0.u.v.n.m.m.m.n.k.X.^ S Z C x x x x c c c +.@.@.@.C h e w e h l x c c x x x x x x x x x x x x Z S ^ X.k.n.m.m.m.n.v.u.0.9.8.",
"8.8.9.0.v.v.n.n.n.b.i. .! S Z C x x c c c C +.@.%.%.@.C h e w e h l c c c c x x c c c c x x x x C Z S !  .i.b.n.n.n.n.v.0.9.8.8.",
"E W 8.9.u.v.v.b.b.i.w.` ! S Z C c c c c +.@.@.%.%.%.@.C h e w e h x c c c c c c c c c c c c x x C Z S ! ` w.i.b.b.v.v.u.9.8.E E ",
"E E W 9.e.u.v.v.i.u.w.` Y S V x x x c c +.@.#.%.%.%.@.C h e w e h l x c c x x x x x x x x x x x x V A ! ` w.u.i.b.v.u.e.9.W E E ",
"E W 8.9.u.i.b.b.i.u.w.` Y A C x l l x c +.@.#.#.#.@.C l g w w q d f l l l l l l l l l l l l l l x C S Y ` w.i.i.b.b.i.u.9.8.W E ",
"W 8.9.e.i.n.n.n.n.i.y.` Y A x l k k k z c c +.c c z k d q 8 8 8 q a s s f k k k k k k k k k k l l x A Y  .s.z.M.M.n.n.i.u.9.8.W ",
"9.q.q.i.n.J.J.J.G.M.j. .Y m j f s s k k k k k k s 5 4 1 < - - < < 1 1 4 5 s s s s s s s s s s f f j m Y X.j.M.G.J.J.J.n.i.e.q.9.",
"q.q.u.n.J.P.I.I.P.G.z.X.Y m h s 5 5 5 5 5 5 5 3 1 , > ; * * * * * ; > , 2 4 5 5 5 5 5 5 5 5 5 5 s f m P X.c.G.P.I.I.P.J.b.u.q.q.",
"q.u.i.n.J.P.I.I.I.G.z. .P h a 3 2 2 2 2 2 2 , , ; # # @ @ & & @ @ # # ; , , 2 2 2 2 2 2 2 2 2 2 3 a h L  .z.G.I.I.I.P.G.n.i.u.q.",
"q.e.u.b.B.P.P.P.P.G.k.` M e 1 , : : % % % % $ $ @ O + + + + + + + + O @ $ $ : : : : : % $ $ : : , 1 e M ` k.G.P.P.P.P.J.b.u.e.q.",
"0.0.u.v.m.L.P.P.J.M.i.) i 8 ; $ @ @ @ @ @ @ @ O o o o X X X o o o o o O O @ @ @ @ @ @ @ @ @ @ @ $ ; 8 i ) i.M.J.P.P.L.m.v.u.0.9.",
"9.9.0.v.n.m.L.L.B.n.w.I y - & O o o X X X X X X X X X X X X X X X X X X X X X o o X X X X X o O O * - y I w.n.B.L.L.m.n.v.0.9.9.",
"9.9.0.v.b.m.m.m.m.b.q.H t = + X X X . . . X X X X X X X X X X X X X X X X X X X X X X . . . X X o + = t H q.b.m.m.m.m.n.v.0.9.9.",
"9.9.0.v.v.m.m.m.m.b.q.H t = + X X .           .   . . . . . . . . . . .                     . X X + = t H q.b.n.m.m.m.v.v.0.9.9."
};
