/* XPM */
static char *alkfo_mzngw[] = {
/* columns rows colors chars-per-pixel */
"64 64 220 2 ",
"   c #452A27",
".  c #4C2A26",
"X  c #4A2C29",
"o  c #552E2A",
"O  c #582F2B",
"+  c #4E322F",
"@  c #56322F",
"#  c #5C322E",
"$  c #473231",
"%  c #4B3331",
"&  c #4D3C3B",
"*  c #4F3836",
"=  c #543532",
"-  c #5C3532",
";  c #543836",
":  c #5D3936",
">  c #533D3B",
",  c #5B3C3B",
"<  c #62342E",
"1  c #633631",
"2  c #683732",
"3  c #643935",
"4  c #6A3A35",
"5  c #633D3A",
"6  c #6C3D3A",
"7  c #713C37",
"8  c #733E39",
"9  c #5D413E",
"0  c #51403F",
"q  c #63413E",
"w  c #6C413D",
"e  c #75403B",
"r  c #7B433D",
"t  c #4E3F46",
"y  c #4E3F48",
"u  c #533F45",
"i  c #5B3F41",
"p  c #623F40",
"a  c #4E4444",
"s  c #4D4B4C",
"d  c #494447",
"f  c #524145",
"g  c #5C4244",
"h  c #544249",
"j  c #5C454B",
"k  c #534B4B",
"l  c #5C4B4B",
"z  c #574847",
"x  c #5C4B53",
"c  c #5E4F5A",
"v  c #554B56",
"b  c #535253",
"n  c #5C5353",
"m  c #5E505B",
"M  c #5C5B5B",
"N  c #5F5857",
"B  c #565050",
"V  c #634342",
"C  c #6D4341",
"Z  c #634845",
"A  c #6E4945",
"S  c #62464B",
"D  c #6C4749",
"F  c #644B4B",
"G  c #6B4B4B",
"H  c #724541",
"J  c #794540",
"K  c #714945",
"L  c #7A4945",
"P  c #724E4C",
"I  c #7B4C49",
"U  c #69514F",
"Y  c #77514C",
"T  c #78524D",
"R  c #644C53",
"E  c #614F59",
"W  c #6A4D50",
"Q  c #724E51",
"!  c #655454",
"~  c #6B5355",
"^  c #62525C",
"/  c #6C545C",
"(  c #645B5B",
")  c #6D5C5C",
"_  c #675857",
"`  c #765453",
"'  c #795552",
"]  c #795855",
"[  c #72575C",
"{  c #765A5B",
"}  c #7A5C5B",
"|  c #7D615F",
" . c #68605F",
".. c #5C5564",
"X. c #5D5869",
"o. c #5F5E71",
"O. c #6E5760",
"+. c #635B6B",
"@. c #6A5E6D",
"#. c #655763",
"$. c #735B63",
"%. c #7A5E62",
"&. c #735F69",
"*. c #655F71",
"=. c #57647C",
"-. c #5A657E",
";. c #636263",
":. c #6B6565",
">. c #6D6A6B",
",. c #69646A",
"<. c #7C6264",
"1. c #75636C",
"2. c #7C6469",
"3. c #726C6C",
"4. c #7B6A6E",
"5. c #746465",
"6. c #646173",
"7. c #6D6372",
"8. c #65657A",
"9. c #69677B",
"0. c #65697E",
"q. c #6A6A7D",
"w. c #6F6F70",
"e. c #726673",
"r. c #7C6B72",
"t. c #706778",
"y. c #746A7A",
"u. c #7A6E7B",
"i. c #756975",
"p. c #747373",
"a. c #7A7475",
"s. c #7E727C",
"d. c #7C7C7C",
"f. c #76747C",
"g. c #6F7070",
"h. c #815652",
"j. c #845A55",
"k. c #8A5B55",
"l. c #855C5B",
"z. c #8A5D59",
"x. c #804F4B",
"c. c #87605E",
"v. c #825D60",
"b. c #846464",
"n. c #816867",
"m. c #836A6A",
"M. c #896869",
"N. c #836D73",
"B. c #886F75",
"V. c #857273",
"C. c #83747D",
"Z. c #837B7C",
"A. c #897679",
"S. c #596781",
"D. c #5D6A84",
"F. c #5E6D89",
"G. c #636D85",
"H. c #6A6D83",
"J. c #626F89",
"K. c #686F88",
"L. c #65728D",
"P. c #6A748C",
"I. c #6C738A",
"U. c #737386",
"Y. c #7B7583",
"T. c #7F7A85",
"R. c #73758B",
"E. c #757A8F",
"W. c #7A798B",
"Q. c #667592",
"!. c #697692",
"~. c #6D7A94",
"^. c #6D7C9B",
"/. c #677896",
"(. c #737C95",
"). c #7A7E92",
"_. c #727E9A",
"`. c #766F80",
"'. c #807785",
"]. c #827A85",
"[. c #827D8C",
"{. c #897F86",
"}. c #817E90",
"|. c #7F8080",
" X c #758097",
".X c #7D8194",
"XX c #74819C",
"oX c #7B859C",
"OX c #7583A1",
"+X c #7986A2",
"@X c #7C89A4",
"#X c #7E8DA9",
"$X c #838384",
"%X c #8B8B8B",
"&X c #86848A",
"*X c #928F8F",
"=X c #828395",
"-X c #83869A",
";X c #81899E",
":X c #88889B",
">X c #8F9191",
",X c #949494",
"<X c #979898",
"1X c #9C9C9C",
"2X c #989797",
"3X c #A09F9F",
"4X c #838EA5",
"5X c #818FAA",
"6X c #888FA5",
"7X c #8590A7",
"8X c #8592AC",
"9X c #8A95AD",
"0X c #8A94AB",
"qX c #8796B1",
"wX c #8997B0",
"eX c #8D9AB2",
"rX c #919DB5",
"tX c #9FA0A0",
"yX c #A3A3A3",
"uX c #A9A8A8",
/* pixels */
"t t h j G P Y T T Y Y Y Y Y Y Y Y Y Y T T Y P G j f t t t u u t t t h j G P Y T T Y Y Y Y Y Y Y Y Y Y T T Y P G j f t t t f f f ",
"t f h j G P Y T T Y Y Y Y Y Y Y Y Y Y T T Y P G j h f f f f f f a f h j G P Y T T Y Y Y Y Y Y Y Y Y Y T T Y P G j h f f f f f f ",
"h h j S G P Y T T Y Y Y Y Y Y Y Y Y Y T T Y P G F j j h h h h h h h j F G P Y T T Y Y Y Y Y Y Y Y Y Y T T Y P G F j h h h f f f ",
"j j S F G P Y T T Y Y Y Y Y Y Y Y Y Y Y T Y Y P G G F j j h h h j j F G G Y Y T T Y Y Y Y Y Y Y Y Y Y Y Y Y Y P G G S j h h f u ",
"G G G G P Y Y T Y Y Y Y Y Y Y Y Y Y Y Y Y Y Y T ' ` ` W l j h j S F G G Y Y T T Y Y Y Y Y Y Y Y Y Y Y Y Y Y Y Y T ` P G j h f t ",
"P P P P Y Y Y Y Y Y Y Y Y Y Y Y Y Y Y Y Y Y T ' j.j.} ` R x x x ~ ~ ' ' ` ` ' T Y Y Y Y Y Y Y Y Y Y Y Y Y Y T T h.j.' Q S h f t ",
"Y Y Y Y Y Y Y Y Y Y Y Y Y Y Y Y Y Y Y Y Y Y T j.l.c.b.%.) ^ ^ ^ O.%.%.} } ] ] ' ' Y Y Y Y Y Y Y Y Y Y Y Y Y T h.k.k.k.` F j f t ",
"T T T T Y Y Y Y Y Y Y Y Y Y Y Y Y Y Y Y Y Y ' j.c.M.M.m.1.7.7.7.i.r.r.4.2.<.} ] ' T Y Y Y Y Y Y Y Y Y Y Y Y T h.k.k.k.' F j f t ",
"T T T Y Y Y Y Y Y Y Y Y Y Y T T ' ' ' Y Y T ' l.b.M.B.C.Y.U.U.W.W.[.'.C.u.4.2.} ] ' Y Y T ' ' ' T T Y Y Y Y T h.k.k.k.' F j h t ",
"Y Y Y Y Y Y Y Y Y Y Y Y T ' ' ' ] ] ] ] ' ] ] <.m.B.C.].}..XoX;X;X-X=X[.'.s.r.2.} ] ] ' ] ] ] ] ' ' ' Y Y Y T h.k.k.k.` F j h t ",
"Y Y Y Y Y Y Y Y Y Y Y ' ' ] ] ] } %.%.} } } <.2.N.C.].=X-X4X6X8X8X0X4X-X[.Y.u.r.2.%.} } %.<.%.} } ] ] ` ` Y T h.k.k.k.` F j h t ",
"Y Y Y Y Y Y Y Y Y Y T ' ] } <.2.4.r.r.r.4.4.r.u.s.Y.[.=X4X0X9XeXeX9X0X4X=XW.Y.u.r.r.4.4.r.r.r.4.2.<.} ] ` ` T h.k.k.k.` F j h y ",
"Y Y Y Y ` ' ' T Y T ' ] %.2.4.u.s.'.'.T.Y.Y.Y.Y.W.W..X-X6X9XeXrXrXeX9X6X-X).W.Y.Y.Y.Y.Y.T.'.'.s.u.4.2.} ] ' ' h.k.z.l.' W j h f ",
"` ` ` ' ] ] ] ] ' ] ] } 2.r.s.T.[.=X-X-X=X.X).).).)..X;X7XeXrXrXrXrXeX7XoX).(.E.).)..X=X-X-X=X[.'.s.r.2.} ] ] j.l.c.l.] ~ x h h ",
"{ { { { } %.%.%.} } %.2.r.u.Y.[.-X4X7X6X4X;XoX X(.(. XoX6X9XeXrXrXeX9X4XoX(.(.(. XoX;X4X6X7X4X-X[.Y.u.r.2.%.} b.b.M.b.%./ c v v ",
"&.5.5.1.4.r.r.r.r.4.r.r.u.Y.W.=X4X0X9X9X8X4X@XoX X(.(.oX@X8XwXwXwXwX8X@XXX(.(. XoX@X4X8X9X9X0X4X=XW.Y.u.r.r.r.N.B.B.B.r.,.+.X...",
"7.7.i.u.Y.T.'.'.Y.Y.Y.Y.Y.W.).-X7X9XeXeX9X8X4XoX X~.~. X+X#X8X8X8X8X#X+X_.~.~. XoX4X8X9XeXeX9X6X-X).W.Y.Y.Y.Y.'.{.{.].Y.q.8.6.o.",
"q.H.U.R.).=X-X-X=X.X).).E.(.).oX8XeXeXeXwX8X4XoX_.~.~.~.XX+X@X@X@X@X+XXX~.!.~._.oX4X8XwXeXeXeX8XoX).(.E.).)..X=X:X:X-X).R.H.0.0.",
"K.I.R.(.oX4X6X6X4X;XoX X(.(.(.oX8XwXeXeXwX8X4XoX~.!.Q.!.^.OXOX+X+XOXOX^.!.Q.!.~.oX#X8XwXeXeXwX8XoX X(.(. XoX;X4X6X6X4XoX(.I.I.K.",
"P.P.(. X4X0X9X9X0X4X@XoX X(._.oX#X8XwXqX8X5X@XXX~.L.L.Q./.^.OXOXOXOX_.!.Q.L.L.!.XX@X8X8XwXwXqX#XoX_.(. XoX@X6X0X9X9X0X4X X(.P.P.",
"P.~.(.oX4X9XeXeX9X8X4XoX X~.~.XX@X#X8X8X#X@XOX^.!.L.J.L.!.^.^._._.^.^.!.L.J.L.!.^.OX@X#X8X8X#X@XXX~.~. XoX4X8X9XeXeX9X4XoX(.~.P.",
"!.~.(.oX7XwXeXeXeX0X4XoX(.~.!.~.XX+X@X@X+XOX_.!.L.G.G.G.L.!.~.~.~.~.!.L.G.G.G.L.~._.OX+X@X@X+XXX^.!.~.(.oX4X0XeXeXeXeX8XoX(.~.!.",
"!.~.(.oX4XwXeXeXwX8X4XoX~.P.L.P.~._.XX_._.~.!.L.G.-.-.8.G.K.K.K.K.K.H.0.8.-.-.G.L.!.~._._._._.~.P.L.P.~.XX4X8XwXeXeXwX5XoX(.~.P.",
"P.P.~. X@X8XqXqX8X5X+X(.I.G.G.G.K.P.P.P.P.K.H.8.o.X.X.X.+.+.*.6.6.*.+.+.X.X.X.o.8.H.I.P.P.P.P.K.G.G.K.P.(.@X5X8XwXwX8X@XXX~.P.P.",
"L.L.!.^.OX#X5X5X#X+X XR.H.8.6.6.8.9.9.9.9.8.6.+.m v x x x E E E E E E x x x v ..+.6.8.9.9.0.9.8.6.6.8.H.~. X+X#X5X5X#XOX^.!.L.L.",
"G.L.L.!.XXOX@X@X+XXX(.K.8.+.X.X.+.+.+.+.+.+.#.c j h i i i g g g g g g i i i h j c #.+.+.+.+.+.+.X.X.+.8.I.(.XX+X@X@XOX_.!.L.J.J.",
"D.F.L.Q.~.XXOXOXXX(.P.H.*.#.m c c m ^ ^ ^ E R j g , ; ; ; : : : : : : ; ; ; : i j R E ^ ^ m m c c m #.*.H.P.(.XXOXOXXX^.Q.J.F.D.",
"S.S.F.L.Q.^.^.^.~.!.I.8.+.^ x j j j j S S S S V , : - - - - - - # # # # # - ; , V S S S S j j j j x E +.8.K.!.~.^.^.^.Q.L.D.S.S.",
"-.-.S.F.L.Q.!.!.!.P.G.6.#.R S V g i i i V V 5 5 3 - - # # # # # # # # # # # - : 5 5 p 5 , , , , i V R ^ *.G.I.!.!.~.!.L.F.S.-.=.",
"=.=.-.D.J.L.Q.Q.L.K.0.6.^ R Z q 5 , , 3 3 3 3 3 1 1 1 # # # # # # # # # # # # 1 3 3 3 3 1 - - : 3 5 S E +.9.K.L.P.Q.L.L.D.-.=.=.",
"=.-.S.F.L.L.!.!.P.I.H.7.O.~ G C q 5 3 3 3 3 1 1 1 1 < # - - - - - - - - - - 1 1 1 1 1 < < # # # 1 5 V R +.0.K.P.!.!.L.L.F.S.-.=.",
"-.D.D.J.L.~.~.~.~.P.I.y.1.5.{ ` G A w w 4 2 1 < < # # - = = ; : , 9 9 9 5 5 5 3 3 1 < < < < < < 1 5 D / @.H.P.~.~.~.~.L.J.D.D.-.",
"D.G.G.P.~. XXXXX X X).W.s.V.4.<.} ` Y K w 4 1 < # # @ = = > > f z l F F F Z V q 3 1 1 < < < < 1 3 6 D / e.U.(. XXXXX X~.P.J.G.D.",
"G.G.L.~. X+X@X@X@XoXoX=X&X{.A.V.n.| ] P H 6 1 < # @ = * * & a k n n _ _ ! ! F Z q 3 1 1 1 1 1 4 6 w G $.y.W. X+X@X@X+X_.~.L.G.G.",
"G.L.L.~.XX+X@X@X@X@XoX=X&X{.A.V.n.| ] P H 4 1 # # = * * & a s k b n M ( ( ( ) U V 5 3 1 1 1 4 4 6 C P $.y.W.oX@X@X@X+XXX~.L.L.G.",
"G.J.L.~.XX+X@X@X+XoXoX.X'.C.V.n.<.] Y K w 4 1 - = = * & a s s s k b b M :.3.5.) G q 3 1 1 1 4 4 6 C P $.y.W. X+X@X@X+XXX!.L.J.G.",
"F.J.L.!.^.OXOX+XOXXX(.Y.s.4.<.} ' Y K w 4 1 - - ; * & a k b b s s d s M >.p.a.5.~ V , : 1 3 4 4 6 C P $.t.R._.OXOXOXOX^.!.L.J.F.",
"D.D.J.Q./.^.OXOXXX_.R.y.1.{ ` P K C w 4 1 < - ; > a a k n M M b d d s M g.d.Z.a.) F 9 : 3 3 4 4 6 A Q $.t.R.(._.OXOX^./.Q.J.D.D.",
"S.D.F.L././.^.^.^.~.I.t.&.` P H w 6 4 1 # # = ; 0 k b M ;.,.,.M b s b ;.f.%X%XZ.5.! Z q 5 3 3 6 w P ` $.t.I.!.^.^.^././.L.F.D.S.",
"S.S.D.F.Q./././.!.P.K.7.O.G C w 6 4 3 < # o = ; z n M ,.p.p.p.>.;.M ;.p.$X,X2X%Xa.) ! Z q 5 5 w K P { &.t.K.P.!.!./.!.Q.F.D.S.S.",
"=.=.S.D.L.Q.Q.!.!.I.H.@./ G C 6 6 4 1 # o X % > l ( >.p.|.$X%X$Xd.p.p.$X2XyX3X,X$X4.{ U V q 5 C P ] %.1.t.H.L.L.Q.Q.Q.L.D.S.-.=.",
"=.=.-.D.J.L.Q.Q.L.K.q.@./ D w 6 4 4 1 # o X % f n :.p.$X%X2X2X,X%X$X$X,X1XuXuX1X%XZ.5.) F q q A ` } 2.r.t.H.K.L.L.L.L.J.D.-.=.=.",
"=.-.S.D.L.L.!.!.P.I.q.@./ D 6 6 4 2 1 O .   % f n >.d.%X2X1X1X2X%X$X$X,XyXuXuX3X*XZ.4.{ G V q A ] <.m.r.y.H.K.I.P.!.L.L.F.S.-.=.",
"-.D.D.J.P.~.~.(.~.P.H.7./ D w 6 4 2 1 o .   % f ( 3.d.%X<X1X1X%X$Xp.p.$X2XuXuX1X*XZ.4.) G V q G ] n.N.s.Y.U.I.~.~.~.~.L.L.D.D.-.",
"D.G.J.P.~. XXXXX X(.U.e.[ G w 6 4 2 1 o .   $ f ( 3.T.%X<X1X2X$Xp.;.;.p.%X1XyX1X%XZ.3.) F V V G ] n.V.C.Y.E.(.(. XXX X~.P.J.G.D.",
"G.G.L.~. X+X@X@X+X XW.y.$.P C 6 4 4 1 o .   $ f ( p.|.%X<X<X,Xd.;.b b ,.$X<X1X2X%Xa.3.) F V V G ] M.V.C.[.)..XoX+X+X+X X~.L.G.G.",
"G.L.L.~.XX+X@X@X+XoXW.y.$.P C 6 4 4 1 o .   $ f ( p.$X%X<X<X,Xd.;.s s ;.d.2X1X2X&Xa.5._ F q q G ] n.V.C.[.). X+X@X@X+XXX~.L.L.G.",
"G.J.L.!.XX+X@X@X+X XW.y.$.P C 6 4 2 < o .   $ f ( p.$X>X<X1X2X$X,.b b >.$X<X1X2X$Xp.:.! Z q q A ' b.N.C.W.). X+X+X@X+XXX!.L.J.G.",
"F.J.L.!.^.OX+XOXOX_.R.t.$.G C 6 4 4 1 o .   $ f ( p.$X,X1XyX<X%Xp.;.;.p.%X1XtX2X$X3. .! g , 5 C Y } 2.u.Y.E._.XXOXOXOX^.!.L.J.F.",
"D.D.J.Q./.^.OXOX_.(.R.e.O.G C 6 4 4 1 o .   $ f ( p.$X>X1XyX1X%Xd.>.g.d.>X1X1X,XZ.>.( l g , 3 w P ] 2.r.`.R.(._.XXOX^./.Q.J.D.D.",
"S.D.F.L././.^.^.^.!.K.7.O.G C 6 4 4 1 O .   $ f n >.d.%X,X<X2X%Xd.p.p.|.%X<X2X%Xa.:._ l 9 : 3 5 A ` { 1.y.I.!.^.^.^.^./.L.F.D.S.",
"S.S.D.F.Q./././.!.P.H.7./ G C 6 6 4 1 # o X % > B ;.>.d.$X%X%X$Xd.p.p.d.$X%X%Xd.3.( n z , : 3 5 C P ` &.7.K.P.!.!./.!.Q.F.D.S.S.",
"=.-.S.D.L.Q.Q.!.!.I.H.7./ G C w 6 4 3 # o X + & k n ;.>.p.d.d.a.p.>.>.p.a.d.a.3.;.n l 9 : - 1 3 6 A Q O.7.H.K.Q.!.Q.Q.L.F.S.-.=.",
"=.=.-.D.J.L.Q.Q.L.K.q.7.O.Q A C w 6 3 1 # @ + * f k n M ;.:.>.>.:.:.:.:.>.>.:.( n l f > : - 1 3 6 C D / @.q.K.L.L.L.L.J.D.-.=.=.",
"=.-.S.D.L.L.!.!.P.I.H.7.&.[ ` P K C w 3 - @ @ = > f z l n _ ( ( ( ( ( ( ( ( _ n l z > : - 1 1 1 4 6 D / @.q.I.P.!.!.L.L.F.S.-.=.",
"-.D.D.J.L.~.~.~.~.~.R.f.i.2.} ] ` P A w 3 - - = ; > > f z l l F F F F F l l l z g , : : - 1 1 1 4 6 D / 7.H.P.~.~.~.~.P.L.D.S.-.",
"D.G.G.L.~. XXXoXXX X).W.Y.V.m.n.| ] Y A w 3 - - - = ; ; , , 9 9 9 9 9 9 9 , , , : : : - 1 1 1 3 4 w D [ e.U.(. XXXXX X~.L.G.G.D.",
"G.G.L.~. X+X+X@X+XoXoX=X&X{.A.V.n.| ] P C 4 1 < # - - - - - : : : : : : - - - - - 1 3 1 1 1 3 4 6 C P $.y.W. X+X@X@X+X_.~.L.G.G.",
"G.L.L.~.XX+X@X@X@X@XoX=X&X{.A.V.n.| ] Y H 6 4 1 < < # # < 1 1 1 1 1 < # # # # < 1 1 3 3 2 2 4 4 6 H P $.y.W.oX+X@X@X+XXX~.L.L.G.",
"G.J.L.~._.OX@X@X+XoXoX=X].A.V.M.b.} ' I J e 6 4 2 1 1 1 1 2 2 2 2 2 1 1 < < < 1 2 4 4 4 4 4 4 6 e H Q %.y.W. X+X@X@X+X_.~.L.J.G.",
"F.F.L.Q.^.XXOXOXOXXX).W.C.N.b.l.j.' I L J e 8 7 4 4 4 4 4 7 7 7 7 7 7 4 4 2 2 4 7 8 8 8 7 6 8 8 e L ' %.y.R._.OXOXOXOX^.Q.L.F.D.",
"D.D.F.Q.!.^.OXOXXX_.(.Y.r.b.l.h.T I L J r r e e 8 8 8 8 e e e r r e e 8 8 8 8 8 e r e e 8 8 8 e J L ' %.y.R.(._.OXOX^./.Q.F.D.D.",
"D.D.F.L./.^.^.XX_.(.R.u.4.v.h.x.I L J r r r r e e e e e r r r r r r r r e e e e r r r e e 8 e e J I ' %.y.R.(._.XX^.^./.Q.F.D.D.",
"D.D.F.L./.^.^.^._.(.R.u.2.l.h.x.L J r r r r r r e e e e r r r r r r r r r e e r r r r r e 8 e r J I ' %.y.R.(._.^.^.^./.Q.F.D.D."
};
