/* XPM */
static char *a7s4y_xsimg[] = {
/* columns rows colors chars-per-pixel */
"64 64 219 2 ",
"   c #030203",
".  c #090607",
"X  c #0A0609",
"o  c #0D0909",
"O  c #0A0607",
"+  c #110B0B",
"@  c #1D0D0F",
"#  c #060D11",
"$  c #150C13",
"%  c #1B0E15",
"&  c #1C1314",
"*  c #1D1219",
"=  c #1A181A",
"-  c #1B120F",
";  c #220F13",
":  c #231514",
">  c #2A1516",
",  c #241916",
"<  c #281916",
"1  c #22131D",
"2  c #251A1B",
"3  c #2A1C1C",
"4  c #29141B",
"5  c #321D1C",
"6  c #3A1A1D",
"7  c #2E201E",
"8  c #33211E",
"9  c #161F2B",
"0  c #251622",
"q  c #231E22",
"w  c #2A1925",
"e  c #2D1B28",
"r  c #2A1623",
"t  c #341E2D",
"y  c #341A24",
"u  c #371F30",
"i  c #0C202D",
"p  c #18222C",
"a  c #1C2C39",
"s  c #2A2123",
"d  c #262629",
"f  c #352422",
"g  c #3A2522",
"h  c #3D2927",
"j  c #33262A",
"k  c #33282A",
"l  c #3B2B2A",
"z  c #372927",
"x  c #3C2334",
"c  c #392D30",
"v  c #352732",
"b  c #3C3A3F",
"n  c #441B1E",
"m  c #4B1D22",
"M  c #431C21",
"N  c #4D2225",
"B  c #442E2B",
"V  c #462A29",
"C  c #512325",
"Z  c #5A272B",
"A  c #46312E",
"S  c #4A322E",
"D  c #422639",
"F  c #452839",
"G  c #443232",
"H  c #4C3532",
"J  c #4C3A3C",
"K  c #4A3738",
"L  c #513633",
"P  c #543834",
"I  c #5A3B37",
"U  c #553F3C",
"Y  c #5B3E3A",
"T  c #583734",
"R  c #502F32",
"E  c #64282C",
"W  c #7A2E35",
"Q  c #603B3A",
"!  c #7B3138",
"~  c #642C30",
"^  c #55403E",
"/  c #5A413E",
"(  c #61423E",
")  c #1A3B52",
"_  c #1D3649",
"`  c #263747",
"'  c #4E3E46",
"]  c #453849",
"[  c #513F44",
"{  c #633542",
"}  c #27465C",
"|  c #3E5468",
" . c #285676",
".. c #345C77",
"X. c #254962",
"o. c #4C4949",
"O. c #4A4544",
"+. c #524046",
"@. c #5C4444",
"#. c #554248",
"$. c #5B4549",
"%. c #5D595B",
"&. c #465156",
"*. c #634642",
"=. c #694742",
"-. c #664846",
";. c #6B4A46",
":. c #61474A",
">. c #664A4C",
",. c #6A4B4B",
"<. c #704C47",
"1. c #724E4A",
"2. c #76504B",
"3. c #76514C",
"4. c #77514C",
"5. c #77514C",
"6. c #75504C",
"7. c #77514C",
"8. c #78514C",
"9. c #78524C",
"0. c #79524D",
"q. c #7A534E",
"w. c #7B534E",
"e. c #79524E",
"r. c #7B544F",
"t. c #7C544F",
"y. c #7A534D",
"u. c #775251",
"i. c #775252",
"p. c #765251",
"a. c #785352",
"s. c #7D5551",
"d. c #7C5551",
"f. c #714F50",
"g. c #635268",
"h. c #47617F",
"j. c #787979",
"k. c #6B646F",
"l. c #813338",
"z. c #883D44",
"x. c #93434A",
"c. c #815651",
"v. c #815651",
"b. c #865953",
"n. c #875A54",
"m. c #855955",
"M. c #865954",
"N. c #8A5B55",
"B. c #895B55",
"V. c #8B5C56",
"C. c #8B5C56",
"Z. c #8E5E58",
"A. c #8B5459",
"S. c #905B5A",
"D. c #854147",
"F. c #A4434C",
"G. c #A74C59",
"H. c #92605A",
"J. c #AD5F65",
"K. c #BD5C64",
"L. c #88696C",
"P. c #877B7C",
"I. c #916F71",
"U. c #A86973",
"Y. c #8C5062",
"T. c #C0797F",
"R. c #D5767F",
"E. c #C06673",
"W. c #285D82",
"Q. c #305F81",
"!. c #2B6085",
"~. c #376686",
"^. c #456B8A",
"/. c #49718C",
"(. c #5A7D97",
"). c #6D7A8F",
"_. c #A47E90",
"`. c #C97B82",
"'. c #D57981",
"]. c #69889E",
"[. c #788488",
"{. c #6A8CA2",
"}. c #7C96A9",
"|. c #BE969A",
" X c #A9999A",
".X c #8799A9",
"XX c #9F92A3",
"oX c #97ABB8",
"OX c #9FA0AF",
"+X c #A1A0A0",
"@X c #BAA8A9",
"#X c #A6ACB5",
"$X c #A1B3BE",
"%X c #BCB0B6",
"&X c #908E8E",
"*X c #C88289",
"=X c #D9969D",
"-X c #CA959B",
";X c #E3979E",
":X c #D79EA2",
">X c #C49FA8",
",X c #D2A3AA",
"<X c #C2B8BE",
"1X c #D8B3B7",
"2X c #CBAAB2",
"3X c #E5B4B7",
"4X c #E6ADB2",
"5X c #AFBEC6",
"6X c #BEC8CD",
"7X c #B7C7CD",
"8X c #C4C7CB",
"9X c #D7C7C8",
"0X c #D5C7C8",
"qX c #CCD3D5",
"wX c #D6D3D4",
"eX c #DBD5D5",
"rX c #E6C6C8",
"tX c #E3D6D6",
"yX c #E2CFD0",
/* pixels */
"' ' #.$.,.1.4.9.9.4.4.4.4.4.4.4.4.4.4.9.9.4.1.,.$.+.' ' ' +.+.' ' ' #.$.,.1.4.9.9.4.4.4.4.4.4.4.4.4.4.9.9.4.1.,.$.+.' ' ' +.+.+.",
"' +.#.$.,.1.4.9.9.4.4.4.4.4.4.4.4.4.4.9.9.4.1.,.$.#.+.+.+.+.+.+.[ +.#.$.,.1.4.9.9.4.4.4.4.4.4.4.4.4.4.9.9.4.1.,.$.#.+.[ +.+.+.+.",
"#.#.$.:.,.1.4.9.9.4.4.4.4.4.4.4.4.4.4.9.9.4.1.,.>.$.$.#.+.+.+.+.+.#.$.:.,.1.4.9.9.4.4.4.4.4.4.4.4.4.4.9.9.4.1.,.>.$.$.#.+.+.+.+.",
"$.$.:.>.,.6.4.9.9.4.4.4.4.4.4.4.4.4.4.4.9.4.4.1.,.,.>.$.$.#.+.#.$.$.:.,.,.4.4.9.9.4.4.4.4.4.4.4.4.4.4.4.4.4.4.1.,.,.>.$.$.#.+.[ ",
",.,.,.,.1.4.4.9.4.4.4.4.4.4.4.4.4.4.4.4.4.4.4.9.a.u.f.,.$.#.#.$.$.>.,.,.1.4.4.4.4.4.4.4.4.4.4.4.4.4.4.4.4.4.4.4.a.u.f.,.$.#.+.' ",
"1.1.1.1.4.4.4.4.4.4.4.4.4.4.4.4.4.4.4.4.4.4.9.s.c.m.s.p.>.$.#.$.>.,.1.4.4.4.4.4.4.4.4.4.4.4.4.4.4.4.4.4.4.4.9.s.c.m.s.p.>.$.+.' ",
"4.4.4.4.4.4.4.4.4.4.4.4.4.4.4.4.4.4.4.4.4.4.9.c.n.N.n.u.>.$.#.$.>.1.4.9.9.4.4.4.4.4.4.4.4.4.4.4.4.4.4.4.4.4.9.c.n.N.n.u.>.$.+.' ",
"9.9.9.9.4.4.4.4.4.4.4.4.4.4.4.4.4.4.4.4.4.4.9.c.N.C.n.a.>.$.#.$.,.1.9.9.9.4.4.4.4.4.4.4.4.4.4.4.4.4.4.4.4.4.9.c.N.C.n.a.>.$.+.' ",
"9.9.9.9.4.4.4.4.4.4.4.4.4.4.4.4.4.4.4.4.4.4.9.c.N.C.n.a.>.$.#.$.,.1.9.9.9.4.4.4.4.4.4.4.4.4.4.4.4.4.4.4.4.4.9.c.N.C.n.a.>.$.+.' ",
"4.4.4.4.4.4.4.4.4.4.4.4.4.4.4.4.4.4.4.4.4.4.9.c.n.N.n.u.>.$.#.$.,.1.4.9.9.4.4.4.4.4.4.4.4.4.4.4.4.4.4.4.4.4.9.c.n.N.n.u.>.$.+.' ",
"4.4.4.4.4.4.4.4.4.4.4.4.4.4.4.9.9.9.9.4.4.4.9.c.n.N.n.u.>.$.#.$.,.1.4.9.9.4.4.4.4.4.4.4.9.9.9.9.9.4.4.4.4.4.9.c.b.N.n.u.>.$.+.' ",
"4.4.4.4.4.4.4.4.4.4.4.9.9.9.9.9.9.9.9.9.9.9.9.c.n.N.n.u.>.$.#.$.,.1.4.9.9.4.4.4.4.4.9.9.9.9.9.9.9.9.9.9.9.9.9.c.b.N.n.u.>.$.+.' ",
"4.4.4.4.4.4.4.4.4.4.9.9.9.9.r.r.r.r.9.9.9.9.9.c.n.N.n.u.>.$.#.$.>.1.4.9.9.4.4.4.4.4.9.9.9.9.r.r.r.r.9.9.9.9.9.c.b.N.n.u.>.$.+.' ",
"4.4.4.4.4.4.4.4.4.4.4.4.4.4.4.4.4.4.4.4.6.4.9.c.n.N.n.u.>.$.#.$.>.1.4.9.9.4.4.4.4.4.4.4.4.6.6.6.4.4.4.4.6.4.9.c.n.N.n.u.>.$.+.' ",
"4.4.4.4.4.4.4.9.9.4.6.1.;.=.=.=.=.=.=.;.1.1.9.c.n.N.n.u.>.$.#.$.>.1.4.9.9.4.4.4.9.4.6.1.;.=.=.=.=.=.=.;.1.6.9.c.N.N.n.u.>.$.+.' ",
"4.4.4.4.4.4.9.9.r.9.1.=.Y L S A S H L Y =.1.9.c.N.N.n.u.>.$.#.$.>.1.4.9.9.4.4.9.9.4.1.=.Y L H S A S L Y =.1.r.b.N.C.n.u.>.$.+.' ",
"4.4.4.4.4.4.9.r.r.9.<./ A f 3 , 2 3 f A Y ;.9.v.N.N.n.u.>.$.#.$.,.1.4.9.9.4.4.9.9.4.;.Y A f 3 2 , 3 f A Y 1.s.n.C.C.n.u.>.$.+.' ",
"4.4.4.4.4.4.9.9.9.6.=.L f & + O O + & f L =.9.b.N.C.n.u.>.$.#.$.,.1.4.9.9.4.9.9.r.4.=.P f & + O O + & f L =.9.b.N.C.n.u.>.$.+.' ",
"4.4.4.9.9.4.6.1.<.=.Y B 3 $ O       + 3 H =.r.N.C.C.n.u.>.$.#.$.,.1.4.9.9.4.9.9.r.4.=.H 3 +       O $ 3 B Y ;.9.b.N.n.u.>.$.+.' ",
"9.9.9.9.9.4.1.=.Y L B z 2 * $ .     o 3 L <.b.Z.Z.C.n.a.>.$.$.$.>.4.9.r.r.9.9.r.r.4.=.S < o     . $ * 2 z B P =.4.b.n.a.>.$.+.' ",
"9.9.9.9.9.6.;.Y A f 3 2 w w 1 $ .   + 3 P 1.C.H.H.Z.n.a.>.$.$.:.>.4.r.r.r.r.r.r.s.4.=.S 2 o   . $ 1 w w 2 3 g L =.c.n.d.>.$.+.' ",
"4.4.4.9.9.4.=.L f & $ * w t t 0 $ O + 3 P 1.N.H.Z.C.n.u.>.$.#.$.>.1.6.9.6.6.4.9.r.4.=.S 3 + O $ 0 t t w * $ : h Q 9.n.d.>.$.+.' ",
"1.1.6.9.r.9.=.H 3 + . % w x x w $ . + < S =.9.b.b.b.s.,.@.' J J U *.=.=.=.=.=.1.4.4.=.H 3 + . $ w x x w $ . + 8 P 1.s.u.>.$.+.' ",
";.;.1.4.s.r.;.H 3 o . $ w x x e % O O & 8 S Y =.1.9.1.*.K c k k l B B B B A H / 1.9.<.L 3 + O $ w x x w $ . o 3 S =.4.,.:.#.+.' ",
"*.=.;.6.s.c.1.P 3 + . $ w x x e % O   o - 3 g H / =.*.P l 2 = & & : : : : 2 f H =.9.1.I 8 + O $ w x x w $ O o , B / ;.>.$.#.+.' ",
"/ @.=.1.s.c.1.P 8 + . $ w x x e % .     O + & f G U U A s & o X o + + o o + : B ( 4.1.I 8 + . $ w x x w $ . o , h P @.@.@.#.+.+.",
"^ / @.,.9.s.1.P 7 + . $ w x x t 1 $ . . . . + 2 z A A h 5 : % & & = = & & % > V I =.=.L f & $ * e x x w % . o & z K +.#.#.+.+.+.",
"[ +.@.-.1.6.=.S 3 o O $ w x D x w 1 % $ $ $ % * 2 7 f 6 n n N R J O.O.J S N m C R L H l e 1 1 w x D x w $ O . = j K [ #.#.+.+.+.",
"+.+.#.@.>.;./ B , X . $ w x D D x t w w w w 0 1 & & > n Z W z.A.L.P.P.L.A.z.W E N g 3 3 w w t x D D x w $ . O = j K [ #.+.+.+.+.",
"+.+.#.@.@.@.P l , o . $ w x D D D x x x x x t 0 & + : m W F.K.T.|.@X@X|.U.K.F.! C > & * w t x D F D x w $ . o * k K +.#.+.+.+.+.",
"+.+.+.#.@.@.P B 3 & $ * w t x D D D D D D x v e q q z Q x.K.R.=X1X9X9X1X=XR.K.x.E 6 ; : w t x x x x t w * $ & 2 c J +.+.+.+.+.+.",
"' +.+.#.@.@./ L B f 3 2 2 w e t x F F x u t j v b o.%.L.U.*X=X4XrXtXtXrX3X;X'.J.D.E m 6 y y e w w w w w 2 3 f l G ' ' +.+.+.+.+.",
"' +.+.@.:.-.-.( Y L B f 2 * * r u D D t r 1 s b %.j.&X X@X,X1XrXyXtXtXtXrX3X:X`.J.x.W Z M 4 % $ $ $ * 2 z B H J J ' ' +.+.+.+.+.",
"' +.#.$.>.,.1.1.<.=.Y B 3 $ $ * e x x w % $ q O.j.+X%X8X0X0X9X0XwXwXwXwXwX9X1X-X`.K.F.W m ; .     . $ 3 B Y =.:.@.#.+.+.+.+.+.+.",
"#.#.$.:.,.1.4.9.r.6.=.L f & $ * w t t 1 o . = O.P.@X0XeXeXwXwXqX8X8X8X6X6X8X<X,X=XR.K.z.N @       o & f P =.1.1.>.$.$.#.+.+.+.+.",
"$.$.:.,.,.4.9.r.s.9.<./ A f 3 2 w r 1 $     = J I.-X3XrXtXeXqX6X5X$XoXoXoXoX#X@X,X=X`.S.R %     o , f S / 1.9.u.6.>.>.$.$.#.+.[ ",
",.,.,.,.1.4.9.9.r.9.1.;./ L B f 2 * +       % R A.`.;X3XrXwXqX7XoX}.{.{.{.{.}.OX2X2X-XI.U = . o , h L / ;.1.9.s.a.u.p.,.$.#.+.' ",
"1.1.1.4.4.4.4.9.9.9.6.1.<.=.Y B 3 + O       @ N z.K.'.;X3X9X8X$X}.(./.~.~./.(..X#X<X@XP.o.= o & g Y =.1.1.6.9.s.c.m.s.p.>.$.+.' ",
"4.4.4.4.4.4.4.4.9.4.4.9.9.6.=.L f & + O O + : m ! F.K.`.:X1X<XOX]./.!.W.W.!.^.]..X#X+Xj.o.s & 3 S =.6.9.9.9.9.c.n.N.n.u.>.$.+.' ",
"9.9.9.9.4.4.4.4.4.4.9.9.r.9.<.Y A f 3 2 2 3 8 N E W x.J.*X-X>XXX).^.W.W.W.W.~./.).[.j.%.O.l f B Y <.9.r.9.9.9.c.N.C.n.a.>.$.+.' ",
"9.9.9.9.4.4.4.4.4.4.9.9.r.9.1.=.Y L S S S H S V M m E D.J.`.*X_.).^.!.W.!.!.....| &.o.O.K H P Y =.1.9.9.9.9.9.c.N.C.n.a.>.$.+.' ",
"4.4.4.4.4.4.4.4.4.4.4.9.9.4.6.1.;.=.=.=.=.=.Y B 5 > 6 ~ x.K.E.U.k.h.Q.!.!.W. .} ` d s z H / =.;.1.6.4.4.4.4.9.c.n.N.n.u.>.$.+.' ",
"4.4.4.4.4.4.4.4.4.4.4.4.4.4.4.4.4.4.4.9.9.6.=.H f : > C l.F.G.Y.g.|  . . . .X._ p = & 8 L =.6.r.9.4.4.4.4.4.9.c.n.N.n.u.>.$.+.' ",
"4.4.4.4.4.4.4.4.4.4.4.4.4.4.9.9.9.r.r.s.s.r.1./ A f g N E W ! { ] ` ) ) ) ) _ a p 2 5 B Y ;.r.s.r.9.4.4.4.4.9.c.n.N.n.u.>.$.+.' ",
"4.4.4.4.4.4.4.4.4.4.4.4.4.4.4.9.9.9.9.r.r.9.6.;.( Y L R C m M y q 9 i i i i p d k l S I =.1.9.r.9.4.4.4.4.4.9.c.n.N.n.u.>.$.+.' ",
"4.4.4.4.4.4.4.4.4.4.4.4.4.4.4.4.4.4.9.9.9.9.9.9.r.4.=.T V > @ + o # # # # # = s A Y =.<.1.6.4.9.4.4.4.4.4.4.9.c.n.N.n.u.>.$.+.' ",
"4.4.4.4.4.4.4.4.4.4.4.4.4.4.4.4.4.4.4.4.4.4.9.c.N.N.9.Y h & o . o o + o o + & f L =.6.9.9.4.4.4.4.4.4.4.4.4.9.c.n.N.n.u.>.$.+.' ",
"4.4.4.4.4.4.4.4.4.4.4.4.4.4.4.4.4.4.4.4.6.4.9.b.C.Z.c.=.G q = = : 2 < < < < 8 S Y <.9.r.r.9.4.4.4.4.4.4.4.4.9.c.b.N.n.u.>.$.+.' ",
"4.4.4.4.4.4.4.4.4.4.4.4.4.4.4.4.4.4.4.6.6.4.9.v.C.Z.v.;.U c k k l B S S S S L Y =.1.9.r.9.9.4.4.4.4.4.4.6.4.9.c.n.N.n.u.>.$.+.' ",
"4.4.4.4.4.4.4.4.4.4.4.4.4.4.4.4.4.4.4.4.4.4.9.c.N.C.m.1.@.' J J U *.=.=.=.=.=.;.1.6.4.9.9.4.4.4.4.4.4.4.4.4.9.c.n.N.n.u.>.$.+.' ",
"4.4.4.4.4.4.4.4.4.4.4.4.4.4.4.4.4.4.4.4.9.9.r.c.N.C.n.u.>.$.#.$.>.1.4.9.6.6.6.6.4.4.4.4.4.4.4.4.4.4.4.4.9.9.r.c.N.C.n.u.>.$.+.' ",
"9.9.9.4.4.4.4.4.4.4.4.4.4.4.4.4.6.4.4.9.r.r.c.b.C.C.n.a.>.$.$.:.,.4.r.r.r.9.9.9.9.4.4.4.4.4.4.4.6.4.4.9.9.r.c.b.C.C.n.u.>.$.+.' ",
"9.9.9.9.4.4.4.4.4.4.4.4.4.4.4.4.6.4.9.r.s.v.n.C.C.C.n.a.>.$.$.:.>.4.r.r.9.9.9.9.4.4.4.4.4.4.4.4.6.4.9.r.s.v.n.C.C.C.n.a.>.$.+.' ",
"4.4.4.4.4.4.4.4.4.4.4.4.4.4.4.4.4.9.9.s.v.N.C.C.C.C.n.u.>.$.#.$.,.1.9.9.9.9.9.9.4.4.4.4.4.4.4.4.4.9.9.s.v.N.C.C.C.C.n.u.>.$.+.' ",
"1.1.1.6.4.9.9.9.9.9.9.9.9.9.9.9.9.9.r.c.n.C.C.C.C.n.s.6.:.$.#.@.>.,.1.4.9.9.9.9.9.9.9.9.9.9.9.9.9.9.r.c.n.C.C.C.C.n.s.1.>.$.+.' ",
";.;.,.1.9.r.c.c.c.c.c.c.c.c.c.c.c.c.c.n.C.C.C.N.b.r.4.,.$.#.#.#.:.;.,.6.9.r.c.c.c.c.c.c.c.c.c.c.c.c.c.n.C.C.C.N.v.r.4.,.$.#.+.' ",
"*.=.;.1.9.c.n.N.N.n.n.n.n.n.n.n.n.n.N.C.C.C.C.b.9.1.;.:.#.#.+.#.@.*.;.1.9.c.n.N.N.n.n.n.n.n.n.n.n.n.N.C.C.C.C.b.9.1.;.:.#.#.+.' ",
"/ @.*.,.9.b.N.C.C.N.N.N.N.N.N.N.N.N.C.C.C.C.n.r.1.-.@.@.#.+.+.+.+.@.*.;.9.b.N.C.C.N.N.N.N.N.N.N.N.N.C.C.C.C.n.r.1.-.@.@.#.+.+.+.",
"^ / @.;.4.s.b.n.n.n.b.n.b.b.b.b.b.n.n.n.n.b.s.4.;.@.@.+.+.+.+.+.+.@.@.;.4.c.b.n.n.b.n.n.b.b.b.b.b.n.n.n.n.b.s.4.;.@.@.+.+.+.+.+.",
"[ +.@.:.,.4.9.9.9.9.9.9.9.9.9.9.9.9.9.9.9.9.6.,.:.@.+.[ [ +.+.[ [ +.@.:.,.4.9.9.9.9.9.9.9.9.9.9.9.9.9.9.9.9.6.,.:.@.+.[ [ +.+.+.",
"[ +.#.@.:.;.;.;.;.;.;.;.;.;.;.;.;.;.;.;.;.;.;.:.@.+.+.[ [ +.+.+.+.+.+.@.:.;.;.;.;.;.;.;.;.;.;.;.;.;.;.;.;.;.;.:.@.+.+.[ +.+.+.+.",
"+.+.#.#.@.@.*.*.*.*.*.*.*.*.*.*.*.*.*.*.*.*.@.@.#.#.+.+.+.+.+.+.+.+.#.+.@.@.*.*.*.*.*.*.*.*.*.*.*.*.*.*.*.*.@.@.+.#.+.+.+.+.+.+.",
"+.+.+.+.+./ / / / / / / / / / / / / / / / / / +.+.+.+.+.+.+.+.+.+.+.+.+.+./ / / / / / / / / / / / / / / / / / +.+.+.+.+.+.+.+.+.",
"+.+.+.+.+.U U U U ^ ^ ^ ^ ^ ^ ^ ^ ^ ^ ^ U ^ ^ +.+.+.+.+.+.+.+.+.+.+.+.+.+.U U U U ^ ^ ^ ^ ^ ^ ^ ^ ^ ^ ^ U ^ ^ +.+.+.+.+.+.+.+.+."
};
