/* XPM */
static char *ax366_zp0op[] = {
/* columns rows colors chars-per-pixel */
"64 64 222 2 ",
"   c #030102",
".  c #090506",
"X  c #0B0807",
"o  c #070308",
"O  c #0A0608",
"+  c #0D0A09",
"@  c #060808",
"#  c #110C0B",
"$  c #1B0B0D",
"%  c #110509",
"&  c #060D11",
"*  c #140C12",
"=  c #1A0E14",
"-  c #0D1010",
";  c #1C1314",
":  c #1E1219",
">  c #1D1A1A",
",  c #151416",
"<  c #19110F",
"1  c #280B0E",
"2  c #221615",
"3  c #2A1515",
"4  c #241917",
"5  c #281916",
"6  c #22141C",
"7  c #251B1A",
"8  c #2A1C1C",
"9  c #361A1B",
"0  c #2F201E",
"q  c #32211E",
"w  c #161F2B",
"e  c #261622",
"r  c #291724",
"t  c #241E22",
"y  c #2B1924",
"u  c #2F1B29",
"i  c #331E2C",
"p  c #351B23",
"a  c #371F30",
"s  c #0C202D",
"d  c #17242E",
"f  c #1E2D3A",
"g  c #26272A",
"h  c #342423",
"j  c #3A2523",
"k  c #3C2826",
"l  c #34292C",
"z  c #3D2B2B",
"x  c #34252A",
"c  c #3C2234",
"v  c #392B31",
"b  c #3D3034",
"n  c #46171C",
"m  c #4A1D21",
"M  c #4C2224",
"N  c #442E2B",
"B  c #402524",
"V  c #522326",
"C  c #592A2C",
"Z  c #46312D",
"A  c #4A322E",
"S  c #42263A",
"D  c #46283D",
"F  c #452833",
"G  c #443231",
"H  c #4C3431",
"J  c #4C3A3D",
"K  c #47393B",
"L  c #513633",
"P  c #533935",
"I  c #593B36",
"U  c #563F3C",
"Y  c #5B3E3A",
"T  c #583734",
"R  c #53312F",
"E  c #66272B",
"W  c #652C31",
"Q  c #772C33",
"!  c #613B3B",
"~  c #7C3139",
"^  c #55403E",
"/  c #5A413E",
"(  c #61413D",
")  c #1A3B52",
"_  c #1E3749",
"`  c #273847",
"'  c #4A2B41",
"]  c #4E3E46",
"[  c #443A44",
"{  c #513F44",
"}  c #633542",
"|  c #344550",
" . c #285676",
".. c #355D78",
"X. c #324E68",
"o. c #484546",
"O. c #524046",
"+. c #5C4443",
"@. c #554248",
"#. c #5B4549",
"$. c #504948",
"%. c #4A5355",
"&. c #5D5556",
"*. c #634642",
"=. c #694742",
"-. c #664845",
";. c #6B4A46",
":. c #654A4C",
">. c #6A4C4B",
",. c #614749",
"<. c #714C47",
"1. c #724E4B",
"2. c #794F4A",
"3. c #77514C",
"4. c #78524D",
"5. c #7A534E",
"6. c #7B534E",
"7. c #78524C",
"8. c #7B544F",
"9. c #7D544F",
"0. c #7A534D",
"q. c #775251",
"w. c #775352",
"e. c #765251",
"r. c #785352",
"t. c #7E5551",
"y. c #7C5552",
"u. c #6A5455",
"i. c #415764",
"p. c #635268",
"a. c #47617F",
"s. c #757777",
"d. c #72657E",
"f. c #83353A",
"g. c #873D44",
"h. c #95434A",
"j. c #815651",
"k. c #825752",
"l. c #815651",
"z. c #865953",
"x. c #875A54",
"c. c #855955",
"v. c #855954",
"b. c #8A5B55",
"n. c #895B55",
"m. c #8B5C56",
"M. c #8B5C55",
"N. c #8D5D57",
"B. c #8B5C56",
"V. c #8E5E58",
"C. c #895358",
"Z. c #915E5A",
"A. c #90565B",
"S. c #89494C",
"D. c #A3434C",
"F. c #A74C59",
"G. c #92605A",
"H. c #8C5062",
"J. c #BD5C65",
"K. c #AD5F66",
"L. c #86686B",
"P. c #877B7C",
"I. c #916F71",
"U. c #AF6067",
"Y. c #A96974",
"T. c #C0797F",
"R. c #D5767F",
"E. c #C06673",
"W. c #285D82",
"Q. c #305F81",
"!. c #2B6085",
"~. c #376686",
"^. c #456B8A",
"/. c #49718C",
"(. c #5A7D97",
"). c #6E7A8F",
"_. c #A47E90",
"`. c #C97A82",
"'. c #D47A82",
"]. c #69889E",
"[. c #788388",
"{. c #6A8CA2",
"}. c #7C96A9",
"|. c #9F9F9F",
" X c #8F8D8D",
".X c #BE969A",
"XX c #A9999B",
"oX c #8799A9",
"OX c #9F92A3",
"+X c #A09FA0",
"@X c #97ABB8",
"#X c #9FA0AF",
"$X c #B9AAAB",
"%X c #A6ACB5",
"&X c #A1B3BE",
"*X c #BBB0B5",
"=X c #C78189",
"-X c #C5999D",
";X c #DD959C",
":X c #D1999F",
">X c #D78E97",
",X c #E3979E",
"<X c #D59EA4",
"1X c #C49FA8",
"2X c #C7A3A8",
"3X c #C2B8BE",
"4X c #D9B3B7",
"5X c #CCAAB1",
"6X c #E5B4B7",
"7X c #E6ADB2",
"8X c #AFBEC6",
"9X c #BEC8CD",
"0X c #B7C7CD",
"qX c #C4C7CB",
"wX c #D7C7C8",
"eX c #D5C7C8",
"rX c #CCD3D5",
"tX c #D6D3D4",
"yX c #DBD5D5",
"uX c #E5C6C8",
"iX c #E3D6D6",
"pX c #E2CFD0",
/* pixels */
"] ] @.#.>.1.3.4.4.3.3.3.3.3.3.3.3.3.3.4.4.3.1.>.#.O.] ] ] O.O.] ] ] @.#.>.1.3.4.4.3.3.3.3.3.3.3.3.3.3.4.4.3.1.>.#.O.] ] ] O.O.O.",
"] O.@.#.>.1.3.4.4.3.3.3.3.3.3.3.3.3.3.4.4.3.1.>.#.@.O.O.O.O.O.O.{ O.@.#.>.1.3.4.4.3.3.3.3.3.3.3.3.3.3.4.4.3.1.>.#.@.O.{ O.O.O.O.",
"@.@.#.,.>.1.3.4.4.3.3.3.3.3.3.3.3.3.3.4.4.3.1.>.:.#.#.@.O.O.O.O.O.@.#.,.>.1.3.4.4.3.3.3.3.3.3.3.3.3.3.4.4.3.1.>.:.#.#.@.O.O.O.O.",
"#.#.,.:.>.3.3.4.4.3.3.3.3.3.3.3.3.3.3.4.4.3.3.1.>.>.:.#.#.@.O.@.#.#.,.>.>.3.3.4.4.3.3.3.3.3.3.3.3.3.3.4.3.3.3.1.>.>.:.#.#.@.O.{ ",
">.>.>.>.1.3.3.4.3.3.3.3.3.3.3.3.3.3.3.3.3.3.3.4.r.q.1.>.#.@.@.#.#.:.>.>.1.3.3.4.3.3.3.3.3.3.3.3.3.3.3.3.3.3.3.3.r.q.1.>.#.@.O.] ",
"1.1.1.1.3.3.3.3.3.3.3.3.3.3.3.3.3.3.3.3.3.3.4.t.j.k.t.e.:.#.@.#.:.>.1.3.3.3.3.3.3.3.3.3.3.3.3.3.3.3.3.3.3.3.4.t.j.k.t.e.:.#.O.] ",
"3.3.3.3.3.3.3.3.3.3.3.3.3.3.3.3.3.3.3.3.3.3.4.j.x.b.x.q.:.#.@.#.:.1.3.4.4.3.3.3.3.3.3.3.3.3.3.3.3.3.3.3.3.3.4.j.x.b.x.q.:.#.O.] ",
"4.4.4.4.4.3.3.3.3.3.3.3.3.3.3.3.3.3.3.3.3.3.4.j.b.m.x.r.:.#.@.#.>.1.4.4.4.3.3.3.3.3.3.3.3.3.3.3.3.3.3.3.3.3.4.j.b.m.x.r.:.#.O.] ",
"4.4.4.4.3.3.3.3.3.3.3.3.3.3.3.3.3.3.3.3.3.3.4.j.b.m.x.r.:.#.@.#.>.1.4.4.4.3.3.3.3.3.3.3.3.3.3.3.3.3.3.3.3.3.4.j.b.m.x.r.:.#.O.] ",
"3.3.3.3.3.3.3.3.3.3.3.3.3.3.3.3.3.3.3.3.3.3.4.j.x.b.x.q.:.#.@.#.:.1.3.4.4.3.3.3.3.3.3.3.3.3.3.3.3.3.3.3.3.3.4.j.x.b.x.q.:.#.O.] ",
"3.3.3.3.3.3.3.3.3.3.3.3.3.3.3.3.3.3.3.3.3.3.4.j.x.b.x.q.:.#.@.#.:.1.3.4.4.3.3.3.3.3.3.3.3.3.3.3.3.3.3.3.3.3.4.j.x.b.x.q.:.#.O.] ",
"3.3.3.3.3.3.3.3.3.3.3.3.3.3.3.3.3.3.3.3.3.3.4.j.x.b.x.q.:.#.@.#.>.1.3.4.4.3.3.3.3.3.3.3.3.3.3.3.3.3.3.3.3.3.4.j.x.b.x.q.:.#.O.] ",
"3.3.3.3.3.3.3.3.3.3.3.3.3.3.3.3.3.3.3.3.3.3.4.j.x.b.x.q.:.#.@.#.>.1.3.4.4.3.3.3.3.3.3.3.3.3.3.3.3.3.3.3.3.3.4.j.v.b.x.q.:.#.O.] ",
"3.3.3.3.3.3.3.3.3.3.3.3.3.3.3.3.3.3.3.3.3.3.4.j.x.b.x.q.:.#.@.#.>.1.3.4.4.3.3.3.3.3.3.3.3.3.3.3.3.3.3.3.3.3.4.j.x.b.x.q.:.#.O.] ",
"3.3.3.3.3.3.3.3.3.3.3.3.3.3.3.3.3.3.3.3.3.3.4.j.x.b.x.q.:.#.@.#.>.1.3.4.4.4.4.3.3.3.3.3.3.3.3.3.3.3.3.3.3.3.4.j.x.b.x.q.:.#.O.] ",
"3.3.3.3.3.3.3.3.3.3.3.3.3.3.3.3.3.3.3.3.3.3.4.j.x.b.x.r.:.#.#.,.:.3.4.9.8.4.4.4.4.4.3.3.3.3.3.3.3.3.3.3.3.3.4.j.v.b.x.q.:.#.O.] ",
"3.3.3.3.3.3.3.3.3.3.3.3.3.3.3.3.3.3.3.3.3.3.4.j.v.b.x.r.:.#.#.,.:.3.8.9.9.9.4.4.4.4.3.3.3.3.3.3.3.3.3.3.3.3.4.j.x.b.x.q.:.#.O.] ",
"3.3.3.3.3.3.3.3.3.3.3.3.3.3.3.3.3.3.3.3.3.3.4.j.x.b.x.q.:.#.@.#.:.1.3.4.3.3.3.3.3.3.3.3.3.3.3.3.3.3.3.3.3.3.4.j.x.b.x.q.:.#.O.] ",
"3.3.3.3.3.3.3.3.3.3.3.3.3.3.3.3.3.4.4.4.4.4.9.v.b.m.x.1.#.] J J U *.*.*.*.*.=.;.1.3.3.4.4.4.4.3.3.3.3.4.4.4.9.j.b.b.x.q.:.#.O.] ",
"4.4.4.3.3.3.3.3.3.3.3.3.3.3.3.4.4.4.8.9.t.j.v.m.Z.V.k.;.U v l x z N N N N Z H Y *.1.4.9.9.4.4.4.4.3.4.4.4.t.j.x.m.m.x.q.:.#.O.] ",
"4.4.4.3.3.3.3.3.3.3.3.3.3.3.3.4.4.4.t.j.v.b.m.G.G.Z.j.*.G t , , ; 2 4 2 2 7 q N Y <.8.t.t.9.8.4.4.3.4.4.t.k.x.m.m.m.x.q.:.#.O.] ",
"3.3.3.3.3.3.3.3.3.3.3.3.3.3.3.3.3.3.4.9.j.x.b.V.Z.m.4.Y k ; + O + # # + + # ; h L =.3.4.4.3.3.3.3.3.4.t.k.x.m.m.m.m.x.q.:.#.O.] ",
"1.1.2.3.4.4.4.4.4.4.4.4.6.4.4.1.;.=.=.;.<.2.4.6.6.2.=.T j 3 = ; , > > ; ; $ 3 j A Y *.=.=.*.=.;.1.4.9.j.x.m.m.m.m.x.t.1.:.#.O.] ",
";.;.>.1.4.9.j.j.j.j.j.k.v.j.4.;./ L H H L I I I T T R V M m M A J o.o.J A M m M M N Z Z Z H L ( ;.4.v.m.m.V.m.b.v.9.3.>.#.@.O.] ",
"*.*.;.1.4.j.v.b.x.x.x.m.m.b.6.*.A h 8 8 8 q q 8 8 8 9 M E ~ g.C.L.P.P.L.C.g.~ E M 9 7 4 4 8 j H *.9.m.Z.G.V.m.v.4.1.;.*.#.@.O.] ",
"/ +.*.;.4.v.b.m.m.b.b.m.V.b.4.Y k 2 # + + # # + + # 3 V ~ D.J.T..X$X$X.XT.J.D.~ V 3 # o o # 2 k Y 4.b.Z.Z.m.x.9.1.-.+.+.@.O.O.O.",
"^ / +.;.3.t.v.b.b.x.v.v.j.4.=.L h ; O         @ - > x ! h.J.R.;X4XwXwX4X;X'.J.h.W 9 $ .     # 8 A =.4.k.v.v.j.3.;.+.O.O.O.O.O.O.",
"{ O.+.*.>.3.4.t.t.9.4.1.=.Y L z y : * o     @ , g o.&.L.Y.=X;X7XuXiXiXuX6X,X'.U.S.C n 1 %   o ; h A Y =.1.4.3.>.-.+.O.{ { O.O.O.",
"{ O.@.#.*.;.;.>.1.>.-.Y A j q y y r 6 * o   - g %.s. XXX2X5X4XuXpXiXiXiXuX6X<X`.K.h.Q n 1 X   X ; 8 j A Y -.>.:.#.@.O.{ O.O.O.O.",
"O.O.@.@.+.+.*.*.*.+.U Z 0 ; ; 6 y i i 6 % O > o.s.|.*XqXeXeXwXwXtXtXtXtXtXwX4X:X`.J.D.Q n $       # ; q Z U +.#.#.O.O.O.O.O.O.O.",
"O.O.O.@.+.+./ / U P Z h 2 # * : i c c e * O > o.P.$XeXyXyXtXtXrXqXqXqX9X9X9X3X5X>XR.J.g.M $       o # 2 j Z J U { { O.O.O.O.O.O.",
"] { O.@.#.+./ U H z h 8 : = : r a S c r * O 2 U I.-X6XuXiXyXrX9X8X&X@X@X@X@X%X$X<X;X`.A.L ;     o * = 6 8 h z G K ] ] O.O.O.O.O.",
"] { @.#.,.-.*.L k 8 2 : 6 e y i c S c r * O : L A.`.,X6XuXtXrX0X@X}.{.].{.{.}.#X5X5X-XI.O.>   o * 6 e 6 6 6 8 x b [ ] O.O.O.O.O.",
"{ O.@.,.>.>.*.H q ; # = e i c S D D c r * O $ M g.J.'.,X6XwXqX&X}.(./.~.~./.(.oX%X3X$XP.$.> O % 6 i i r : # , 8 l J O.O.O.O.O.O.",
"@.@.#.:.>.1.*.A 8 # O * r c D ' ' D c r * O $ n Q D.J.'.<X4X3X#X]./.!.W. .!.^.].oX%X+Xs.o.t * = y c c r = O + > l J @.#.@.O.O.O.",
"#.#.,.:.3.3.*.A 7 + o * r c D ' ' D c r *   X 1 n Q h.U.=X:X1X+X).^.W.W.W.W.~./.).[.s.&.[ g 6 r i S c r * o + 2 z +.:.:.#.@.O.O.",
">.>.>.1.3.3.*.A 7 + o * r c D ' ' D c r * o   % 1 n C S.U.`.=X_.).^.!.W.W.Q.....i.%.o.K v x i a S S c r * o + 8 H -.1.>.:.@.O.] ",
"1.1.1.3.4.3.*.A 8 # O * r c D ' ' D c r = O     . $ 9 W h.J.E.Y.d.^.Q.!.!.Q. .X.` g t t i c c S D D c r * O # 0 T 1.t.q.:.#.O.] ",
"3.3.4.4.8.3.*.A 8 # O * r c D D S c i r 6 * # X + # 3 V f.D.F.H.p.X. . . . .X._ d , * : r i c S D D c r * O # q I 4.k.y.:.#.O.] ",
"4.4.4.9.9.3.*.A 7 + o * r c S S c i y r 8 8 8 8 8 8 j V E ~ ~ } [ ` ) ) ) ) _ f g 7 4 5 8 y i c S S c r * o # q I 4.x.y.>.#.O.] ",
"4.4.4.4.8.3.*.A 7 +   * r c S c r 6 6 8 j N H L L L L R V m m p t w s s s s d g l z z h 8 6 6 y c S c r *   # q I 4.x.y.>.#.O.] ",
"3.3.4.4.8.3.*.A 8 # O * r c c u : # * 8 N Y =.1.4.2.=.T B 3 $ # + & & & & & , h G Y Y N 8 * * : u c c r * O # q I 4.x.y.:.#.O.] ",
"3.3.3.4.4.3.=.L h ; * : r i i e * o # 8 A *.4.x.m.b.4.Y k ; + O X + + + + # ; j T *.*.H 8 # O * e i i r : * 2 k ( 4.x.y.:.#.O.] ",
"3.3.3.4.4.3.;.Y Z h 8 8 r r 6 * o   X 7 A =.t.N.G.V.j.*.Z t , , ; 5 5 5 5 5 q A ( ;.=.H 8 +   o * 6 r r 8 8 j L =.9.x.r.:.#.O.] ",
"3.3.3.4.4.3.1.=./ L N j 8 : * o     X 7 A =.t.m.Z.V.j.;.U v l l z N A A A A L / ;.1.=.H 8 X     o * : 8 j N T *.4.k.x.r.>.#.O.] ",
"3.3.3.3.4.3.3.2.<.=.Y N 8 * o       # 8 H *.4.x.m.m.x.1.#.{ J J U *.*.=.*.*.=.<.3.3.*.H 8 #       o * 8 N Y ;.4.j.b.x.q.:.#.O.] ",
"3.3.3.3.3.3.3.4.4.3.=.L h ; # o o # ; h L =.4.v.m.m.x.q.:.#.@.#.:.1.3.4.4.3.3.4.4.3.=.L h ; # o o # ; h L =.4.v.b.b.x.q.:.#.O.] ",
"3.3.3.3.3.3.4.8.9.4.<./ Z h 8 7 7 8 h Z Y ;.4.k.b.m.x.r.:.#.#.,.>.3.8.t.9.9.8.9.8.3.;.Y Z h 8 7 5 8 h Z Y <.9.x.m.m.x.q.:.#.O.] ",
"3.3.3.3.3.3.4.4.8.4.2.=.Y L A Z A H L Y *.1.4.j.b.b.x.q.:.#.#.,.:.3.4.9.8.4.4.4.4.3.1.*.Y L H A A A L Y *.1.9.v.b.m.x.q.:.#.O.] ",
"3.3.3.3.3.3.3.4.4.3.3.1.;.=.*.*.*.*.=.;.1.3.4.j.b.m.x.q.:.#.@.#.>.1.3.4.4.3.4.4.4.3.3.1.;.=.*.*.*.*.=.;.1.3.4.j.b.m.x.q.:.#.O.] ",
"3.3.3.3.3.3.3.3.3.3.3.3.3.3.3.3.3.3.3.3.4.4.9.j.b.m.x.q.:.#.@.#.>.1.3.4.4.3.3.3.3.3.3.3.3.3.3.3.3.3.3.3.4.4.9.j.b.m.x.q.:.#.O.] ",
"4.4.4.3.3.3.3.3.3.3.3.4.4.4.4.8.8.8.8.9.9.t.j.v.m.m.x.q.:.#.@.#.>.1.3.4.4.3.3.3.3.3.3.4.4.4.4.8.8.8.8.9.9.t.j.v.m.m.x.q.:.#.O.] ",
"4.4.4.4.3.3.3.3.3.3.3.4.4.4.4.4.4.4.8.t.j.v.x.m.m.m.x.r.:.#.@.#.>.1.4.4.4.3.3.3.3.3.3.4.4.4.4.4.4.4.8.9.j.v.x.m.m.m.x.r.:.#.O.] ",
"3.3.3.3.3.3.3.3.3.3.3.3.3.4.4.3.3.4.4.t.j.b.m.m.m.m.x.q.:.#.@.#.:.1.3.4.4.3.3.3.3.3.3.3.3.4.4.3.3.4.4.t.k.b.m.m.m.m.x.q.:.#.O.] ",
"1.1.2.3.3.4.4.4.4.4.4.4.4.4.4.4.4.4.9.j.x.m.m.m.m.x.t.1.,.#.@.#.:.>.2.3.4.4.4.4.4.4.4.4.4.4.4.4.4.4.9.j.x.m.m.m.m.x.t.1.:.#.O.] ",
";.;.>.1.4.9.j.j.j.j.j.j.j.j.j.j.j.j.j.x.m.m.m.b.v.9.3.>.#.@.@.#.*.;.>.3.4.9.j.j.j.j.j.j.j.j.j.j.j.j.j.x.m.m.m.b.k.9.3.>.#.@.O.] ",
"*.*.;.1.4.j.x.b.b.x.x.x.x.x.x.x.x.x.b.m.m.m.m.v.4.1.;.*.#.@.O.@.+.*.;.1.4.j.x.b.b.x.x.x.x.x.x.x.x.x.b.m.m.m.m.v.4.1.;.*.#.@.O.] ",
"/ +.*.;.4.v.b.m.m.b.b.b.b.b.b.b.b.b.m.m.m.m.x.9.1.-.+.+.@.O.O.O.O.+.*.;.4.v.b.m.m.b.b.b.b.b.b.b.b.b.m.m.m.m.x.9.1.-.+.+.@.O.O.O.",
"^ / +.;.3.t.v.x.x.v.v.x.v.v.v.v.v.x.x.x.x.v.t.3.;.+.+.O.O.O.O.O.O.O.+.;.3.t.v.x.x.v.v.x.v.v.v.v.v.x.x.x.x.v.t.3.;.+.+.O.O.O.O.O.",
"{ O.+.*.>.3.4.4.4.4.4.4.4.4.4.4.4.4.4.4.4.4.3.>.*.+.O.{ { O.O.{ { O.+.*.>.3.4.4.4.4.4.4.4.4.4.4.4.4.4.4.4.4.3.>.*.+.O.{ { O.O.O.",
"{ O.@.#.*.;.;.;.;.;.;.;.;.;.;.;.;.;.;.;.;.;.;.*.#.O.O.{ { O.O.O.O.O.@.#.*.;.;.;.;.;.;.;.;.;.;.;.;.;.;.;.;.;.;.*.#.O.O.{ { O.O.O.",
"O.O.@.@.+.+.*.*.*.*.*.*.*.*.*.*.*.*.*.*.*.*.+.+.@.O.O.O.O.O.O.O.O.O.@.+.+.+.*.*.*.*.*.*.*.*.*.*.*.*.*.*.*.*.+.+.@.O.O.O.O.O.O.O.",
"O.O.O.O.O./ / / / / / / / / / / / / / / / / / O.@.O.O.O.O.O.O.O.O.O.O.O.O./ / / / / / / / / / / / / / / / / / O.@.O.O.O.O.O.O.O.",
"O.O.O.O.O.U U U U ^ ^ ^ ^ U ^ ^ ^ ^ ^ ^ U ^ ^ O.O.O.O.O.O.O.O.O.O.O.O.O.O.U U U ^ ^ ^ ^ U U ^ ^ ^ ^ ^ ^ U ^ ^ O.O.O.O.O.O.O.O.O."
};
