/* XPM */
static char *a7dtk_midli[] = {
/* columns rows colors chars-per-pixel */
"64 64 221 2 ",
"   c #020202",
".  c #090506",
"X  c #0B0807",
"o  c #070308",
"O  c #0A0609",
"+  c #0D0909",
"@  c #110B0C",
"#  c #1C0C0E",
"$  c #130506",
"%  c #17110E",
"&  c #060D11",
"*  c #150C13",
"=  c #190E16",
"-  c #1C1414",
";  c #1D1219",
":  c #1E1A1A",
">  c #161317",
",  c #2B0C0F",
"<  c #220F12",
"1  c #231514",
"2  c #241917",
"3  c #281916",
"4  c #22141C",
"5  c #251A1A",
"6  c #2A1C1C",
"7  c #2A1417",
"8  c #301E1C",
"9  c #391A1C",
"0  c #32211E",
"q  c #2E201F",
"w  c #161F2B",
"e  c #251521",
"r  c #281724",
"t  c #231E22",
"y  c #2B1925",
"u  c #2D1B28",
"i  c #331C23",
"p  c #341E2D",
"a  c #3E1820",
"s  c #381F30",
"d  c #0C202D",
"f  c #18222C",
"g  c #1C2C39",
"h  c #2A2123",
"j  c #282529",
"k  c #352422",
"l  c #392624",
"z  c #3B2926",
"x  c #33262B",
"c  c #32282B",
"v  c #3D2C2A",
"b  c #392827",
"n  c #3B2234",
"m  c #3A2D31",
"M  c #352732",
"N  c #3C3A3F",
"B  c #43191C",
"V  c #50191E",
"C  c #4C1E22",
"Z  c #441C21",
"A  c #4D2225",
"S  c #442E2B",
"D  c #462B29",
"F  c #582528",
"G  c #46312E",
"H  c #4A322E",
"J  c #422639",
"K  c #472937",
"L  c #4C3431",
"P  c #46363C",
"I  c #4C3B3D",
"U  c #433030",
"Y  c #513633",
"T  c #533935",
"R  c #593B36",
"E  c #563F3C",
"W  c #5B3E3A",
"Q  c #583734",
"!  c #502F32",
"~  c #63282C",
"^  c #642B30",
"/  c #7A2E35",
"(  c #742B31",
")  c #7A3139",
"_  c #603639",
"`  c #55403E",
"'  c #5A413E",
"]  c #62423E",
"[  c #1A3B52",
"{  c #1D3649",
"}  c #263747",
"|  c #4E3F46",
" . c #453849",
".. c #513F44",
"X. c #633542",
"o. c #27465C",
"O. c #3E5468",
"+. c #285676",
"@. c #345C77",
"#. c #254962",
"$. c #4C4949",
"%. c #4A4544",
"&. c #524046",
"*. c #5C4443",
"=. c #554248",
"-. c #5B4549",
";. c #5D595B",
":. c #465156",
">. c #624542",
",. c #694743",
"<. c #664845",
"1. c #6B4A46",
"2. c #61474A",
"3. c #654A4C",
"4. c #6B4C4B",
"5. c #704C47",
"6. c #724F4B",
"7. c #714E4A",
"8. c #744F4A",
"9. c #724E4A",
"0. c #76504B",
"q. c #76514C",
"w. c #77514C",
"e. c #77514D",
"r. c #75504C",
"t. c #77514C",
"y. c #78514C",
"u. c #78524D",
"i. c #79524E",
"p. c #7A534E",
"a. c #7A534D",
"s. c #7B544F",
"d. c #7A534D",
"f. c #775251",
"g. c #765251",
"h. c #7D5550",
"j. c #7C5551",
"k. c #714F50",
"l. c #635268",
"z. c #47617F",
"x. c #787979",
"c. c #6B646F",
"v. c #813338",
"b. c #883D44",
"n. c #94444B",
"m. c #815651",
"M. c #815651",
"N. c #875A54",
"B. c #855955",
"V. c #865954",
"C. c #895B55",
"Z. c #8B5C56",
"A. c #8E5E58",
"S. c #8C5459",
"D. c #905F59",
"F. c #91575C",
"G. c #864348",
"H. c #A3434C",
"J. c #A74C59",
"K. c #916059",
"L. c #BD5C65",
"P. c #AE5F66",
"I. c #88696C",
"U. c #877B7C",
"Y. c #916F71",
"T. c #AF6066",
"R. c #A56D79",
"E. c #8C5062",
"W. c #D5767F",
"Q. c #C06F79",
"!. c #285D82",
"~. c #305F81",
"^. c #2B6085",
"/. c #376686",
"(. c #456B8A",
"). c #49718C",
"_. c #5A7D97",
"`. c #6D7A8F",
"'. c #A47E90",
"]. c #C77A81",
"[. c #D47A82",
"{. c #69889E",
"}. c #788488",
"|. c #6A8CA2",
" X c #7C96A9",
".X c #BE979A",
"XX c #A9999A",
"oX c #8799A9",
"OX c #9F92A3",
"+X c #97ABB8",
"@X c #9FA0AF",
"#X c #A1A0A0",
"$X c #BAA8A9",
"%X c #A6ACB5",
"&X c #A1B3BE",
"*X c #BCB0B6",
"=X c #908E8E",
"-X c #C78188",
";X c #D9969D",
":X c #CA959B",
">X c #E3979E",
",X c #D79EA2",
"<X c #C49FA8",
"1X c #D2A3AA",
"2X c #C2B8BE",
"3X c #D9B3B7",
"4X c #CBAAB2",
"5X c #E5B4B7",
"6X c #E6ADB2",
"7X c #AFBEC6",
"8X c #BEC8CD",
"9X c #B7C7CD",
"0X c #C4C7CB",
"qX c #D7C7C8",
"wX c #D5C7C8",
"eX c #CCD3D5",
"rX c #D6D3D4",
"tX c #DBD5D5",
"yX c #E5C6C8",
"uX c #E3D6D6",
"iX c #E2CFD0",
/* pixels */
"| | =.-.3.6.w.u.u.w.w.w.w.w.w.w.w.w.w.u.u.w.6.3.-.&.| | | &.&.| | ..=.-.3.6.u.u.u.u.w.w.w.w.w.w.w.w.w.u.u.w.6.3.-.&.| | | &.&.&.",
"| &.=.-.3.6.w.u.u.w.w.w.w.w.w.w.w.w.w.u.u.w.6.3.-.=.&.&.&.&.&.&.&.&.=.-.3.6.w.u.u.w.w.w.w.w.w.w.w.w.w.u.u.w.6.3.-.=.&...&.&.&.&.",
"=.=.-.2.3.6.w.u.u.w.w.w.w.w.w.w.w.w.w.u.u.w.6.4.3.-.-.=.&.&.&.&.&.=.-.2.4.6.w.u.u.w.w.w.w.w.w.w.w.w.w.u.u.w.6.4.3.-.-.=.&.&.&.&.",
"-.-.2.3.4.r.w.u.u.w.w.w.w.w.w.w.w.w.w.w.u.w.w.6.4.4.3.-.-.=.&.=.-.-.2.3.4.w.w.u.u.w.w.w.w.w.w.w.w.w.w.w.u.w.w.6.4.4.3.-.-.=.&...",
"3.3.3.4.6.w.w.u.w.w.w.w.w.w.w.w.w.w.w.w.w.w.w.u.f.f.k.4.-.=.=.-.-.3.3.4.6.w.w.u.w.w.w.w.w.w.w.w.w.w.w.w.w.w.w.u.f.f.k.4.-.=.&.| ",
"6.6.6.6.w.w.w.w.w.w.w.w.w.w.w.w.w.w.w.w.w.w.u.h.M.B.h.g.3.-.=.-.3.4.6.w.w.w.u.u.w.w.w.w.w.w.w.w.w.w.w.w.w.w.u.s.M.B.h.g.3.-.&.| ",
"w.w.w.w.w.w.w.w.w.w.w.w.w.w.w.w.w.w.w.w.w.u.u.M.B.Z.B.f.3.-.=.-.3.6.w.u.u.u.u.u.u.u.w.w.w.w.w.w.w.w.w.w.w.w.u.M.B.C.B.f.3.-.&.| ",
"u.u.u.u.u.w.w.w.w.w.w.w.w.w.w.w.w.w.w.u.u.u.h.V.Z.A.Z.j.3.-.=.-.3.6.u.u.u.u.u.u.u.u.u.u.u.u.w.w.w.w.w.w.w.w.u.M.C.Z.B.f.3.-.&.| ",
"u.u.u.u.w.w.w.w.w.w.w.w.w.w.w.w.w.w.u.u.u.u.h.B.Z.D.Z.j.3.-.=.-.3.6.u.u.u.s.s.s.s.s.s.u.u.u.w.w.w.w.w.w.w.w.u.M.C.Z.B.f.3.-.&.| ",
"w.u.w.u.w.w.w.w.w.w.w.w.w.w.w.w.w.w.w.r.r.r.u.M.V.C.B.f.3.-.=.-.3.6.w.u.u.r.r.r.r.w.w.w.w.w.w.w.w.w.w.w.w.w.u.M.B.C.B.f.3.-.&.| ",
"w.w.w.w.w.w.w.w.w.w.w.w.w.w.w.u.u.u.r.6.1.,.,.1.6.6.6.3.-.=.=.-.3.6.r.6.1.,.>.>.>.>.,.1.6.r.w.u.u.w.w.w.w.w.u.M.V.C.B.f.3.-.&.| ",
"w.w.w.w.w.w.w.w.w.w.w.w.w.w.u.u.s.u.6.,.R Y L L Y R R E ..&.=.2.3.6.6.,.W T L G G G Y W ,.6.u.u.u.u.w.w.w.w.u.M.V.C.B.f.3.-.&.| ",
"w.w.w.w.w.w.w.w.w.w.w.w.w.w.u.s.s.u.5.W G k 6 6 6 0 l v P | =.2.4.6.1.W G k 6 5 3 6 k G W 5.u.h.u.u.w.w.w.w.u.M.V.C.B.f.3.-.&.| ",
"w.w.w.w.w.w.w.w.w.w.w.w.w.w.w.u.u.r.,.Y k - @ X X @ - t m I =.3.4.6.,.T k - @ . . @ - k Y ,.r.u.u.w.w.w.w.w.u.M.B.C.B.f.3.-.&.| ",
"w.w.w.w.w.w.w.w.w.w.w.u.u.w.r.6.6.,.R S 6 * .       + : c P =.3.6.6.>.L 6 @       . * 6 S R ,.5.6.r.w.w.w.w.u.M.B.C.B.f.3.-.&.| ",
"w.w.w.w.w.w.w.w.w.w.u.u.s.u.6.,.' Y S l 6 ; * o       > x P =.3.r.6.>.G 5 .     o * ; 6 l S Y ' ,.6.u.u.u.u.u.M.V.C.B.f.3.-.&.| ",
"w.w.w.w.w.w.w.w.w.w.u.s.h.u.5.' G k 6 6 r y e * o     > x P =.3.r.6.>.G 3 .   o * r y r 6 6 k G ' 5.u.s.u.u.u.M.B.C.B.f.3.-.&.| ",
"w.w.w.w.w.w.w.w.w.w.u.u.u.r.,.Y k - * ; y p p r * . + - c P =.3.r.6.>.H 6 @ . * r p p y ; * - k Y ,.r.u.u.u.u.M.B.C.B.f.3.-.&.| ",
"w.w.w.w.w.w.w.u.w.w.r.6.6.,.R S 6 * @ = r p p y 4 - - t m I =.3.4.6.,.T k - * ; y p p r = @ * 6 S R ,.6.6.u.s.V.C.Z.B.f.3.-.&.| ",
"u.u.u.w.w.w.w.u.u.w.6.,.W Y S l 5 ; = ; e y u i i k b v P | -.3.4.w.6.] L b h y u y y e ; = ; 5 k S T ] 1.u.M.C.Z.Z.B.f.3.-.&.| ",
"u.u.u.w.w.w.w.u.u.r.1.R G k 6 6 r r r 4 ; ; 4 i S Y R W =.=.-.3.4.w.r.1.] R G b y 4 ; ; 4 r r r 6 6 l L ] y.V.Z.D.Z.B.f.3.-.&.| ",
"w.w.w.w.w.w.u.u.u.w.,.Y k - * ; y p p r = @ - k Y ,.6.4.2.=.=.-.3.6.6.6.5.,.R S 6 * @ = r p p y ; * 1 b W y.C.D.K.Z.B.f.3.-.&.| ",
"6.6.6.r.u.u.u.h.h.u.,.L 6 @ . * y n n y * . @ 0 R 5.h.6.-.| I I W >.>.,.,.>.E z 2 X . = y n n y * . @ 0 R y.Z.K.A.C.h.r.2.-.&.| ",
"1.1.4.6.u.s.M.V.B.M.1.L 6 X . * y n n y * . X 6 Y 1.w.<.I m c c z S S G L G v q % . . = u n n y * . @ 8 R u.Z.A.C.h.w.3.-.=.&.| ",
">.>.1.6.u.M.B.Z.Z.B.6.Y 6 @ . * y n n y * . X 5 G >.<.E v 5 - > - 1 7 3 6 5 2 % X   . = u n n y * . @ 0 R u.C.C.s.6.1.>.-.=.&.| ",
"' *.>.1.u.V.Z.A.D.C.6.R 0 @ . * y n n y = . X 2 v T E G h - X + X @ @ @ @ @ X .     . = u n n y * . @ 0 R y.B.M.r.<.*.*.=.&.&.&.",
"` ' *.1.w.h.B.Z.Z.V.6.T 6 @ . * y n n p ; * @ 4 l G G z 8 1 = - - : : : ; # # $ .   . = u n n y * . @ 0 R 6.h.u.4.*.&.&.&.&.&.&.",
"..&.*.>.4.w.u.h.h.u.,.L 6 @ . * y n n n y 4 ; 4 5 q k 9 B B A ! I %.%.I ! A B , $   . * u n n y = . @ 6 L ,.6.6.<.*.&.....&.&.&.",
"..&.=.-.>.1.1.4.6.1.' S 5 X . * y n J J n p y 4 ; - 7 B F / b.S.I.U.U.I.S.b.( V , . o * y n n u = . X 3 S ' <.3.-.=.&...&.&.&.&.",
"&.&.=.=.*.*.>.>.<.>.T z 2 X . * y n J J J n p r > @ 1 C / H.L.Q..X$X$X.X].L.H.( B # O * y n n y * . X 2 v T *.-.-.=.&.&.&.&.&.&.",
"&.&.&.=.*.*.*.>.>.*.T b - X . * y n J J J n M u t t b _ n.L.W.;X3XwXqX3X;X[.L.n.~ 9 < 4 y p p r * . X 1 b T *.-.=.&.&.&.&.&.&.&.",
"| ..&.=.*.>.>.<.<.>.E z - + . * y n J n s p x M N $.;.I.R.-X;X6XyXuXuXyX5X>X[.T.G.^ C a i i r * .   X 2 v E *.-.-.&.| | | &.&.&.",
"| ..&.-.>.<.1.4.6.1.' S 2 X . * y n J p r 4 h N ;.x.=XXX$X1X3XyXiXuXuXuXyX5X,X-XT.n./ F Z 7 * o     X 3 S ' <.3.-.&.| | | &.&.&.",
"| &.=.-.3.4.6.w.u.6.] G 6 @ . * y n n y = * t %.x.#X*X0XwXwXqXwXrXrXrXrXrXqX3X:X].L.H./ C < .       @ 6 G >.4.4.2.=.&.&.&.&.&.&.",
"=.=.-.2.3.6.w.u.s.r.,.Y k - * ; y p p 4 + . : %.U.$XwXtXtXrXrXeX0X0X0X8X8X0X2X1X;XW.L.b.A #       X - k T ,.6.6.3.-.-.=.&.&.&.&.",
"-.-.2.3.4.w.u.u.s.u.1.W G k 6 6 r r 4 *     - I Y.:X5XyXuXtXeX8X7X&X+X+X+X+X%X$X1X;X].F.! -     @ 3 k G ' 1.w.w.6.3.3.-.-.=.&...",
"3.3.4.4.6.w.u.u.u.u.6.,.' Y S l 6 ; @       = ! F.].>X5XyXrXeX9X+X X|.|.|.|. X@X4X4X:XY.E - . X 3 S Y ' ,.6.u.u.j.f.g.4.-.=.&.| ",
"6.6.6.r.w.w.w.u.u.w.r.6.5.,.R S 6 * .       # A b.L.[.>X5XqX0X&X X_.)././.)._.oX%X2X$XU.$.: X - z R ,.6.6.r.u.h.M.B.h.g.3.-.&.| ",
"w.w.w.w.w.w.w.w.w.w.w.u.u.r.,.Y k - @ . . @ 7 C / H.L.[.,X3X2X@X{.).^.!.!.^.(.{.oX%X#Xx.$.h - 6 H ,.r.u.u.u.u.M.B.C.B.f.3.-.&.| ",
"u.u.u.u.u.w.w.w.w.w.u.s.h.u.6.' G k 6 5 5 6 0 A ~ / n.T.-X:X<XOX`.(.!.!.!.!./.).`.}.x.;.%.v k S W 5.u.s.u.u.u.M.C.Z.B.f.4.-.&.| ",
"u.u.u.u.w.w.w.w.w.w.u.u.s.u.6.,.W Y G G L L G D Z C ~ G.T.].-X'.`.(.^.!.^.^.@.@.O.:.$.%.I L T W ,.6.u.u.u.u.u.M.C.Z.B.f.3.-.&.| ",
"w.w.w.w.w.w.w.w.w.w.w.u.u.w.r.6.1.,.>.,.,.>.W G 8 7 9 ^ n.L.Q.R.c.z.~.^.^.!.+.o.} j h b L ' ,.1.6.r.w.w.w.w.u.M.B.C.B.f.3.-.&.| ",
"w.w.w.w.w.w.w.w.w.w.w.w.w.w.w.w.w.w.w.u.u.r.,.L k 1 7 A v.H.J.E.l.O.+.+.+.+.#.{ f > - 0 Y ,.r.s.u.w.w.w.w.w.u.M.B.C.B.f.3.-.&.| ",
"w.w.w.w.w.w.w.w.w.w.w.w.w.w.u.u.u.u.s.h.h.s.6.' G l k A ~ / ) X. .} [ [ [ [ { g f 5 8 S W 1.s.s.s.u.w.w.w.w.u.M.B.C.B.f.3.-.&.| ",
"w.w.w.w.w.w.w.w.w.w.w.w.w.w.w.u.u.u.u.s.s.u.r.1.] R Y ! A C Z i t w d d d d f j c v H R ,.6.u.s.u.u.w.w.w.w.u.M.B.C.B.f.3.-.&.| ",
"w.w.w.w.w.w.w.w.w.w.w.w.w.w.w.w.u.u.u.u.u.u.u.u.s.y.,.Q D 7 # @ + & & & & & > h G R ,.5.6.r.u.u.u.w.w.w.w.w.u.M.B.C.B.f.3.-.&.| ",
"w.w.w.w.w.w.w.w.w.w.w.w.w.w.w.w.w.w.w.w.w.w.u.M.C.C.u.W b - X . X X @ X X @ - k Y ,.r.u.u.w.w.w.w.w.w.w.w.w.u.M.V.C.B.f.3.-.&.| ",
"w.w.w.w.w.w.w.w.w.w.w.w.w.w.w.w.w.w.w.w.r.w.u.V.Z.A.M.>.U t - - 1 5 6 3 3 6 0 G W 5.u.s.u.u.w.w.w.w.w.w.r.w.u.M.V.C.B.f.3.-.&.| ",
"w.w.w.w.w.w.w.w.w.w.w.w.w.w.w.w.w.w.w.r.r.w.u.M.Z.Z.M.4.E m c c v S G G G G Y W ,.6.u.s.u.u.w.w.w.w.w.w.r.w.u.M.B.C.B.f.3.-.&.| ",
"w.w.w.w.w.w.w.w.w.w.w.w.w.w.w.w.w.w.w.w.w.w.u.M.C.Z.B.6.-.| I I W >.>.,.>.>.,.1.6.r.w.u.u.w.w.w.w.w.w.w.w.w.u.M.C.Z.B.f.3.-.&.| ",
"w.w.w.w.w.w.w.w.w.w.w.w.w.w.w.w.w.w.w.w.u.u.s.M.C.Z.B.f.3.-.=.-.3.6.w.u.y.y.r.w.w.w.w.w.w.w.w.w.w.w.w.u.u.u.s.M.C.Z.B.f.3.-.&.| ",
"u.u.u.w.w.w.w.w.w.w.w.w.w.w.w.w.r.w.w.u.s.s.M.V.Z.Z.B.j.3.-.-.2.4.w.s.s.s.s.u.u.u.w.w.w.r.r.r.r.r.w.u.u.u.s.M.V.Z.Z.B.f.3.-.&.| ",
"u.u.u.u.w.w.w.w.w.w.w.w.r.w.r.r.r.w.u.s.h.M.B.Z.Z.Z.B.j.4.-.-.2.3.w.s.s.s.u.u.u.u.w.w.w.r.w.r.r.r.w.u.s.h.M.B.Z.Z.Z.B.f.3.-.&.| ",
"w.w.w.w.w.w.w.w.w.w.w.w.u.w.w.w.w.u.u.h.M.C.Z.Z.A.Z.B.f.3.-.=.-.3.6.u.u.u.u.u.u.u.w.w.w.u.w.w.w.w.u.u.h.M.C.Z.Z.Z.Z.B.f.3.-.&.| ",
"6.6.6.r.w.u.u.u.u.u.u.u.u.u.u.u.u.u.s.M.B.Z.Z.Z.Z.B.h.6.2.-.=.*.3.4.6.w.u.u.u.u.u.u.u.u.u.u.u.u.u.u.s.M.B.Z.Z.Z.Z.B.h.6.3.-.&.| ",
"1.1.4.6.u.s.M.M.M.M.M.M.M.M.M.M.M.M.M.B.Z.Z.Z.C.V.s.w.3.-.=.=.-.>.1.4.r.u.s.M.M.M.M.M.M.M.M.M.M.M.M.M.B.Z.Z.Z.C.M.s.w.3.-.=.&.| ",
">.>.1.6.u.M.B.C.C.B.B.B.B.B.B.B.B.B.C.Z.Z.Z.Z.V.u.6.1.>.-.=.&.=.*.>.1.6.u.M.B.C.C.B.B.B.B.B.B.B.B.B.C.Z.Z.Z.Z.V.u.6.1.>.-.=.&.| ",
"' *.>.1.u.V.C.Z.Z.C.C.C.C.C.C.C.C.C.Z.Z.Z.Z.B.s.6.<.*.*.=.&.&.&.&.*.>.1.u.V.C.Z.Z.C.C.C.C.C.C.C.C.C.Z.Z.Z.Z.B.s.6.<.*.*.=.&.&.&.",
"` ' *.1.w.h.V.B.B.V.V.V.V.V.V.V.V.V.B.B.B.V.h.w.1.*.*.&.&.&.&.&.&.*.*.1.w.M.V.B.B.V.V.B.V.V.V.V.V.V.B.B.B.V.h.w.1.*.*.&.&.&.&.&.",
"..&.*.>.4.w.u.u.u.u.u.u.u.u.u.u.u.u.u.u.u.u.r.4.>.*.&.....&.&.....&.*.>.4.w.u.u.u.u.u.u.u.u.u.u.u.u.u.u.u.u.r.4.>.*.&.....&.&.&.",
"..&.=.-.>.1.1.1.1.1.1.1.1.1.1.1.1.1.1.1.1.1.1.>.-.&.&.....&.&.&.&.&.&.-.>.1.1.1.1.1.1.1.1.1.1.1.1.1.1.1.1.1.1.>.-.&.&.....&.&.&.",
"&.&.=.=.*.*.>.>.>.>.>.>.>.>.>.>.>.>.>.>.>.>.*.*.=.=.&.&.&.&.&.&.&.&.=.&.*.*.>.>.>.>.>.>.>.>.>.>.>.>.>.>.>.>.*.*.=.=.&.&.&.&.&.&.",
"&.&.&.&.&.' ' ' ' ' ' ' ' ' ' ' ' ' ' ' ' ' ' &.=.&.&.&.&.&.&.&.&.&.&.&.&.' ' ' ' ' ' ' ' ' ' ' ' ' ' ' ' ' ' &.=.&.&.&.&.&.&.&.",
"&.&.&.&.&.E E E ` ` ` ` ` ` ` ` ` ` ` ` ` ` ` &.&.&.&.&.&.&.&.&.&.&.&.&.&.E E E ` ` ` ` ` ` ` ` ` ` ` ` ` ` ` &.&.&.&.&.&.&.&.&."
};
