/* XPM */
static char *al9ez_ytv5q[] = {
/* columns rows colors chars-per-pixel */
"64 64 218 2 ",
"   c #030202",
".  c #090506",
"X  c #0B0807",
"o  c #050409",
"O  c #0A0609",
"+  c #0D0A09",
"@  c #060A0C",
"#  c #110C0B",
"$  c #190A0B",
"%  c #18110E",
"&  c #060E13",
"*  c #0C0B10",
"=  c #160C14",
"-  c #1A0E15",
";  c #0A1115",
":  c #1C1414",
">  c #1E1218",
",  c #1C1A1A",
"<  c #141515",
"1  c #2A0C0E",
"2  c #221614",
"3  c #291415",
"4  c #241917",
"5  c #22141E",
"6  c #261A18",
"7  c #2A1C1A",
"8  c #2A1A17",
"9  c #351B1C",
"0  c #32211E",
"q  c #38201F",
"w  c #2E201E",
"e  c #0F1D28",
"r  c #241420",
"t  c #241E22",
"y  c #2B1926",
"u  c #2D1A28",
"i  c #2C1724",
"p  c #331E2D",
"a  c #351B23",
"s  c #0D212E",
"d  c #1F262B",
"f  c #28292B",
"g  c #342421",
"h  c #3B2926",
"j  c #33242A",
"k  c #33282A",
"l  c #3D2B29",
"z  c #392422",
"x  c #3B2234",
"c  c #3A2B32",
"v  c #41171A",
"b  c #50191E",
"n  c #451E21",
"m  c #4C1E21",
"M  c #442625",
"N  c #4C2124",
"B  c #432D2B",
"V  c #402A27",
"C  c #522426",
"Z  c #58292B",
"A  c #46302D",
"S  c #4A322E",
"D  c #4C2D30",
"F  c #4D3431",
"G  c #4C3A3D",
"H  c #453131",
"J  c #513633",
"K  c #533936",
"L  c #5A3B36",
"P  c #563F3C",
"I  c #5B3E3A",
"U  c #583634",
"Y  c #53312F",
"T  c #63282C",
"R  c #7A2E35",
"E  c #742A31",
"W  c #7B323A",
"Q  c #653337",
"!  c #55403E",
"~  c #5A413E",
"^  c #62413D",
"/  c #1A3C52",
"(  c #173345",
")  c #263747",
"_  c #4E3F46",
"`  c #453C44",
"'  c #513F44",
"]  c #633542",
"[  c #334550",
"{  c #285676",
"}  c #365D78",
"|  c #304D67",
" . c #4A4647",
".. c #524046",
"X. c #5C4443",
"o. c #554248",
"O. c #5B4549",
"+. c #514949",
"@. c #525456",
"#. c #634642",
"$. c #694742",
"%. c #664845",
"&. c #6B4A46",
"*. c #624749",
"=. c #664A4C",
"-. c #6A4C4B",
";. c #704B47",
":. c #724E4B",
">. c #784F4A",
",. c #77514C",
"<. c #7A534E",
"1. c #7B534E",
"2. c #78524D",
"3. c #7B544E",
"4. c #7D544F",
"5. c #7A534D",
"6. c #6B4E50",
"7. c #714F50",
"8. c #775251",
"9. c #775352",
"0. c #765251",
"q. c #785352",
"w. c #7E5551",
"e. c #7D5552",
"r. c #435966",
"t. c #635268",
"y. c #47617F",
"u. c #777878",
"i. c #6A6270",
"p. c #84353A",
"a. c #873D44",
"s. c #864248",
"d. c #924148",
"f. c #9A474D",
"g. c #815651",
"h. c #825752",
"j. c #815751",
"k. c #875953",
"l. c #875A54",
"z. c #855955",
"x. c #855954",
"c. c #8A5B55",
"v. c #895B54",
"b. c #8B5C56",
"n. c #8B5C56",
"m. c #8E5E58",
"M. c #8B5459",
"N. c #905F59",
"B. c #91575C",
"V. c #944A50",
"C. c #A4434C",
"Z. c #A74C59",
"A. c #91605A",
"S. c #8C5062",
"D. c #AC5E65",
"F. c #BD5C64",
"G. c #86686B",
"H. c #916F72",
"J. c #887B7C",
"K. c #AB6770",
"L. c #C0797F",
"P. c #D5767F",
"I. c #C06673",
"U. c #285D82",
"Y. c #305F81",
"T. c #2C6184",
"R. c #276086",
"E. c #386686",
"W. c #456B8A",
"Q. c #46708E",
"!. c #5A7D97",
"~. c #507289",
"^. c #717891",
"/. c #A47E90",
"(. c #C97B82",
"). c #D57981",
"_. c #69889E",
"`. c #72838B",
"'. c #6A8CA2",
"]. c #7C96A9",
"[. c #A49C9D",
"{. c #BE969A",
"}. c #879AA9",
"|. c #9F92A3",
" X c #9FA0AF",
".X c #97ABB8",
"XX c #B9AAAB",
"oX c #A6ACB5",
"OX c #A1B3BE",
"+X c #B3ABAF",
"@X c #8F8D8D",
"#X c #C8828A",
"$X c #C5999D",
"%X c #DD959C",
"&X c #D1999F",
"*X c #D78E97",
"=X c #E3979E",
"-X c #D79EA2",
";X c #C49FA8",
":X c #C7A3A8",
">X c #D2A3AA",
",X c #C2B8BE",
"<X c #D9B3B7",
"1X c #CAABB4",
"2X c #E5B4B7",
"3X c #E6ADB2",
"4X c #AFBEC6",
"5X c #BEC8CD",
"6X c #B7C7CD",
"7X c #C4C7CB",
"8X c #D7C7C8",
"9X c #D5C7C8",
"0X c #CCD3D5",
"qX c #D6D3D4",
"wX c #DBD5D5",
"eX c #E5C6C8",
"rX c #E3D6D6",
"tX c #E2CFD0",
/* pixels */
"_ _ o.O.=.:.,.2.2.,.,.,.,.,.,.,.,.,.,.2.2.,.:.=.O..._ _ _ ...._ _ ' o.O.=.:.,.2.2.2.,.,.,.,.,.,.,.,.,.2.2.,.:.=.O..._ _ _ ......",
"_ ..o.O.=.:.,.2.2.,.,.,.,.,.,.,.,.,.,.2.2.,.:.=.O.o.................o.O.=.:.,.2.2.,.,.,.,.,.,.,.,.,.,.2.2.,.:.=.O.o...' ........",
"o.o.O.*.=.:.,.2.2.,.,.,.,.,.,.,.,.,.,.2.2.,.:.-.=.O.O.o...........o.O.*.-.:.,.2.2.,.,.,.,.,.,.,.,.,.,.2.2.,.:.-.=.O.o.o.........",
"O.O.*.=.-.,.,.2.2.,.,.,.,.,.,.,.,.,.,.2.2.,.,.:.-.-.=.O.o.o...o.X.O.*.=.-.,.,.2.2.,.,.,.,.,.,.,.,.,.,.2.2.,.,.:.-.-.=.O.O.o...' ",
"=.=.=.-.:.,.,.2.,.,.,.,.,.,.,.,.,.,.,.,.,.,.,.2.q.8.0.-.O.o.o.o.O.=.=.-.:.,.,.2.,.,.,.,.,.,.,.,.,.,.,.,.,.,.,.2.q.8.7.-.O.o..._ ",
":.:.:.:.,.,.,.,.,.,.,.,.,.,.,.,.,.,.,.,.,.,.2.w.g.h.w.0.=.o.o.O.=.-.:.,.,.,.,.,.,.,.,.,.,.,.,.,.,.,.,.,.,.,.2.w.g.h.w.0.=.o..._ ",
",.,.,.,.,.,.,.,.,.,.,.,.,.,.,.,.,.,.,.,.,.,.2.g.l.c.l.8.=.O.o.O.=.:.,.2.2.,.,.,.,.,.,.,.,.,.,.,.,.,.,.,.,.,.2.g.l.c.l.8.=.O..._ ",
"2.2.2.2.2.,.,.,.,.,.,.,.,.,.,.,.,.,.,.,.,.,.2.g.c.b.l.q.=.O.o.O.=.:.2.2.2.,.,.,.,.,.,.,.,.,.,.,.,.,.,.,.,.,.2.g.c.m.l.q.=.O..._ ",
"2.2.2.2.,.,.,.,.,.,.,.,.,.,.,.,.,.,.,.,.,.,.2.g.c.b.l.q.=.O.o.O.=.:.2.2.2.2.,.,.,.,.,.,.,.,.,.,.,.,.,.,.,.,.2.g.c.b.l.q.=.O..._ ",
"2.2.,.2.,.,.,.,.,.,.,.,.,.,.,.,.,.,.,.,.,.,.2.g.l.c.l.8.=.O.o.O.=.:.,.2.2.,.,.,.,.,.,.,.,.,.,.,.,.,.,.,.,.,.2.g.l.c.l.8.=.O..._ ",
",.,.,.,.,.,.,.,.,.,.,.,.,.,.,.,.,.,.,.,.,.,.2.g.l.c.l.8.=.O.o.O.=.:.2.2.2.2.2.,.,.,.,.,.,.,.,.,.,.,.,.,.,.,.2.g.l.c.l.8.=.O..._ ",
",.,.,.,.,.,.,.,.,.,.,.,.,.,.,.,.,.,.,.,.,.,.2.g.l.c.l.8.-.O.O.O.=.,.2.4.4.2.2.2.2.2.,.,.,.,.,.,.,.,.,.,.,.,.2.g.l.c.l.8.=.O..._ ",
",.,.,.,.,.,.,.,.,.,.,.,.,.,.,.,.,.,.,.,.,.,.2.g.k.c.l.q.=.O.O.*.-.,.4.4.4.3.3.2.2.2.,.,.,.,.,.,.,.,.,.,.,.,.2.g.k.c.l.8.=.O..._ ",
",.,.,.,.,.,.,.,.,.,.,.,.,.,.,.,.,.,.,.,.,.,.2.g.k.c.l.8.=.O.o.O.=.:.,.2.,.,.,.,.,.,.,.,.,.,.,.,.,.,.,.,.,.,.2.g.l.c.l.8.=.O..._ ",
",.,.,.,.,.,.,.,.,.,.,.,.,.,.,.,.,.,.,.,.,.,.2.g.c.c.l.,.O._ G G P #.#.#.#.#.$.&.:.,.,.2.2.,.,.,.,.,.,.,.,.,.2.g.l.c.l.8.=.O..._ ",
",.,.,.,.,.,.,.,.,.,.,.,.,.,.,.,.,.,.,.2.2.2.w.k.m.m.h.-.P c k k l B B B B A F I #.:.2.3.2.2.,.,.,.,.,.,.,.,.2.g.k.c.l.8.=.O..._ ",
",.,.,.,.,.,.,.,.,.,.,.,.,.,.,.,.,.,.,.2.2.3.w.l.m.m.g.#.A 7 : < : 2 2 2 2 6 g A I &.2.4.3.2.,.,.,.,.,.,.,.,.2.g.l.c.l.8.=.O..._ ",
",.,.,.,.,.,.,.,.,.,.,.,.,.,.,.,.,.,.,.,.,.,.2.g.c.c.2.I h : + O + # # + + # : z J $.,.2.2.2.,.,.,.,.,.,.,.,.2.g.l.c.l.8.=.O..._ ",
",.,.,.,.,.,.,.,.,.,.,.,.,.,.,.2.2.,.,.:.&.$.$.&.:.:.$.U M 3 - : : , , : : - 3 q S I $.&.:.,.,.2.2.,.,.2.2.2.4.g.c.c.l.8.=.O..._ ",
"2.2.2.,.,.,.,.,.,.,.,.,.,.,.,.2.2.2.:.$.I J F F J J Y Z C m N D G  . .G D N m m M B F I #.:.2.3.2.,.2.2.2.4.g.k.b.m.l.8.=.O..._ ",
"2.2.2.,.,.,.,.,.,.,.,.,.,.,.,.2.4.2.:.~ S z 7 6 4 8 9 N T R a.M.G.J.J.G.M.a.R T n 9 g B I &.2.4.2.,.2.2.w.g.l.c.m.m.l.8.=.O..._ ",
",.,.,.,.,.2.2.,.,.,.,.,.,.,.,.2.2.,.$.J z : # X X # 3 C W C.F.L.{.XXXX{.(.F.C.R m 3 2 g F $.,.2.2.2.2.w.h.c.c.m.m.m.l.8.=.O..._ ",
":.:.:.,.2.2.2.2.2.2.2.2.4.2.2.,.:.$.I V 4 + . o @ , k Q V.F.P.%X<X8X8X<X%X).F.d.T 9 3 9 B I $.:.,.2.4.g.l.b.m.m.b.l.w.:.=.o..._ ",
"&.&.-.:.2.4.g.g.g.g.g.h.k.g.4.;.^ J l 7 # . @ < f  .@.G.K.#X%X3XeXrXrXeX2X=X(.D.s.T m n M S J ~ &.4.k.b.m.m.m.c.h.4.,.=.O.o..._ ",
"#.#.&.:.2.g.k.c.c.l.l.b.m.c.4.$.F z 4 #     * f @.u.@X[.XX>X<XeXtXrXrXrXeX2X-X(.D.d.R Z n q z F #.4.b.N.N.m.b.k.2.:.&.#.X.o..._ ",
"~ X.#.&.2.k.c.b.b.b.b.m.m.c.2.I h 2 +       ,  .u.[.+X7X9X9X8X8XqXqXqXqXqX8X<X&X(.F.C.R m 4 2 z I 2.c.N.N.m.l.4.:.%.X.X.o.......",
"! ~ X.&.,.w.k.l.l.l.k.k.g.2.$.J g : .       , +.J.XX9XwXwXqXqX0X7X7X7X5X5X7X,X>X*XP.F.a.N % # 4 A $.2.h.k.k.g.,.&.X.............",
"' ..X.#.-.,.2.4.4.2.,.;.$.I J V y > =       , ' H.$X2XeXrXwX0X7X4XOX.X.X.X.XoXXX-X%X(.B.D : . # 0 S I $.;.:.,.-.#.X...' ' ......",
"' ..o.O.#.&.&.-.-.&.#.I S h g y y i 5 = o . : J B.(.=X2XeXqX0X6X.X].'.'.'.'.]. X1X1X$XH.P :     # 7 h S I #.%.%.O.o...' ........",
"....o.o.X.X.#.#.#.#.K A w : : 5 y p p 5 * O % N a.F.).=X2X8X7XOX].!.Q.E.E.Q.!.}.oX,XXXJ.+.,       # : 0 A K X.O.X.o.............",
"......o.X.X.X.#.#.~ J h 4 + O - y x x y = O $ v E C.F.).-X<X,X X_.Q.T.{ { T.W._.}.oX[.u.+.t O       + 4 l J X.O.o...............",
"_ ' ..o.X.X.#.%.%.#.K h : .   = y x x u - O + 1 b E d.D.#X&X;X|.^.W.Y.U.U.U.E.~.`.`.u.t.` f = .     . 2 l K X.O.X..._ _ _ ......",
"_ ' ..X.#.%.&.-.-.&.~ B 4 + . = y x x u - O . $ 1 v Z s.D.(.#X/.^.W.T.U.R.T.} } r.@. .` c j r = O   X 4 B ~ %.=.O..._ _ _ ......",
"_ ..o.O.=.-.:.,.2.:.^ A 6 + O = y x x u - O     . $ 9 Q f.F.I.K.i.W.Y.T.T.Y.{ | ) d t t j x p 5 = . + 7 S #.-.-.*.o.............",
"o.o.O.*.=.:.,.3.4.,.#.S 7 # O = y x x u - O       # 3 C p.C.Z.S.t.| { { { { | ( e & O - y x x y = O # 7 S #.:.:.=.O.o.o.........",
"O.O.*.=.-.,.2.4.4.2.$.S 7 # O = y x x y - O . X % 6 q C T R W ] ` ) / / / / ( s &     = i x x u - O # 7 S #.,.,.,.=.=.O.O.o.....",
"=.=.-.-.:.,.2.4.4.,.#.S 7 # O = y x x y - O + : z S J Y C m n a t e s s s s e ; o     = y x x y - O # 7 S #.2.w.w.q.0.-.O.o..._ ",
":.:.:.,.,.,.2.2.3.,.#.S 7 # O = y x x y = O # 7 F $.$.L M 3 % # + * * & & & & o     O - y x x y = O # 7 S #.2.g.l.l.w.0.=.o..._ ",
",.,.,.,.,.,.2.2.3.,.#.S 7 # O = y x x y = O # g I >.2.^ l : + O + # # # # # + .     O - u x x y = O # 7 S #.2.k.b.b.l.8.=.O..._ ",
"2.2.2.2.2.,.2.2.4.,.#.S 7 # O = y x x y = O # z I 4.g.&.H t : : : 4 8 8 7 8 4 % X . O - u x x y = O # 7 S #.2.k.m.m.l.q.=.O..._ ",
"2.2.2.2.2.,.2.2.4.,.#.S 7 # O = y x x y = O # g I 4.g.:.P c k k l B S S S S V 7 % . O - y x x y = O # 7 S #.2.k.b.b.l.q.=.O..._ ",
",.,.,.,.,.,.2.2.3.,.#.S 7 # O = y x x y = O # 0 L 2.h.q.*.' G G P #.#.$.&.#.I l 4 + O = y x x y = O # 7 S #.2.k.b.b.l.8.=.O..._ ",
",.,.,.,.,.,.2.2.4.,.#.S 7 # O = y x x y = O # 0 L 2.l.e.=.O.o.O.=.:.,.2.4.,.#.S 7 # O = y x x y = O # 7 S #.2.k.b.c.l.8.=.O..._ ",
",.,.,.,.,.,.2.2.4.,.#.S 6 + . = y x x y = O # 0 L 2.l.e.6.O.O.*.-.,.4.g.g.2.&.F 7 # O = y x x y = O + 6 S #.2.k.b.b.l.8.=.O..._ ",
",.,.,.,.,.,.2.2.3.,.#.S 6 + . = y x x y = O # 0 L 2.l.e.6.O.O.*.=.,.3.w.w.2.$.F 7 # O - u x x y = . + 6 A #.2.k.b.b.l.8.=.O..._ ",
",.,.,.,.,.,.2.2.3.,.#.S 7 # O = y x x y = O # 0 L 2.l.e.=.O.o.O.=.:.2.4.4.,.#.S 7 # O = y x x y = O # 7 S #.2.k.b.b.l.8.=.O..._ ",
",.,.,.,.,.,.2.2.3.,.$.J z : = > y p p r = . # 0 L 2.l.e.=.O.o.O.=.:.2.4.4.,.#.S 7 # . = r p p y > = : g F $.2.k.c.b.l.8.=.O..._ ",
",.,.,.,.,.,.,.2.2.,.&.I A z 7 7 i i 5 = o   # 0 L 2.l.e.=.O.o.O.=.:.2.4.4.,.#.S 8 +   O = 5 i i 7 7 z A I &.2.h.c.c.l.8.=.O..._ ",
",.,.,.,.,.,.,.2.2.,.:.$.~ J B z 7 : = o     + 0 L 2.l.e.=.O.o.O.=.:.2.4.4.,.#.S 8 +     o = : 7 z B J I #.:.2.g.c.c.l.8.=.O..._ ",
",.,.,.,.,.,.,.,.2.,.,.:.;.$.I B 7 = O       # g I 2.l.e.=.O.o.O.=.:.2.4.4.,.#.F 7 #       . = 7 B I $.:.:.,.2.g.l.c.l.8.=.O..._ ",
",.,.,.,.,.,.,.,.,.,.2.2.2.,.$.J z : # . . # 4 V ^ 4.l.e.=.O.o.O.=.:.,.3.4.,.$.J z : # . . # : z J $.,.2.2.2.4.h.c.c.l.8.=.O..._ ",
"2.2.2.,.,.,.,.,.,.,.2.2.4.2.&.I A z 7 6 7 0 V U &.g.l.e.-.O.o.O.=.:.2.2.2.,.&.I A z 7 6 4 7 g A I &.2.w.w.w.g.k.b.m.l.q.=.O..._ ",
"2.2.2.2.,.,.,.,.,.,.,.2.2.2.:.#.I F S S J U ^ &.4.c.l.q.=.O.o.O.=.:.2.2.2.,.:.#.I J F A A S F I #.:.2.w.g.k.l.b.m.m.l.q.=.O..._ ",
",.,.,.,.,.,.,.,.,.,.2.2.2.,.,.:.&.$.$.&.;.:.4.g.c.c.l.8.=.O.o.O.=.:.,.2.2.,.,.:.&.$.#.#.#.#.$.&.:.,.2.w.k.c.b.m.m.m.l.8.=.O..._ ",
":.:.:.,.2.2.2.2.2.2.2.2.2.2.2.2.2.2.4.g.k.c.m.m.b.l.w.,.*.o.o.O.=.-.:.,.2.2.2.2.2.2.2.2.2.2.2.2.2.2.4.g.l.b.m.m.b.l.w.:.=.o..._ ",
"&.&.-.:.2.4.g.g.g.g.g.g.g.g.g.g.h.k.l.b.m.A.N.m.k.4.,.=.O.o.o.X.#.&.-.:.2.4.g.h.k.k.k.l.l.k.k.h.g.g.g.k.c.m.m.c.h.4.,.=.O.o..._ ",
"#.#.&.:.2.g.l.c.c.l.l.l.l.l.l.c.c.b.m.m.A.A.m.k.4.:.&.#.X.o...o.X.#.&.:.2.g.l.c.b.b.b.b.b.b.c.c.c.c.c.b.m.m.b.k.2.:.&.#.X.o..._ ",
"~ X.#.&.2.k.c.m.b.c.c.c.c.c.c.b.c.b.b.m.m.m.l.4.:.%.X.X.o.........X.#.&.2.k.c.m.b.b.b.b.b.b.b.b.c.c.b.m.m.m.l.4.:.%.X.X.o.......",
"! ~ X.&.,.w.k.l.l.k.k.l.k.l.k.k.k.k.l.l.l.k.w.,.&.X.................X.&.,.w.k.l.l.k.k.l.k.l.k.k.k.l.k.l.l.k.w.,.&.X.............",
"' ..X.#.-.,.2.2.2.2.2.2.2.2.2.2.2.2.2.2.2.2.,.-.#.X...' ' ....' ....X.#.-.,.2.2.2.2.2.2.2.2.2.2.2.2.2.2.2.2.,.=.#.X...' ' ......",
"' ..o.O.#.&.&.&.&.&.&.&.&.&.&.&.&.&.&.&.&.&.&.#.X.....' ..............O.#.&.&.&.&.&.&.&.&.&.&.&.&.&.&.&.&.&.&.#.O.....' ' ......",
"....o.o.X.X.#.#.#.#.#.#.#.#.#.#.#.#.#.#.#.#.X.X.o.o.................o.X.X.X.#.#.#.#.#.#.#.#.#.#.#.#.#.#.#.#.X.X.o.o.............",
"..........~ ~ ~ ~ ~ ~ ~ ~ ~ ~ ~ ~ ~ ~ ~ ~ ~ ~ ............................~ ~ ~ ~ ~ ~ ~ ~ ~ ~ ~ ~ ~ ~ ~ ~ ~ ~ ..................",
"..........P P K P P ! ! ! ! P P P P ! ! ! ! ! ............................P P P P P ! ! ! ! P P P P ! ! ! ! ! .................."
};
