/* XPM */
static char *ad1q9_1nhk9[] = {
/* columns rows colors chars-per-pixel */
"64 64 44 1 ",
"  c #563F3D",
". c #55403E",
"X c #59413E",
"o c #4E3F46",
"O c #513F44",
"+ c #524046",
"@ c #5C4342",
"# c #564248",
"$ c #5B4549",
"% c #614643",
"& c #664845",
"* c #6B4B47",
"= c #624749",
"- c #664A4C",
"; c #684A4A",
": c #6C4B49",
"> c #6B4C4A",
", c #6D4C48",
"< c #6E4D4B",
"1 c #684B4D",
"2 c #6D4D4D",
"3 c #724F4B",
"4 c #744F4B",
"5 c #714F4C",
"6 c #744F4C",
"7 c #76504B",
"8 c #75504D",
"9 c #77514C",
"0 c #79524C",
"q c #7D544F",
"w c #714F50",
"e c #715050",
"r c #775251",
"t c #785352",
"y c #7D5550",
"u c #815751",
"i c #835852",
"p c #875A53",
"a c #835854",
"s c #865A55",
"d c #8A5B55",
"f c #8B5C56",
"g c #8D5D57",
"h c #8E5E57",
/* pixels */
"oo#$;390099999999990093;$+ooo++ooo#$;390099999999990093;$+ooo+++",
"o+#$;390099999999990093;$#++++++O+#$;390099999999990093;$#++++++",
"##$=;390099999999990095<;$$#+++++#$=>590099999999990095<;$$#++++",
"$$=;<990099999999999099521-$$#+#$$=;<990099999999999999521-$$#+O",
";;;<39999999999999999990trw1$##$$;;<39999999999999999990trw1$#+o",
"33369999999999999999990yuaye-$#$;<399999999999999999990yuaye-$+o",
"99999999999999999999990usdsr-$#$;3900999999999999999990usdsr-$+o",
"00009999999999999999990udfst-$#$;3000999999999999999990udfst-$+o",
"00009999999999999999990udfst-$#$;3000999999999999999990udfst-$+o",
"99999999999999999999990usdsr-$#$;3900999999999999999990usdsr-$+o",
"99999999999999999999990usdsr-$#$;3900999999999999999990updsr-$+o",
"99999999999999999999990usdsr-$#$;3900999999999999999990updsr-$+o",
"99999999999999999999790usdsr-$#$;3900999999999999999990updsr-$+o",
"99999999999999999999790usdsr-$#$;3900999999999999999990updsr-$+o",
"99999999999999999999790usdsr-$#$;3900999999999999999990updsr-$+o",
"99999999999999999999790updsr-$#$;3900999999999999999790updsr-$+o",
"99999999999999999997790updsr-$#$;3900999999999999999790usdsr-$+o",
"99999999999999999999990usdsr-$#$;3900999999999999999990usdsr-$+o",
"9999999999999999999900qudfsr-$#$;390099999999999999000quddsr-$+o",
"000999999999999999900qupfgsr-$#$;59009999999999999000qupfgsr-$+o",
"00099999999999777900yisfggst-$#$;5000997999999977900yupdggsr-$+o",
"9999999999999999990qidfgggsr-$#$;390099999999999990yisfgggsr-$+o",
"334700000000000000qusfggfsy9-$#$;<4900000000000000qusfggfsy5-$+o",
"**<30quuuuuuuuuuuuusfggdpq9;$##$%*<70quuuuuuuuuuuuusfggdpq9;$#+o",
"%&*30upddsssssssssdfggfp03*%$#+#@%*30usddsssssppssdfggfp03*%$++o",
"X@%<0pdffdddddddddfgggsq3&@@#+++@@%<0idffdddddddddfgggsq3&@@#+++",
".X@*9ypsspppspppsspsspu9*@@@++OO+@@*7ypsssppppppssssspu9*@@@++++",
"O@@%:900000000000000009:%@@OO++OO@@%<900000000000000009:%@@OO+++",
"O@@@%******************%@#+OO+++++#@%*****************&%@#+O++++",
"++##@@%%%%%%%%%%%%%%%%@@#+++++++++##@@%%%%%%%%%%%%%%%%@@#+++++++",
"+++#@@@@X@@@@@@@@@@@X@@@#++++++++++#@@@@@@@@@@@@@@@@@@@@#+++++++",
"oo+#$@%%%%%%%%%%%%%%%%@$#+ooo++++++#@%%%%%%%%%%%%%%%%%@$#+ooo+++",
"oo+$%&****************&%$+ooO++ooo+$%&****************&%$+ooo+++",
"o+#$;<3433333333333343<;$#+++++O++#$;<3433333333333343<;$#++++++",
"##$=;390099999999990093<;$$#+++++#$=>390099999999990093<;$$#++++",
"$$=;<900000000000000009521-$$#+#$$=;<900000000000000009521-$$#+O",
";;><59000000000000000000tre1$##$$;><59000000000000000000tre1$#+o",
"33399999999999999999990yuaye-$#$;<399999999999999999990yuaye-$+o",
"99999999999999999999990usdsr-$#$;3900999999999999999990usdsr-$+o",
"00009999999999999999990udfst-$#$;3000999999999999999990udfst-$+o",
"00009999999999999999990udfst-$#$;3000999999999999999990udfst-$+o",
"99999999999999999999990usdsr-$#$;3900999999999999999990usdsr-$+o",
"99999999999999999999990usdsr-$#$;3900999999999999999990usdsr-$+o",
"99999999999999999999990usdsr-$#$;3900999999999999999990usdsr-$+o",
"99999999999999999999990updsr-$#$;3900999999999999999990usdsr-$+o",
"99999999999999999999990updsr-$#$;3900999999999999999990updsr-$+o",
"99999999999999999999990updsr-$#$;3900999999999999999990updsr-$+o",
"99999999999999999999790updsr-$#$;3900999999999999999790updsr-$+o",
"99999999999999999999790updsr-$#$;3900999999999999999790updsr-$+o",
"99999999999999999999990usdsr-$#$;3900999999999999999990usdsr-$+o",
"9999999999999999999900qudfsr-$#$;390099999999999999900qudfsr-$+o",
"000999999999999979900qupfgsr-$#$;59009999999999979900qupfgsr-$+o",
"00099999999977777900yisfggst-$#$;5000999999977777900yisfggst-$+o",
"9999999999999999990qidfgggsr-$#$;390099999999999990qidfgggsr-$+o",
"334790000000000000qusfggfsy5=$#$;<4700000000000000qusfggfsy5-$+o",
"**<30quuuuuuuuuuuuusfggdpq9;$##$%*<70quuuuuuuuuuuuusfggdiq9;$#+o",
"%&*30usddsssssssssdfggfp03*%$#+#$%*30usddsssssssssdfggfp03*%$#+o",
"X@%<0pdffdddddddddfgggsq3&@@#+++@@%<0pdffdddddddddfgggsq3&@@#+++",
".X@*9ypsspppppppppssspy9*@@@++++O@@*9ypsspppppppppssspy9*@@@++++",
"O@@%<900000000000000009:%@@OO++OO@@%<900000000000000009:%@@OO+++",
"O+#@%**<***************%@#+OO+++O+#@%**<***************%@#+OO+++",
"++##@@%%%%%%%%%%%%%%%%@@#+++++++++##@@%%%%%%%%%%%%%%%%@@#+++++++",
"++++@XXXXXXXXXXXXXXXXXX@++O+++++++++@XXXXXXXXXXXXXXXXXX@++O+++++",
"++++O     ..      ..  .@OOO+++++++++O     ..      ..  .@OOO+++++"
};
