/* XPM */
static char *aek05_ab1nm[] = {
/* columns rows colors chars-per-pixel */
"64 64 227 2 ",
"   c #020305",
".  c #0A0708",
"X  c #0B0A0C",
"o  c #070608",
"O  c #130C0D",
"+  c #1C0C0E",
"@  c #130507",
"#  c #0E0F11",
"$  c #130F10",
"%  c #1B0E10",
"&  c #151113",
"*  c #1A1213",
"=  c #191619",
"-  c #1A1B1E",
";  c #15171B",
":  c #0F1114",
">  c #231516",
",  c #241A1B",
"<  c #2A1C1C",
"1  c #271616",
"2  c #3D1213",
"3  c #371A1B",
"4  c #2B0B0D",
"5  c #2C201F",
"6  c #1B1D20",
"7  c #271E21",
"8  c #391D20",
"9  c #1F2125",
"0  c #242326",
"q  c #2C2122",
"w  c #2A292C",
"e  c #272529",
"r  c #342423",
"t  c #3A2624",
"y  c #392927",
"u  c #342629",
"i  c #35292D",
"p  c #3C2B2A",
"a  c #372826",
"s  c #2C2C31",
"d  c #332D31",
"f  c #3C2E31",
"g  c #2E3135",
"h  c #323135",
"j  c #34353A",
"k  c #3B3A3E",
"l  c #383539",
"z  c #441718",
"x  c #591C1D",
"c  c #6D1E1F",
"v  c #631D1E",
"b  c #491E21",
"n  c #661F20",
"m  c #422E2C",
"M  c #492828",
"N  c #5B2728",
"B  c #46302E",
"V  c #49312F",
"C  c #443232",
"Z  c #4D3432",
"A  c #4B393D",
"S  c #47383A",
"D  c #513633",
"F  c #553936",
"G  c #593B37",
"H  c #543C3A",
"J  c #5B3D3A",
"K  c #5B3432",
"L  c #672526",
"P  c #782828",
"I  c #663535",
"U  c #753736",
"Y  c #663030",
"T  c #5C413E",
"R  c #56403E",
"E  c #62413D",
"W  c #6D433F",
"Q  c #6D4129",
"!  c #3D3D42",
"~  c #373D42",
"^  c #4E3E46",
"/  c #413E44",
"(  c #513F44",
")  c #5C3D41",
"_  c #394146",
"`  c #3A4248",
"'  c #4C494E",
"]  c #48454A",
"[  c #524046",
"{  c #5C4443",
"}  c #544148",
"|  c #5B4549",
" . c #56494E",
".. c #4D4C51",
"X. c #454C51",
"o. c #564C52",
"O. c #4E5153",
"+. c #54545A",
"@. c #5C5B5D",
"#. c #555557",
"$. c #644643",
"%. c #694742",
"&. c #664845",
"*. c #6B4945",
"=. c #664A4C",
"-. c #6B4C4B",
";. c #61474A",
":. c #724B47",
">. c #734E4A",
",. c #7D4D49",
"<. c #77514C",
"1. c #79524D",
"2. c #765251",
"3. c #7C5451",
"4. c #6E5655",
"5. c #5B5B62",
"6. c #555B61",
"7. c #625E66",
"8. c #5C636A",
"9. c #5F6A71",
"0. c #636165",
"q. c #65636A",
"w. c #616E75",
"e. c #6C6D74",
"r. c #726E76",
"t. c #657179",
"y. c #75727B",
"u. c #78767B",
"i. c #78656C",
"p. c #852929",
"a. c #972C2C",
"s. c #8A3534",
"d. c #993938",
"f. c #8F302F",
"g. c #AB3333",
"h. c #A63B3C",
"j. c #A73737",
"k. c #B43232",
"l. c #96413F",
"z. c #9C5127",
"x. c #BC5639",
"c. c #AB513C",
"v. c #C66432",
"b. c #C35E33",
"n. c #863D40",
"m. c #8A4543",
"M. c #854A47",
"N. c #9A4749",
"B. c #815651",
"V. c #855954",
"C. c #8A5C56",
"Z. c #88595A",
"A. c #965759",
"S. c #8E524E",
"D. c #A2484A",
"F. c #B6534E",
"G. c #906055",
"H. c #BB6C4C",
"J. c #925E62",
"K. c #8E5B61",
"L. c #976467",
"P. c #8A747C",
"I. c #8F7A7B",
"U. c #937C7D",
"Y. c #8F6C72",
"T. c #A87269",
"R. c #C56F60",
"E. c #B5867B",
"W. c #7A7A83",
"Q. c #6E7880",
"!. c #857C85",
"~. c #957A81",
"^. c #7B828A",
"/. c #7F8A93",
"(. c #84838C",
"). c #89858D",
"_. c #8A8C8D",
"`. c #8B8992",
"'. c #868992",
"]. c #928D93",
"[. c #86959E",
"{. c #8C939D",
"}. c #8F9497",
"|. c #96979C",
" X c #99868D",
".X c #A49694",
"XX c #8797A0",
"oX c #8E95A0",
"OX c #8B99A2",
"+X c #929BA5",
"@X c #95A2AC",
"#X c #9BA3AA",
"$X c #97A6B0",
"%X c #98A6B1",
"&X c #9AABB5",
"*X c #9CAEB9",
"=X c #97A8B2",
"-X c #9EB1BC",
";X c #A3A3A4",
":X c #A9AAAA",
">X c #A2B4BD",
",X c #ACB4B9",
"<X c #BBBABB",
"1X c #B0A8AD",
"2X c #D48181",
"3X c #CA8D8E",
"4X c #D2A5A2",
"5X c #EBBCBC",
"6X c #AAB9C2",
"7X c #A7B9C2",
"8X c #F0BFC0",
"9X c #B7C3CA",
"0X c #BCC9D0",
"qX c #C2CED4",
"wX c #C5D1D7",
"eX c #C6D2D8",
"rX c #CDD7DD",
"tX c #DADBDC",
"yX c #CEC8C9",
"uX c #DCE3E6",
"iX c #E3E9ED",
"pX c #E5E5E6",
"aX c #F5E6E6",
"sX c #F2F4F5",
"dX c #F8F9FA",
"fX c #ECF1F4",
"gX c #DBD0D3",
/* pixels */
"^ ^ } | =.>.<.1.1.<.<.<.<.<.1.1.1.<.%.Z q & o               X - d ^ | =.-.>.<.1.1.<.<.<.<.<.<.<.<.<.<.1.1.<.>.=.| [ ^ ^ ^ [ [ [ ",
"^ [ } | =.>.<.1.1.<.<.<.<.<.1.1.1.<.%.Z q & o     o o     o $ , d S } ;.-.>.<.1.1.<.<.<.<.<.<.<.<.<.<.1.1.<.>.=.| } [ [ [ [ [ [ ",
"} } | ;.=.>.<.1.1.<.<.<.<.<.<.1.1.<.%.Z q & . . @ + + + + + > < i C ^ | =.>.<.1.1.1.1.1.1.<.<.<.<.<.<.1.1.<.>.-.=.| | } } [ [ [ ",
"| | ;.=.-.<.1.1.1.<.<.<.<.<.<.1.1.<.%.Z < $ . O 4 2 z z z z z 3 t p C A $.>.1.1.1.1.1.1.1.1.1.1.1.<.<.<.<.<.<.>.-.=.=.| | } [ [ ",
"=.=.=.-.>.<.<.<.<.<.<.<.<.<.1.1.1.<.%.Z < O @ 4 z v P P P n v x 3 7 r C J -.1.3.1.1.1.1.1.1.1.1.1.<.<.<.<.<.<.1.2.2.>.=.| } [ ^ ",
">.>.>.>.<.<.<.<.<.<.<.<.<.<.1.1.1.<.%.Z q & + 2 x p.a.a.a.a.p.n 3 > = r Z %.<.1.1.<.<.<.<.<.<.<.<.<.<.<.<.<.1.3.B.V.3.2.=.| [ ^ ",
"<.<.<.<.<.<.<.<.<.<.<.<.<.<.1.1.1.<.*.D a , 1 z n p.a.j.j.h.s.L 3 + $ , p J %.*.*.%.%.%.%.%.%.*.>.<.<.<.<.<.1.B.V.C.V.2.=.| [ ^ ",
"1.1.1.1.1.<.<.<.<.<.<.<.<.<.<.1.1.<.*.T Z p t b x L P s.N.N.m.I 3 O . O < p V Z Z V V V V V D J %.>.1.1.1.1.1.B.C.C.V.2.=.| [ ^ ",
"1.1.1.1.1.<.<.<.<.<.<.<.<.<.<.1.1.<.>.*.E H Z M z z b I ,.Z.Z.$.u O   . O 1 < < < < < < , < r B J :.1.1.1.1.1.B.C.C.V.2.=.| [ ^ ",
"<.<.<.<.<.<.<.<.<.<.<.<.<.<.<.<.<.<.<.>.>.%.J V 3 1 < S 4.i.i.o.l = X . X $ & & & & & $ $ & , y D *.<.1.1.<.1.B.V.C.V.2.=.| [ ^ ",
"<.<.<.<.<.<.<.<.<.<.<.<.<.<.<.1.1.<.<.>.:.%.J C r , e ! 5.r.r.7.] w 6 ; - - 6 6 6 6 6 - - 6 0 i S T *.-.>.<.1.B.V.C.V.2.=.| [ ^ ",
"<.<.<.<.<.<.<.<.<.<.<.<.<.<.<.1.1.1.>.*.E F Z f i h k ..q.y.W.e.5.X.` _ _ _ _ _ _ _ _ _ _ _ ! k S S D J %.>.1.B.C.C.V.2.=.| [ ^ ",
"<.<.<.<.<.<.<.<.<.<.<.<.<.<.1.1.1.1.:.J V t r d S ' +.q.r.W.W.W.y.t.t.w.w.w.w.w.w.w.w.w.t.w.8.O.k i y B J *.1.V.C.C.V.2.=.| [ ^ ",
"<.<.<.<.<.<.<.<.<.<.<.<.<.<.<.1.1.<.%.D a , 7 h ' q.r.u.W.!.(.'.'.[.XXXXXX[.[.[.[.[.XXXXOX[.^.8.! 0 , r Z %.1.V.C.C.V.2.=.| [ ^ ",
"<.<.<.<.<.<.<.<.<.<.<.1.1.<.<.>.>.*.T C r 7 e ! 5.u.(.).).).`.{.+X$X&X&X&X&X&X&X&X&X&X-X-X&X[.w._ 6 & < V %.1.V.C.C.V.2.=.| [ ^ ",
"<.<.<.<.<.<.<.<.<.<.<.1.1.<.>.%.T D Z p i d ! +.e.(.{.{.{.{.{.+X@X&X-X-X-X-X-X-X-X-X-X7X7X-XXXw._ - $ , m %.1.V.C.C.V.2.=.| [ ^ ",
"<.<.<.<.<.<.<.<.<.<.<.1.1.<.*.J V y u f S ' 5.e.^.{.+X+X+X+X+X@X$X&X*X*X*X*X*X*X*X*X*X-X>X&XXXw.~ - $ , V %.1.V.C.C.V.2.=.| [ ^ ",
"<.<.<.<.<.<.<.<.<.<.<.1.1.<.*.D r , , d ' q.y.(.{.@X%X=X=X%X=X&X&X*X*X*X*X*X*X*X*X*X*X>X>X*X{.w._ 6 & < V %.1.V.C.C.V.2.=.| [ ^ ",
"<.<.<.<.<.<.<.<.<.<.<.1.1.<.%.Z < & = h +.y.`.oX@X=X*X>X>X7X6X6X6X6X6X6X6X6X6X6X6X6X6X6X9X6X@Xt.` 6 & < V *.1.V.C.C.V.2.=.| [ ^ ",
"1.1.1.<.<.<.<.<.<.<.<.1.1.<.%.V < $ ; j 5.^.oX#X%X&X>X6X9X0XqXwXwXwXwXeXeXeXeXeXeXeXeXrXrXwX,X^.X.0 * < Z *.B.C.C.C.V.2.=.| [ ^ ",
"1.1.1.<.<.<.<.<.<.<.<.1.1.<.%.V < $ ; k 8.'.@X=X&X*X>X9XwXrXuXiXiXiXiXiXiXiXiXiXiXiXiXfXfXiXqX}.+.0 * < D >.V.C.C.C.V.2.=.| [ ^ ",
"<.<.<.<.<.<.<.<.<.<.1.1.1.<.%.V < & - ~ w.[.$X*X&X*X>X0XrXiXsXsXsXsXsXsXsXsXsXsXsXsXsXdXdXfXrX|.@.e * < D >.C.G.G.C.V.2.=.| [ ^ ",
">.>.>.<.1.1.1.1.1.1.1.1.3.1.%.V < & 6 _ w.[.&X-X*X*X6XqXuXsXdXsXiXpXtXtXtXtXtXtXtXtXtXpXpXtX6X_.O.0 * < F 1.C.G.C.C.3.<.;.| [ ^ ",
"*.*.-.>.1.1.B.B.B.B.B.V.V.B.:.D < & 6 _ w.XX*X-X*X*X6XwXiXsXsXpXyX1X;X|.|.;X;X;X;X;X;X:X:X;X_.0.k - * r G 1.C.C.C.3.<.=.| } [ ^ ",
"$.%.*.>.1.B.V.C.C.V.V.C.C.V.>.D < * 6 _ w.XX*X-X*X*X6XwXiXsXiXyX|.r.@.#.#.@.@.@.0.0.0.0.0.@...k 0 & * r J 1.C.C.1.>.*.$.{ } [ ^ ",
"T { $.-.1.V.C.C.C.C.C.C.C.C.>.F < * 6 _ w.[.&X-X*X*X6XwXiXsXpX,Xu.] w 0 0 w w w w w w w w w 0 - # X * a J 1.V.B.<.&.{ { } [ [ [ ",
"R T { *.<.3.V.V.V.V.V.C.C.V.>.D < * - ~ w.[.%X*X&X*X6XeXiXsXpX,Xu.] w 0 0 w 0 - & X X & - 0 0 - & X * r G >.3.1.-.{ [ [ [ [ [ [ ",
"( [ { $.-.<.1.1.1.1.1.1.3.1.*.Z < & - ~ 8.'.@X=X&X*X6XeXiXsXiXyX|.r.8.@.@.@.O.l - o o 6 k O.O.! e & & < Z %.>.>.&.{ [ ( [ [ [ [ ",
"( [ [ { $.*.*.*.*.*.*.-.-.*.T m , & - j 5.^.oX@X$X&X6XwXiXdXsXpXyX,X;X;X;X#X_.8.g : : j q._._.e.` - & , m T &.&.{ } [ [ [ [ [ [ ",
"[ [ } } { { $.$.$.$.$.$.$.$.H p , $ = h +.y.`.{.+X=X6XqXuXsXdXsXiXpXtXpXpXtX<X).' 0 0 O.].<X<X}.@.0 & > y H { { | } [ [ [ [ [ [ ",
"[ [ [ } { { { { { { { { $.T H y , $ & w ] 0.y.(.{.@X>X9XrXpXfXaXaXaXaXaXaXaXyX.X4.B B 4..XyXyX.X@.0 & * t H { { } [ [ [ [ [ [ [ ",
"^ [ [ } { { $.$.$.$.$.&.&.$.H p , O # 6 h ] 5.e.^.{.#X,X9XyXgXgX5X5X5X5X5X5X4XE.V.Q Q G.E.4X4XU. .7 & > y H { { | [ ^ ^ ^ [ [ [ ",
"^ ( [ | $.&.*.*.*.*.*.-.-.*.T m , O X # - w ! +.e.(.{.#X:X1X1X1X3X3X2X2X2X2XR.H.c.z.z.c.R.R.T.Z.Z > & , m T &.=.| [ ^ ^ ^ [ [ [ ",
"( [ } | =.-.>.>.>.>.>.<.<.>.%.Z q & X o X & e / 5.u.).`.}.]. XU.T.F.F.F.F.F.F.x.x.b.v.b.x.F.D.U b * & < Z $.-.-.;.} [ [ [ [ [ [ ",
"} } | ;.=.>.<.1.1.<.<.1.1.<.*.D y , $ X   X = d o.i.P.~.~.P.Y.L.A.D.h.h.h.h.c.x.b.v.v.v.x.c.s.L 3 % & 5 Z %.>.>.=.| | } [ [ [ [ ",
"| | ;.=.-.<.1.1.1.1.1.1.1.1.-.T Z y < * X . $ r ) 3.J.L.L.J.A.A.N.N.N.N.N.N.D.F.H.H.H.H.F.N.n.N 3 % & 5 Z %.<.<.<.-.=.| | } [ [ ",
"=.=.-.-.>.<.1.1.1.1.1.1.1.<.>.*.T D B q & X + 3 Y m.N.D.D.N.N.A.A.A.J.K.K.J.J.L.T.T.T.T.L.J.3.J r * & < Z %.<.3.3.2.2.=.| } [ ^ ",
">.>.>.<.<.<.<.<.<.<.<.<.1.<.<.>.>.*.J p , O + 3 L s.h.h.h.h.D.A.J.Y.P.P.P.P.P.P.I.U.U.U.~.P.i. .d = & < Z %.1.B.V.V.3.2.=.| [ ^ ",
"<.<.<.1.<.<.<.<.<.<.<.<.<.<.1.1.1.,.W V < & + 3 L s.h.h.h.h.D.A.Y.!.).'.).).).).).).).`.`.(.y.+.h = & < V %.1.V.C.C.V.2.=.| [ ^ ",
"1.1.1.1.<.<.<.<.<.<.<.<.<.<.1.M.S.m.U K 3 % * 3 Y m.N.D.D.D.A.L.~.].oXoXoXoXoXoXoXoXoX+X+X{.^.5.j - & < V %.1.V.C.C.V.2.=.| [ ^ ",
"1.1.1.1.<.<.<.<.<.<.<.<.<.<.<.M.N.l.s.L 3 + * u ) B.J.L.L.L.Y.~.].+X@X$X$X@X@X@X@X@X@X%X%X@X/.8.~ - & < V %.1.V.C.C.V.2.=.| [ ^ ",
"<.<.<.<.<.<.<.<.<.<.<.<.<.<.,.m.N.d.f.L 2 + = d  .i.P.P.P.P.!.).{.+X$X=X=X$X$X$X@X@X$X&X*X$X[.9.~ - & < V %.1.V.C.C.V.2.=.| [ ^ ",
"<.<.<.<.<.<.<.<.<.<.1.<.<.,.M.m.h.j.a.c 2 + = g +.r.!.(.(.!.(.'.'.[.[.XXXXXX[.[.[.[.XX@X$X@X[.w.~ - & < V %.1.V.C.C.V.2.=.| [ ^ ",
"<.<.<.<.<.<.<.<.<.<.<.,.M.m.m.d.j.g.a.c z + ; g +.y.(.).).(.(.W.Q.t.t.w.t.t.t.w.w.w.t.^.{.oX'.8.~ - & < V %.1.V.C.C.V.2.=.| [ ^ ",
"<.<.<.<.<.<.<.<.<.<.,.M.m.l.d.j.g.g.a.c z + = g +.r.(.).`.(.W.e.6.X.` _ _ ` ` _ ~ _ X.8.W.'.^.8.k - & < V %.1.V.C.C.V.2.=.| [ ^ ",
"<.<.<.<.<.<.<.<.<.<.,.m.l.d.j.g.k.g.a.c 2 + = g +.r.!.).).!.y.5.] w 6 - - - - ; ; 6 s ] q.y.y.+.l = & < V %.1.V.C.C.V.2.=.| [ ^ ",
"<.<.<.<.<.<.<.<.<.<.,.m.d.j.g.k.k.g.a.c 2 + = g +.r.!.!.!.y.q. .f < + @ . . X X # ; e ! +.q.0...h - * 5 V %.>.B.C.C.V.2.=.| [ ^ ",
"<.<.<.<.<.<.<.<.<.1.M.m.d.j.k.k.k.g.a.c 2 + = h +.y.W.u.e.@. .A M z 2 4 @ . . & 6 w l / ] ..' S i 7 < a Z J *.1.V.C.V.2.=.| [ ^ ",
"<.<.<.<.<.<.<.<.<.1.M.m.d.j.k.k.k.g.a.c z + = j +.y.W.e.+.! f M N n x z 4 @ X 6 l ] ..' / l d w r r t m Z F E :.B.C.V.2.=.| [ ^ ",
"<.<.<.<.<.<.<.<.<.<.,.m.d.j.g.k.k.g.a.c 2 + = h +.r.r.5.! e < z L p.p.v 2 + & s ' 7.0.#.k 0 - , r p m V Z D J %.<.V.V.2.=.| [ ^ ",
"<.<.<.<.<.<.<.<.>.>.:.m.s.d.d.g.g.d.p.v 2 + ; s ..7.0...h - > z L p.p.L 2 + & s ..7.7...h - * > r m Z Z Z Z F E :.1.3.2.=.| [ ^ ",
"1.1.1.1.<.<.>.>.*.%.%.U U s.s.s.s.s.P x 1 O $ 9 j ] ' ! w - 1 z L P P N 2 + $ 0 k ..../ i , > < t V Z D D D F E *.>.>.-.;.} [ ^ ",
"1.1.1.1.1.<.>.*.%.E J I I I U U U Y Y M 1 O X & 9 w s w 0 7 7 M N Y Y M 1 O X : 9 s h d u r r t m V Z D D F G J E %.*.&.| } [ ^ ",
"<.<.<.1.1.<.>.*.E G F D D K K K K K V t 1 O X X # & = - 7 q u m Z D V t 1 O X X # & - 7 r p m V V Z Z D F G J J I E E { [ [ [ [ ",
">.>.>.<.1.1.>.%.T F Z Z Z Z D D D Z B t < * O X X X $ = 7 u i f C V m a , * O X X O * < t B Z D D D D F F G J G G G H H ( ( [ [ ",
"*.*.-.<.1.1.1.:.E F D Z Z Z D D D Z Z m a < , * * & * , q u i f m m p y r < , > > > < r m Z F F F F F F G J G F D Z Z A A ( [ [ ",
"$.%.*.>.1.B.B.>.%.J F D D F F F F F D Z B m t r < < , 7 q i i i p p p p p p y t t t y m Z F G G G G G G J J G F Z V C S A ^ [ [ ",
"T { $.-.1.B.B.<.%.I G F F G G G G G G F F D Z m p a r r u i i i y p p m V Z Z Z Z Z D D F G G G G G G J J J F D V m m C S ^ [ [ ",
"R T { *.<.3.B.<.*.E J G F F F F F F F G F F D Z m p y u i i i i u y p B Z D F F F F F F F F F F F F F F F F D Z B m C C S ^ [ [ ",
"( [ { $.-.<.<.:.%.T J F D D Z Z Z Z D D D D Z Z m p p i i i i i i u y m Z Z D D D D D D D D Z Z Z Z Z Z Z Z Z Z C C C S ^ ^ [ [ ",
"( [ } { $.*.*.&.$.T H D Z Z B B B B B B V V B m p p i i i i i i i i p p m B V Z V V V B B B B B B B B B B B C C C S S ^ ^ ( [ [ ",
"[ [ } } { { { { T T H D Z B p p p p p p p p p p p i i i i i i i i i i p p p p p m m p p p p p p p p p p p p m C S A ^ ( ( [ [ [ ",
"[ [ [ [ [ T T T T T H D C p y y y y y y y y y y i i i i i i i i i i i i y y y y y y y y y y y y y y y y y y p C S ^ [ [ [ [ [ [ ",
"[ [ [ [ [ R R T T T H D C p y a a y y y y y y u i i i i i i i i i i i i u u y y y y y y y y y y y y y y a y p C S ^ [ [ [ [ [ [ "
};
