/* XPM */
static char *ahn5w_lm2eh[] = {
/* columns rows colors chars-per-pixel */
"64 64 226 2 ",
"   c #030203",
".  c #0B0405",
"X  c #0D0B0B",
"o  c #070708",
"O  c #130C0D",
"+  c #19090A",
"@  c #160607",
"#  c #0C0F11",
"$  c #180F11",
"%  c #131315",
"&  c #1D1414",
"*  c #141719",
"=  c #1A1718",
"-  c #16191B",
";  c #1B1A1C",
":  c #141010",
">  c #260809",
",  c #3A0D0D",
"<  c #231515",
"1  c #261817",
"2  c #251B1A",
"3  c #2B1C1B",
"4  c #281717",
"5  c #371617",
"6  c #2F0F10",
"7  c #32211F",
"8  c #39201F",
"9  c #1D1E20",
"0  c #221F21",
"q  c #331E22",
"w  c #1F2122",
"e  c #232224",
"r  c #2D2222",
"t  c #2D292C",
"y  c #29272A",
"u  c #342423",
"i  c #392623",
"p  c #392927",
"a  c #34292D",
"s  c #3C2B2A",
"d  c #372728",
"f  c #2C2E32",
"g  c #312E31",
"h  c #3C2E31",
"j  c #2F3135",
"k  c #333539",
"l  c #3C3A3D",
"z  c #33363A",
"x  c #421212",
"c  c #451A1B",
"v  c #561717",
"b  c #6B1B1B",
"n  c #631A1B",
"m  c #741D1D",
"M  c #442E2B",
"N  c #492F2C",
"B  c #462425",
"V  c #46312E",
"C  c #49312E",
"Z  c #443232",
"A  c #4D3431",
"S  c #4B3839",
"D  c #523633",
"F  c #553936",
"G  c #593B37",
"H  c #553D3A",
"J  c #5B3E3A",
"K  c #5B3533",
"L  c #542A2C",
"P  c #642527",
"I  c #773735",
"U  c #6F312D",
"Y  c #591F21",
"T  c #5A413E",
"R  c #56403F",
"E  c #62423E",
"W  c #6C423E",
"Q  c #353E42",
"!  c #3D3C41",
"~  c #4E3F46",
"^  c #413D41",
"/  c #523F44",
"(  c #603E42",
")  c #384145",
"_  c #4A464B",
"`  c #4B4B4E",
"'  c #43464A",
"]  c #524046",
"[  c #5C4342",
"{  c #544249",
"}  c #5B4549",
"|  c #55494E",
" . c #4D4C51",
".. c #525256",
"X. c #54555A",
"o. c #5B5B5C",
"O. c #59585A",
"+. c #535056",
"@. c #644642",
"#. c #694743",
"$. c #664845",
"%. c #6B4A46",
"&. c #664A4C",
"*. c #6B4C4B",
"=. c #61474A",
"-. c #704C47",
";. c #734E4A",
":. c #7D4D49",
">. c #784746",
",. c #77514C",
"<. c #79524D",
"1. c #765251",
"2. c #7D5551",
"3. c #7F5852",
"4. c #6D5353",
"5. c #5B5B61",
"6. c #555B61",
"7. c #625F64",
"8. c #5C656B",
"9. c #5F6C72",
"0. c #656369",
"q. c #606E74",
"w. c #6B6C74",
"e. c #736E76",
"r. c #667278",
"t. c #75727A",
"y. c #78767C",
"u. c #78646B",
"i. c #842425",
"p. c #972828",
"a. c #8C302F",
"s. c #893635",
"d. c #973837",
"f. c #AA2E2E",
"g. c #B52E2E",
"h. c #A43433",
"j. c #AB393A",
"k. c #A93536",
"l. c #AD3030",
"z. c #944733",
"x. c #B55237",
"c. c #C45A35",
"v. c #CA6632",
"b. c #C16024",
"n. c #8F3E41",
"m. c #884744",
"M. c #9B4547",
"N. c #865649",
"B. c #9B4E51",
"V. c #815651",
"C. c #855954",
"Z. c #8A5C56",
"A. c #8C5A59",
"S. c #955759",
"D. c #A34748",
"F. c #BA4C49",
"G. c #B1584C",
"H. c #916059",
"J. c #BA694B",
"K. c #935D62",
"L. c #995F65",
"P. c #996467",
"I. c #8B757C",
"U. c #937C7C",
"Y. c #916B72",
"T. c #A87167",
"R. c #C1714C",
"E. c #D07B78",
"W. c #B58478",
"Q. c #7B7A83",
"!. c #867C85",
"~. c #967A81",
"^. c #D77F80",
"/. c #7B828A",
"(. c #7F8B93",
"). c #84838C",
"_. c #89858E",
"`. c #888A8A",
"'. c #8B8992",
"]. c #868A92",
"[. c #948E96",
"{. c #86969E",
"}. c #8D949D",
"|. c #8E9396",
" X c #98989B",
".X c #95878E",
"XX c #A39794",
"oX c #8798A0",
"OX c #8B99A2",
"+X c #919AA3",
"@X c #949CA5",
"#X c #95A2AB",
"$X c #9BA4AB",
"%X c #9AAAB4",
"&X c #9CAFB8",
"*X c #98A6B0",
"=X c #9DB1BA",
"-X c #A5A5A5",
";X c #A1B5BE",
":X c #ACB4B8",
">X c #B9B9B9",
",X c #ACABB1",
"<X c #BF9FA3",
"1X c #CB9293",
"2X c #D6A5A0",
"3X c #EDBBBC",
"4X c #AABBC2",
"5X c #A3B8C1",
"6X c #B7C4CB",
"7X c #B6C5CC",
"8X c #D6C5C5",
"9X c #C3CDD3",
"0X c #C7D3D8",
"qX c #C6D3D8",
"wX c #D9DADB",
"eX c #C9C9CA",
"rX c #E2D1D2",
"tX c #D0DBE0",
"yX c #DCE3E7",
"uX c #E2E2E2",
"iX c #E3EAED",
"pX c #EAEAEB",
"aX c #F5E6E6",
"sX c #F2F4F5",
"dX c #F8F9FA",
"fX c #ECF2F4",
/* pixels */
"~ ~ { } &.;.,.<.<.,.,.,.,.,.,.,.,.,.,.<.<.,.;.&.} ] ] { { { ^ g - o                 O 3 A @.,.<.<.<.,.<.<.,.;.&.} ] ~ ~ ~ ] ] ] ",
"~ ] { } &.;.,.<.<.,.,.,.,.,.,.,.,.,.,.<.<.,.;.&.} { ] { { / S a 2 X                 O 3 A @.,.<.<.<.,.<.<.,.;.&.} { ] ] ] ] ] ] ",
"{ { } =.&.;.,.<.<.,.,.,.,.,.,.,.,.<.<.<.<.<.,.*.&.} { ] ~ S Z d 4 > + @ @ + @ .     O 3 A @.,.<.<.<.,.<.<.,.;.*.&.} { { { ] ] ] ",
"} } =.&.*.,.,.<.<.,.,.,.,.,.,.<.<.<.<.<.<.<.<.,.,.*.=.{ S h d q 5 5 x x x x , > @   X 3 A @.,.<.<.<.,.<.,.,.,.;.*.&.&.} } { ] / ",
"&.&.&.*.;.,.,.<.,.,.,.,.,.,.<.<.<.<.<.<.<.<.2.2.3.2.*./ h r 3 5 c n b m m m n x > . X 2 V @.,.<.<.<.,.,.,.,.,.<.1.1.1.&.} { ] ~ ",
";.;.;.;.,.,.,.,.,.,.,.,.,.,.,.,.,.,.,.,.,.,.<.2.C.V.;.H u & & 5 n i.p.p.p.p.i.v 6 + O 3 A @.,.<.<.<.,.,.,.,.<.2.V.C.2.1.&.{ ] ~ ",
",.,.,.,.,.,.,.,.,.,.,.,.<.,.,.;.%.#.@.@.@.@.#.-.;.;.#.C 2 O + 5 P a.k.k.h.p.i.n 5 < < u A #.,.<.<.,.,.,.,.,.<.V.C.Z.C.1.&.} ] ~ ",
"<.<.<.<.,.,.,.,.,.,.<.<.<.<.;.@.J A N M M N C D D D N 3 O . @ 5 U m.M.n.a.m b v c 8 i V J %.,.<.<.,.,.,.,.,.<.V.Z.Z.C.1.&.} ] ~ ",
"<.<.<.<.,.,.,.,.,.,.<.<.2.<.%.J M 7 1 < < 1 4 3 3 3 1 + .   O u ( C.A.>.U c x c B C F T %.;.,.<.<.,.,.,.,.,.<.V.Z.Z.C.1.&.} ] ~ ",
",.,.,.,.,.,.,.,.,.,.,.<.<.,.#.D i & O X X O O O O O O .     % g +.u.u.4.Z 4 < 3 M J #.%.;.,.,.<.,.,.,.,.,.,.<.V.C.Z.C.1.&.} ] ~ ",
",.,.,.,.,.,.,.,.<.,.,.;.-.#.T A d 0 - - - - - - - - - * * - y ' 7.t.e.5.! e 2 r N J #.%.;.,.<.<.<.,.,.,.,.,.<.V.C.Z.C.1.&.} ] ~ ",
",.,.,.,.,.,.,.<.<.,.;.#.J D A Z l ! Q Q Q Q Q Q Q Q Q Q Q ) ' 6.w.Q.y.0. .z g a s A D J #.;.<.<.<.<.,.,.,.,.<.V.C.Z.C.1.&.} ] ~ ",
",.,.,.,.,.,.,.<.<.,.%.J M i d l  .8.q.q.q.q.q.q.q.q.q.q.q.q.r.t.Q.Q.Q.e.0.X._ l a u u M J -.<.2.<.<.,.,.,.,.<.V.C.Z.C.1.&.} ] ~ ",
",.,.,.,.,.,.<.<.<.,.#.A 7 < 0 ! 8./.{.OXOXoX{.oX{.{.{.oXoX{.{.].].).!.!.Q.t.0.` g 2 < u A #.,.<.<.,.,.,.,.,.<.V.C.Z.C.1.&.} ] ~ ",
",.,.,.,.,.,.<.<.<.,.@.N 1 O - Q q.{.&X;X=X&X&X&X&X&X&X&X&X&X*X@X}.'._._.'._.y.5.l e ; r V J #.-.;.,.,.,.,.,.<.V.C.Z.C.1.&.} ] ~ ",
",.,.,.,.,.,.<.<.<.,.@.M < X * Q q.OX=X5X5X=X=X=X=X=X=X;X;X=X&X*X+X}.|.}.}.}._.w...l g a s Z D J #.;.,.<.,.,.<.V.C.Z.C.1.&.} ] ~ ",
",.,.,.,.,.,.<.<.<.,.@.M < X - Q q.oX=X5X;X=X=X=X=X=X=X=X=X=X&X*X#X@X@X@X#X#X}./.w.o._ l a u i V J %.,.<.<.,.<.V.C.Z.C.1.&.} ] ~ ",
",.,.,.,.,.,.<.<.<.,.@.N 1 O - Q q.oX&X5X;X=X=X=X=X=X=X=X=X=X&X&X&X*X*X*X%X*X#X}.].y.0._ a ; & u A #.,.<.<.<.<.V.C.Z.C.1.&.} ] ~ ",
",.,.,.,.,.,.<.<.<.,.@.N 1 O ; ) r.#X4X7X6X4X4X4X4X4X4X4X4X4X4X4X4X4X4X;X;X=X*X#X+X'.t...f * O 4 C @.,.<.<.<.<.V.Z.Z.C.1.&.} ] ~ ",
"<.<.<.,.,.,.,.<.<.,.@.M < O 9 ` /.:XqXtX0X0XqXqXqXqXqXqXqXqXqXqXqX9X7X7X4X;X&X*X*X+X/.5.j % X < M @.,.2.2.2.V.C.Z.Z.C.1.&.} ] ~ ",
"<.<.<.,.,.,.,.<.<.,.@.M < O e ..|.9XiXfXfXiXiXiXiXiXiXiXiXiXiXiXiXyXtXqX7X;X&X&X%X#X].8.k * X < M @.<.V.V.C.C.Z.Z.Z.C.1.&.} ] ~ ",
",.,.,.,.,.,.<.<.<.,.@.M < O e O. XqXfXdXdXsXsXsXsXsXsXsXsXsXsXsXsXsXiXwX7X4X&X&X&X*X{.9.Q - O < N @.<.V.C.Z.Z.Z.Z.Z.C.1.&.} ] ~ ",
";.;.;.,.<.<.<.2.2.<.#.N 1 O 9 ` `.>XwXuXuXwXwXwXwXwXwXwXwXwXuXpXsXdXsXyX9X4X=X=X=X&X{.q.Q - O 1 C #.<.C.Z.Z.Z.Z.Z.C.2.,.=.{ ] ~ ",
"%.%.*.;.<.<.V.C.C.V.%.A 4 O * z 0.`. X-X-X-X-X-X-X-X X X X X,XeXuXsXsXiXqX4X=X=X;X=XOXq.Q - O 4 C %.V.Z.A.A.Z.Z.C.<.,.&.} { ] ~ ",
"@.@.%.;.<.V.C.Z.Z.C.;.D 3 O X ; k ` O.o.7.7.7.o.o.O.X.....O.w. XeXpXsXiXqX4X=X=X;X=XOXq.Q - O 3 D ;.Z.A.A.A.Z.C.<.;.%.$.} { ] ~ ",
"T [ @.%.<.C.Z.A.A.Z.;.F 7 O   X * w e e e e e e e e e 9 ; e ' y.:XuXsXiXqX4X=X=X=X&X{.q.Q - O 3 D ;.Z.H.A.Z.C.<.;.$.[ [ { ] ] ] ",
"R T [ %.,.2.C.Z.Z.C.;.F 7 O   X - w e - X o o # * e e e ; e ' y.:XuXsXiXqX4X&X&X&X*X{.9.Q - O 3 D ;.C.Z.Z.C.V.,.%.[ ] ] ] ] ] ] ",
"/ ] [ $.*.,.<.2.2.<.#.A 3 O X w l ` ` k -     * j ` O.O.X.o.w. XeXpXdXiXqX4X&X&X%X#X].8.z * O 4 C #.<.2.2.<.,.*.$.[ ] / / ] ] ] ",
"/ ] { [ $.%.%.*.;.%.T M < O - l w.`.`.0.j # # f 5.`.$X-X$X-X,XeXuXsXdXiXqX4X&X*X#X+X/.5.k * O < M T %.;.;.%.%.$.} { / / ] ] ] ] ",
"] ] { { [ [ @.@.@.[ F i & O e X.|.>X>X`.` e 9 _ `.>XwXuXuXwXuXpXsXdXsXyX9X4X*X#X+X'.t...f % X & p F @.@.@.@.[ [ { ] ] ] ] ] ] ] ",
"] ] ] { [ [ [ @.@.T D u & X e O. X8X8XXX4.p p 4.XX8XaXaXaXaXaXaXaXpXuXwX6X;X#X{.).y.7.' y % X & p D [ @.@.[ [ [ { ] ] { { ] ] ] ",
"~ / ] { } [ @.$.$.@.H p & O 2 } U.<X2XW.N.U U N.W.2X3X3X3X3X3X8X8XrXeX6X:X*X{./.w.5._ g - X o & p H @.$.$.@.[ } { ] ~ ~ ~ ] ] ] ",
"~ / ] } $.$.%.*.*.%.T s < O & C V.T.E.R.x.z.z.x.J.E.E.^.E.E.1X1X<X,X,X,X$X+X).w.X.! t * X   o < M T %.*.*.%.$.$.} ] ~ ~ ~ ] ] ] ",
"~ ] { [ &.*.;.,.<.;.@.V 2 O + c U D.F.c.c.b.b.x.x.F.F.F.F.F.G.T.U..X[.[.[._.y.5.! e % o   . O 3 C @.;.<.,.;.*.&.} { ] ] ] ] ] ] ",
"{ { } =.&.;.,.<.<.,.@.C 2 O + 5 P a.x.x.v.v.v.v.x.x.j.k.k.j.D.B.L.Y.I.!.!.I.u.| a % .     X & i D #.,.<.<.,.;.*.&.} } { { { ] ] ",
"} } =.&.*.,.<.<.<.<.@.A 2 O + 5 P s.D.G.J.R.R.J.G.D.M.M.M.M.M.B.S.S.K.L.P.K.V.J q O     O 2 i A J %.<.<.<.<.,.;.*.*.&.} } { ] ] ",
"&.&.*.*.;.,.<.<.<.,.@.C 2 O O q G 2.K.T.T.T.T.T.P.S.S.K.K.K.S.S.B.M.M.D.D.D.n.P 5 + . O 2 s D T %.;.,.<.<.<.<.<.1.1.1.*.} { ] ~ ",
";.;.;.,.,.,.<.<.<.,.@.C 2 O % t | u.I.U.U.U.U.U.I.I.I.I.I.I.Y.K.B.D.j.j.j.j.a.P 5 + O < s J #.;.;.,.,.,.,.,.<.<.V.C.2.1.&.{ ] ~ ",
",.,.,.,.,.,.,.<.<.,.@.C 4 O % f X.t._.'.'._._._._._._.'.]._.!.Y.S.D.j.j.j.j.a.P 5 + O 4 N W :.<.<.<.,.,.,.,.<.V.C.Z.C.1.&.} ] ~ ",
"<.<.<.<.,.,.,.<.<.,.@.C 4 O * k 6./.{.+X+X+X+X+X+X+X+X+X+X+X[.~.P.B.D.D.D.D.n.P 5 + + 5 L I m.m.N.<.,.,.,.,.<.V.Z.Z.C.1.&.} ] ~ ",
"<.<.<.<.,.,.<.<.<.,.@.C 1 O * z 8.(.#X*X*X*X*X*X*X*X*X*X*X*X@X[.~.Y.L.L.P.L.V.J u : + 5 P s.d.M.m.<.,.,.,.,.<.V.Z.Z.C.1.&.} ] ~ ",
",.,.,.,.,.,.<.<.<.,.@.C 1 O - z 9.{.*X&X&X*X*X*X*X*X*X*X%X*X#X}..X!.I.I.I.I.u.| t % + , b a.h.z.m.:.,.,.,.,.<.V.C.Z.C.1.&.} ] ~ ",
",.,.,.,.,.,.,.<.<.,.@.C 1 O - Q 9.{.#X*X#XOX{.{.{.oX{.oXoX{.{.].].).!.)._.!.e.+.f % + , b p.h.j.M.m.:.:.<.<.<.V.C.Z.C.1.&.} ] ~ ",
",.,.,.,.,.,.<.<.<.<.#.C 1 O * z 8.].+X{./.r.q.q.q.q.r.q.q.q.r.t.Q.)._.'.'.).t...f % + , b p.f.k.d.z.m.m.:.,.<.V.C.Z.C.1.&.} ] ~ ",
",.,.,.,.,.,.<.<.<.<.#.C 1 O * k 5./.].Q.8.' Q z Q ) ) ) Q ) ) 6.w.Q._.'.'.).e.+.f % + , b p.f.l.k.d.d.m.m.:.<.2.C.Z.C.1.&.} ] ~ ",
",.,.,.,.,.,.,.<.<.,.@.C 4 O * j O.t.y.0.' y - * * - - * * ; y ! 5.t.!._._.!.e...f % + , b p.f.g.l.l.h.d.m.:.<.2.C.Z.C.1.&.} ] ~ ",
",.,.,.,.,.,.,.<.,.;.E C 3 & = g  .7.0...l e % o     . . . + < h | 0.t.!.).!.e...f % + , b p.f.g.g.f.h.d.m.:.<.2.C.Z.C.1.&.} ] ~ ",
",.,.,.<.<.<.,.;.;.#.J C u 2 2 t l _ ` _ ! j y - X     . > , x B S | O.w.y.!.t.X.j % + , b p.g.g.g.g.l.d.m.m.<.3.C.Z.C.1.&.} ] ~ ",
",.,.,.<.<.<.;.%.#.E F A M u u r y t j ! _  ._ j ; o . > x n n Y B s l ..w.Q.t.O.j % + , b p.g.g.g.g.l.d.m.m.<.V.C.Z.C.1.&.} ] ~ ",
",.,.,.<.<.,.;.#.E G D A C N p r 2 = 0 z +.0.7._ t : @ , n m i.b c 4 e ! 5.e.e...j % + , b p.f.g.g.f.h.d.m.:.<.2.C.Z.C.1.&.} ] ~ ",
"<.,.,.,.;.;.%.@.J D A A A A M 7 < O = g  .7.7._ t % + , n i.i.b x > = f  .7.7._ t % + , n i.h.f.f.h.d.d.z.>.,.2.C.Z.C.1.&.} ] ~ ",
"<.<.,.;.%.#.E J F A A A A A V i 4 < 2 t ^ ` _ z 9 X @ 6 Y U U P c 4 2 y l _ ' k 9 X @ 6 Y U a.a.a.a.s.I I -.-.<.C.Z.C.1.&.} ] ~ ",
"<.<.;.%.@.E J F D A A A A A C M i 7 r r a g t 9 # o . < c L L L B 8 r r t t y ; #   . < c P U I I U U U J E #.;.V.Z.C.1.&.} ] ~ ",
"<.,.;.%.E G D D A A A A A A A C C M p u 2 = % X   . o $ 3 i M N N M p u 2 = % X     X < 8 N K K K K K K G J E -.<.C.C.1.&.} ] ~ ",
",.;.%.@.J F D A A A A A A A D D D A N u 2 % X . . o X % 0 y a Z Z V M u 2 O X o . X O 2 u N D D D D D D F G E %.,.V.2.1.&.{ ] ~ ",
"*.%.%.E J F D D D D D D D D F F F F A M 7 1 & $ + & % ; 0 y a h Z V M i 3 < & & & < 4 u s A D D D D D F F G J #.-.;.,.*.=.{ ] ~ ",
"$.@.@.T J F F F F F F F F G G G G G F C M i u 3 3 3 2 r r t a s s M M M p i i i i i p M A D F F F F F F G G J E @.%.%.=.} { ] ~ ",
"[ [ T T J J G G G G G G G G G G G G G F D A C M p i u u a a a a p p s N C C A A A A D D F F G G G G G G G J J J T [ [ } { ] ] ] ",
"T T T T J J J G G F F F F F F F F F F F F F D A V s p d a a a a d p s V A D F F F F F F F F F F F F F G G J J J T T ] ] ] ] ] { ",
"] ] ] R T J J F F D A A A A A A A A A D D D A A V s s a a a a a a d s M A A D D D D D D D A A A A A D D F J J J H R ] ] ] ] ] ] ",
"] ] ] ] T J J D A A V V V V V V V V V C C C V M s s a a a a a a a a s s M V A A C C C V V V V V V V A A D H T T ] ] ] ] ] ] ] ] ",
"] ] ] ] ] T H D A M s s s s s s s s s s s s s s s a a a a a a a a a a s s s s s M s s s s s s s s s M A D H T ] ] ] ] ] ] ] ] ] ",
"] ] ] ] ] T H D Z s p p p p p p p p p p p p p p a a a a a a a a a a a a p p p p p p p p p p p p p p s Z D H T ] ] ] ] ] ] ] ] ] ",
"{ ] ] { ] T H D V s p d d p p p p p p p p p p d a a a a a a a a a a a a d d p p p p p p p p p p d p s Z D H R ] { ] ] ] ] ] ] ] "
};
