/* XPM */
static char *atv03_hw9x5[] = {
/* columns rows colors chars-per-pixel */
"64 64 47 1 ",
"  c #323A4C",
". c #353E50",
"X c #374153",
"o c #394356",
"O c #3C465A",
"+ c #3E495E",
"@ c #3F4A60",
"# c #424D63",
"$ c #445067",
"% c #465269",
"& c #49556C",
"* c #4A5771",
"= c #4C5973",
"- c #4F5D78",
"; c #505D76",
": c #515F7A",
"> c #54617C",
", c #566482",
"< c #5A6782",
"1 c #596785",
"2 c #5B6984",
"3 c #5D6B87",
"4 c #5A6988",
"5 c #5C6B8A",
"6 c #5E6D89",
"7 c #5F6F8E",
"8 c #606F8B",
"9 c #606F8E",
"0 c #62718E",
"q c #637292",
"w c #647391",
"e c #657493",
"r c #647494",
"t c #677694",
"y c #687796",
"u c #697897",
"i c #6A7A9A",
"p c #6C7B9B",
"a c #6C7C9B",
"s c #6B7B9C",
"d c #6B7C9C",
"f c #6F7F9E",
"g c #6F7FA0",
"h c #6F80A0",
"j c #7080A0",
"k c #7283A4",
"l c #7384A5",
/* pixels */
"$##+o                          o+##+o                           ",
"$##+OX........................XO+##+OX..........................",
"####++OOOOOOOOOOOOOOOOOOOOOOOO++####++OOOOOOOOOOOOOOOOOOOOOOOOOO",
"##$$$&&&&&&&&&&&&&&&&&&&&&&&&&&$$$$$$&&&&&&&&&&&&&&&&&&&&&&&&&&&",
"##$&;><<<<<<<<<<<<<<<<<<<<<<<<>;&$$&;><<<<<<<<<<<<<<<<<<<<<<<<<<",
"##&;<0tyyttttttttttttttttttyyt0<=&&=<0tyyttttttttttttttttttttttt",
"##&>6ufjffffsfaaffffppaaffffjfu6:&&:6ufjffffpaaappffffffafffffff",
"#$&>0ajjgdiiiiiiiiiiiiiiiifgjja9>&&>9ajjgfiiiiiiiiiiiiiiiisfjjkk",
"#$&>0ajhsttttttttttttttttttsgja9>&&>0ajgsttttttttttttttttttifjkl",
"##&>6ufit965666667776666567tifu6:&&:6ufit765566666666655567qiffj",
"+#$=<0w05,,>,,,,,,,,,,,,>,,50w0<=$$=<0w05,,,,,,,,,,,,,,,,,,49wty",
"OO#$=>>>;=****===:-==*****=;>>>=$##$=>>>;=****===::===****==>><<",
"XoO+#$$$###@@##$&&&%$###@###$$$#+OO+#$$$###@@##$%&*&$##@@###$$%&",
"XXooOOOOOOOooOO+#$$#+OOooOOOOOOOooooOOOOOOOooOO+#$$#+OOooOOOOOOO",
"OOOOOOOOOOOOOO++####++OOOOOOOOOOOOOOOOOOOOOOOO++####++OOOOOOOOOO",
"&&&&&&&&&&&&&&%$$##$$%&&&&&&&&&&&&&&&&&&&&&&&&%$$##$$&&&&&&&&&&&",
"<<<<<<<<<<<<<<>;&$$&;><<<<<<<<<<<<<<<<<<<<<<<<>;&$$&;><<<<<<<<<<",
"tttttttttttyyt0<=&&=<0tyyttttttttttttttttttyyt0<=&&=<0tyyttttttt",
"aapaasfpafffgfu6:&&:6ufhffaapaaappafaaaapaffgfu6:&&:6ufgffiiiiff",
"iiiiiiiiiiifjji6>&&>8pjjfiiiiiiiiiiiiiiiiiifjji6>&&>8ijjfiiiiiii",
"qqqqqqqqqqtifgi6>&&>8ijfitqqqqqqqqqqqqqqqqtifgi6>&&>6igfitqqqqqq",
"67667766569tifu6>&&>6ufit976666677777666569tifu6>&&>6ufit9656677",
"44444444446qtit3:&&;2wte0644444444444444446qtit3:&&:3titq6444444",
"444444444450ttq2;&%=>2666444444444444444445qttq2;&&;2qttq5444444",
"444444444457qq7,=&$&=:>,14444444444444444457qq7,=&&=,7qq75444444",
"444444442244652>=$$$$&==>1444444444444442244551>=$$=>25644224444",
"11,,,,,,,,,,,,>=&#####$&=>,,,,,,,,,,,,,,,,,,,,>=&$$&=>,,,,,,,,,,",
">::-===****=**&$#+OOOO+#$&*=====-::-===****=**&$#++#$&*=******=*",
"==*&$#########@+OooXXXoO+@#####$&**&$#########++OooO++##########",
"$$$#+OOooOOOOOoooXXXXXooooOOOOO+#$$#+OOoOOOOOOooooooooOOOOOOOOOO",
"$###++OOOOOOOOOOOOOOOOOOOOOOOO++####++OOOOOOOOOOOOOOOOOOOOOOOOOO",
"###$$%&&&&&&&&&&&&&&&&&&&&&&&&%$$##$$%&&&&&&&&&&&&&&&&&&&&&&&&&&",
"##$&;><<<<<<<<<<<<<<<<<<<<<<<<>;&$$&;><<<<<<<<<<<<<<<<<<<<<<<<<<",
"##&;<0tyyttttttttttttttttttyyt0<=&&=<0tyyttttttttttttttttttttttt",
"#$&>6ufffffaafaaipffffaaaaffgfu6:&&:6ufgffaaaaaappafafaapaffffff",
"#$&>8ijjfiiiiiiiiiiiiiiiiiifjji6>&&>6ijjfiiiiiiiiiiiiiiiiiiffjjj",
"##&>8iffitqqqwwwqqqqqqqqqqtifgi6>&&>8iffitqqqqqqqqqqqqqqqqtifgjj",
"#$&>6ufit775666677777666569tifu6>&&>6ufit976666677777666567wiffj",
"##&:6titq641111124444444446qtit3:&&:3titq644444444444444246qtiff",
"#$&:2qttq52,,>>>,1444444445qttq2;&&;2qttq5444444444444444457qtii",
"#$&=,7qq751,:==:,14444444457qq7,=&&=,7qq754444444444444444579qqq",
"##$=>157541>=&&=>14444442244551>=$$=>155444444444444444422444556",
"###&=:,,,,>=&$$&=>,,,,,,,,,,,,>=&$#&=:,,,,,,,,,,,,,,,,,,,,,,,,,,",
"O++#$&*==*&$#++#&=::===****=**&$#++#$&*=*****===-::-===*********",
"oooO++####@+OoO+$&&&$#########++OooO++#########$&**&$###########",
"XXooooOOOOooooo+#$$#+OOoOOOOOOooooooooOOOOOOoOO+#$$#+OOooOOOOOOO",
"OOOOOOOOOOOOOO++####++OOOOOOOOOOOOOOOOOOOOOOOO++####++OOOOOOOOOO",
"&&&&&&&&&&&&&&&$$##$$%&&&&&&&&&&&&&&&&&&&&&&&&%$$##$$%&&&&&&&&&&",
"<<<<<<<<<<<<<<>;&$$&;><<<<<<<<<<<<<<<<<<<<<<<<>;&$$&;><<<<<<<<<<",
"tttttttttttyyt0<=&&=<0tuyttttttttttttttttttyyt0<=&&=<0tuyttttttt",
"aaffaappipffgfu6:&&:6ufhfffpppaaaaffaappipffffu6:&&:6ufgfffpppaa",
"iiiiiiiiiiifjji8>&&>8ijjfiiiiiiiiiiiiiiiiiifjji6>&&>8ijjfiiiiiii",
"qqqqqqqqqqtiffi6>&&>8iffitqqqqqqqqqqqqqqqqtiffi6>&&>8iffitqqqqqq",
"76776666577tifu6:&&:6ufit975667776776666577tifu6:&&:6ufit9756677",
"44444444446qtit5:&&:3titq644444444444444446qtit5:&&:3titq6444444",
"444444444459ttq2=&&;2qtt95444444444444444459ttq2=&&;2qtt95444444",
"444444444457qq7,=%%=,7qq74444444444444444457qq7,=%%=,7qq74444444",
"444444444445662>=$$=>25644444444444444444445662>=$$=>25644444444",
",,,,,,1,,,,11,,-&$$&->1111,,,,1,,,,,,,1,,,,11,,-&$$&->1111,,,,1,",
"::::::::::::::==&$$&==::::::::::::::::::::::::==&$$&==::::::::::",
"==============&&$$$$&&========================&&$$$$&&==========",
"$$$$$$$$$$$$$$$$$$$$$$$$$$$$$$$$$$$$$$$$$$$$$$$$$$$$$$$$$$$$$$$$",
"####$$$$####$$##$$####$#####$$#$####$$$$####$$##$$####$#####$$#$",
"################################################################"
};
