/* XPM */
static char *aqh8n_iga3b[] = {
/* columns rows colors chars-per-pixel */
"64 64 117 2 ",
"   c #070404",
".  c #090506",
"X  c #090708",
"o  c #0C090B",
"O  c #130C0E",
"+  c #0C0E12",
"@  c #150E12",
"#  c #0E1014",
"$  c #161114",
"%  c #191216",
"&  c #15151B",
"*  c #1D151A",
"=  c #1E181D",
"-  c #20181E",
";  c #1B1C24",
":  c #251C23",
">  c #2A1E26",
",  c #1F2530",
"<  c #2C2027",
"1  c #2C222A",
"2  c #33252E",
"3  c #202732",
"4  c #2F2732",
"5  c #212833",
"6  c #2C2934",
"7  c #292E3B",
"8  c #352730",
"9  c #352932",
"0  c #392B34",
"q  c #3D2E38",
"w  c #2D303E",
"e  c #3B323E",
"r  c #42323D",
"t  c #2B3341",
"y  c #313342",
"u  c #3E3542",
"i  c #373847",
"p  c #323A4C",
"a  c #3B3B4B",
"s  c #353E50",
"d  c #473642",
"f  c #483743",
"g  c #4B3946",
"h  c #453D4C",
"j  c #493B4A",
"k  c #374153",
"l  c #394256",
"z  c #3C465A",
"x  c #3E495D",
"c  c #3F4B60",
"v  c #454254",
"b  c #4D4151",
"n  c #484558",
"m  c #404B5F",
"M  c #4F4A5E",
"N  c #554656",
"B  c #504B5E",
"V  c #58485A",
"C  c #424E64",
"Z  c #4C4C61",
"A  c #524D62",
"S  c #445067",
"D  c #4C5067",
"F  c #47536A",
"G  c #4A556C",
"H  c #4B586F",
"J  c #575065",
"K  c #51566F",
"L  c #5E566C",
"P  c #4A5770",
"I  c #4E5B74",
"U  c #535770",
"Y  c #525C75",
"T  c #595D76",
"R  c #515E79",
"E  c #5A5E78",
"W  c #54627D",
"Q  c #5D627D",
"!  c #60627D",
"~  c #566481",
"^  c #586580",
"/  c #596782",
"(  c #596683",
")  c #5A6782",
"_  c #5A6883",
"`  c #596886",
"'  c #5A6886",
"]  c #5B6A89",
"[  c #5C6B8B",
"{  c #5F6D89",
"}  c #5D6C8B",
"|  c #606F8B",
" . c #606D8C",
".. c #606F8E",
"X. c #62718D",
"o. c #626F90",
"O. c #627190",
"+. c #647391",
"@. c #657493",
"#. c #637494",
"$. c #647494",
"%. c #677694",
"&. c #687796",
"*. c #697897",
"=. c #657698",
"-. c #667799",
";. c #67789A",
":. c #6A7A9A",
">. c #6C7C9B",
",. c #6B7B9C",
"<. c #6B7C9E",
"1. c #6E7E9E",
"2. c #6F7FA0",
"3. c #6F80A0",
"4. c #7182A2",
"5. c #7383A4",
"6. c #7384A5",
/* pixels */
"S C C x l p p p p p p p p p p p p p p p p p p p p p p p p p p l x C C x l p p p p p p p p p p p p p p p p p p p p p p p p p p p ",
"S C C x z k s s s s s s s s s s s s s s s s s s s s s s s s k z x C C x z k s s s s s s s s s s s s s s s s s s s s s s s s s s ",
"C C C C x x z z z z z z z z z z z z z z z z z z z z z z z z x x C C C C x x z z z z z z z z z z z z z z z z z z z z z z z z z z ",
"C C S S S G G G G G G G G G G G G G G G G G G G G G G G G G G S S S S S S G G G G G G G G G G G G G G G G G G G G G G G G G G G ",
"C C S G Y W ) ) ) ) ) ) ) ) ) ) ) ) ) ) ) ) ) ) ) ) ) ) ) ) W Y G S S G Y W ) ) ) ) ) ) ) ) ) ) ) ) ) ) ) ) ) ) ) ) ) ) ) ) ) ) ",
"C C G Y ) X.%.&.&.%.%.%.%.%.%.%.%.%.%.%.%.%.%.%.%.%.%.&.&.%.X.) I G G I ) X.%.&.&.%.%.%.%.%.%.%.%.%.%.%.%.%.%.%.%.%.%.%.%.%.%.%.",
"C C G W { *.1.3.1.1.>.>.,.1.1.1.1.1.1.1.>.>.1.>.1.1.1.1.3.1.*.{ R G G R { *.1.2.1.1.1.1.>.>.1.1.>.>.1.>.1.1.1.1.>.1.1.1.1.1.1.1.",
"C S G W X.>.4.4.1.,.:.:.:.:.:.:.:.:.:.:.:.:.:.:.:.:.1.2.4.4.>...W G G W ..>.4.4.2.1.:.:.:.:.:.:.:.:.:.:.:.:.:.:.:.:.,.1.4.4.5.5.",
"C S G W X.>.4.2.:.%.%.O.O.%.%.%.%.%.%.%.%.%.%.%.%.%.%.,.2.4.>...W G G W ..>.4.2.,.%.%.#.%.%.%.%.%.%.%.%.%.%.%.%.#.%.%.:.1.4.5.6.",
"C C G W { *.1.:.%...{ [ [ { { { { { [ { [ { { [ [ { { %.:.1.*.{ R G G R { *.1.:.%.{ { [ [ { { { { { { { { { { { [ { { O.:.1.1.4.",
"x C S I ) X.+.O.{ ` ) ) ) ) ) ) ) ~ ~ ~ ~ ~ ~ ~ W ~ ) [ X.+.X.) I S S I ) X.+.X.[ ) ~ ~ ~ ~ ~ ) ) ) ) ) ) ) ) ) ~ ~ ) ] ..+.%.&.",
"z z C S I W W W W W R R R R R I I P P P P P P P P P I Y W W W I S C C S I W W W Y I P P P P P I I R R R R R R I I P I I W W ) ) ",
"k l z x C S G G G P P P I P P F C C c c c C C C C C C C S S S C x z z x C S S S C C C c c C C S F P P I P P G S C C C C S S D G ",
"k k l l z z x C C S S S S S S C x z z l l l z z z z z z z z z z l l l l z z z z z z z l l z z x C S S S S S S C x z z z z z z z ",
"z z z z z z x x C C C C C C C C x x z z z z z z z z z z z z z z z z z z z z z z z z z z z z x x c C C C C C C C x x z z z z z z ",
"G G G G G G S S S C C c x x x C C S G G G G G S S S S C C C C C S S S S C C C S S D G G G G S C C x z x c C S S S G G G G G G G ",
"_ ) ) ) ) ) W Y G S C x z l z C I W ) _ _ ) ) W W R R R R R R R R R R R R R R W W ) ) _ _ ) W I C z l z x C S H Y W ) ) ) ) ) ) ",
"%.%.%.&.&.@.X._ Y G C z l l x G W | %.*.*.%.@.O...{ [ ] ] ] [ [ [ [ [ ] ] [ { ..O.@.%.*.*.%...W G x l l z C G Y _ X.%.&.&.%.%.%.",
">.>.1.1.1.1.*.{ R S C z z x C I ` %.1.2.1.1.,.:.%.#.O.O.O.O.O.O.#.#.O.O.O.O.#.%.:.1.1.2.2.1.%.` I C x z z C S R { *.1.1.1.1.1.,.",
":.:.:.1.4.4.:.{ I C x x C G I W ..&.1.2.2.2.1.,.,.;.-.-.-.-.-.-.-.-.-.-.-.-.-.:.<.2.2.3.2.1.%.{ W I G C x x C Y { :.3.4.1.:.:.:.",
"O.O.%.:.1.1.*.` I m z C G W ` ..+.%.:.,.,.,.,.,.:.;.-.-.-.-.-.-.-.-.-.-.-.-.-.;.,.,.<.,.,.:.%.O...` W G C z m H ` *.1.1.:.%.O.O.",
"[ { ..%.:.1.&._ G x x S W | %.%.%.%.%.%.#.#.#.#.O.O.O.O.O.O.O.O.O.O.O.O.O.O.O.O.#.#.#.#.%.%.%.%.%.%.| W S x x G _ %.1.:.%.{ { [ ",
"` ] { O.:.>.&.` I C C I _ %.,.,.:.%.O...{ [ ` ) ) ~ ~ ) ) ` ` ) ) ~ ) ) ) ` ` ) ) ~ ) ` { O.%.:.<.>.@._ I C C I ` &.1.:.O.{ ] ` ",
"` ] { O.:.1.:.X.W Y I W { %.,.,.,.%.O.[ ) T K D C C C C G K K G C C C C G K K G C C C P W { %.:.<.,.&.{ W I I W X.:.1.:.O.{ ] ) ",
"] ] { O.:.1.1.&.X.` ` { O.%.;.,.,.-.O.) U Z v a y 7 7 y a v v a y 7 7 y a v v a y 7 t l P ] #.:.:.:.%.O.{ ` ` X.*.1.1.:.O.{ ] ` ",
"` ] [ O.%.,.1.1.:.&.%.%.%.%.#.%.#.O.[ T A h e 1 ; & & : 9 e e 4 : & & : 9 e e 4 ; & ; t C ) O.-.%.%.%.%.%.%.&.:.>.1.1.%.O.{ ] ) ",
") ) ` { X.%.:.>.1.1.1.:.-.%.O.{ ] ) Y D v d 8 : @ X X $ > 8 8 > $ X X $ < 0 0 > $ X + 3 l Y [ o.O.O.%.-.:.1.1.1.>.:.%.X.{ ` ) ) ",
"R R W ) ) [ X.%.>.1.2.1.:.%.{ ~ P C z a u q 2 - O     @ : 2 2 : O     $ < 0 0 > @   X ; y Z T ) [ ..%.:.1.2.1.:.@.X.{ ) ) W R R ",
"P P I I I R W { %.1.2.2.,.#.` P z t 6 4 9 0 2 : O     @ : 2 2 : @   . $ 2 r r 2 $ . X & 6 h Z U ) { %.:.1.1.1.%.{ ) W I I I I P ",
"S S S S S G I W X.:.1.2.,.#.) C t ; & = 1 8 8 : $ . X $ : 8 8 : @ X o = 8 f d 8 = o X $ : q h A T [ %.:.1.1.:.X.) I G S S S S S ",
"C C C C C S G W { %.1.2.,.#.~ z 5 # X @ : 8 8 > $ X X $ > 0 0 > $ X o - 0 g g 0 - o X @ : 0 j M T [ #.:.<.<.%.{ W G S C C C S C ",
"C C C C C C F R ` @.:.<.,.#.W z , +   O : 2 8 : $ X X % 1 q q 1 $ X o - 0 g g 0 - o X @ : q j A T [ #.;.,.:.@.` R F C C C C C C ",
"C C C C C C F Y ` O.-.,.,.O.W z 3 +   O : 2 8 : $ X X * 2 r r 2 * X o - 0 g g 0 - o X $ < r N J E [ #.-.;.%.O.` I S C C C C C C ",
"C C C C C C F I ) { %.;.;.O.W z 5 + X @ : 8 8 > $ X o = 8 f f 8 = o o = 0 g g 0 = o o % 2 f N L Q ..#.-.-.#.{ ) I F C C C C C C ",
"C C C C C S F I ) { #.-.-.O.W z 5 # X @ > 0 0 > $ X o - 0 g g 0 = o o = 0 g g 0 = o o * 2 g V L ! ..O.#.%.X.{ ) I F C C C C C C ",
"C C C C C C F I ) { O.-.-.O.W z 5 # X $ 1 q q 1 $ X o - 0 g g 0 - o o = 0 g g 0 = o o * 2 g V L ! | O.#.#.X.{ ) I F C C C C C C ",
"C C C C C S F I ) { O.-.-.O.W z 5 # o % 2 r r 2 * X o - 0 g g 0 - o o - 0 g g 0 - o o * 2 g V L ! | O.#.#.O.} ) I F S C C C C C ",
"C C C C C C F I ) { O.-.-.O.~ z 5 # o * 8 d d 8 = o o = 0 g g 0 = o o = 0 g g 0 = o o * 2 g V L ! | O.#.#.O.} ) I F S C C C C C ",
"C S C C C C F I ) { #.-.-.O.~ z 5 # o * 8 d d 8 = o o = 8 f f 8 = o o = 8 f f 8 = o o * 2 g V L ! | O.#.#.#.{ ) I F S C C C C C ",
"S S S C C S G I ) { #.-.-.O.~ z 5 # o $ 2 r r 2 * X X * 2 r r 2 * o o * 2 r r 2 * o o * 2 g V L ! | O.#.#.#.{ ) I G S C C C S S ",
"C C C C C S G I ) { #.-.-.O.W z 5 # X $ 1 q q 1 % X X $ 1 q q 1 $ X X $ 1 q q 1 $ X o * 8 g V L ! ..O.#.#.#.{ ) I F S C C C S S ",
"C C C C C C F I ) { #.-.-.O.W z 5 # X @ > 0 0 > $ X X $ < 0 0 > $ X X $ > 0 0 > $ X o * 8 g V L ! ..O.#.#.O.{ ) I F C C C C C C ",
"C C C C C C S I ) } #.-.-.O.W z 5 # X @ > 0 0 > $ X X $ < 0 0 > $ X X $ > 8 8 : $ X o * 8 g V L ! | O.#.#.X.{ ) I S C C C C C C ",
"z z z z z x C P W { #.-.-.O.W z 5 # X $ 1 q q 1 % X X $ 1 q q 1 % X X $ : 8 2 : @ X o * 8 g V L ! | O.#.%.O.{ W P C z z z z z z ",
"l l l k k l x F W [ #.-.-.O.~ z 5 # X $ 2 r r 2 * X o * 2 r r 2 * o X $ : 2 2 : @ X o * 8 g V L ! ..#.-.%.O.[ W F x l k k l l l ",
"k k k k s k z S W [ #.-.-.O.~ z 3 # o * 8 f f 8 = o o = 8 d d 8 = o X $ : 8 8 : @ X o * 2 g V L ! | #.-.%.O.[ W S z l s s k k k ",
"z z z z z z C G W { #.-.-.O.W z 3 + o * 0 g g 0 = o o * 8 d d 8 = o X $ > 0 0 > $ X X * 2 f N L Q ..O.#.%.O.{ W G C z z z z z z ",
"G G G G G G I R ) { #.-.-.O.W z , + X * 8 f g 0 * X . $ 2 r r 2 $ . . $ 1 q q < $ . . $ < r N J E [ O.#.#.O.{ ` W I G G G G G G ",
"_ ) ) ) ) ) ` [ { O.#.-.-.O.W z , + X % 2 f f 8 * .   @ > q q < $   . $ 2 r r 2 $ .   O : 0 j A T [ O.#.#.#.O.{ [ ` ) ) ) ) ) ) ",
"%.%.%.%.%.%.%.@.%.O.#.%.-.O.W z 5 # o = 0 g g 0 - o X $ > 0 0 < $ X o = 8 f f 8 = o X @ : 0 j B T [ O.#.#.#.#.%.%.%.%.%.%.%.%.%.",
">.1.1.1.1.1.1.:.-.%.#.#.%.O.) C t ; & 1 e b b u 1 & & ; 4 e e 4 : & & 1 u b b u 1 & & ; 1 e h A T [ O.#.#.#.#.-.:.1.1.1.1.1.>.>.",
":.:.:.1.1.4.2.1.:.%.#.#.#.O.` P l t w i n A A n a 7 7 y a v v a y 7 w a n A A n a w 7 t a v Z U Q { O.#.#.#.%.;.1.2.4.1.1.:.:.:.",
"O.O.%.:.1.1.1.<.-.#.O.#.#.O.{ W P C C D U T T U D C C C G K K G C C C D U T T U D C C C D K T Q [ ..O.#.O.O.%.:.<.1.1.1.:.%.O.O.",
"[ { { +.:.1.1.:.-.#.O.O.#.#.O.{ ` ) ) ) ` [ [ ` ) ) ~ ) ) ` ` ) ) ~ ) ) ` [ [ ` ) ) ~ ) ) ` [ { ..O.O.O.O.O.%.-.,.1.1.:.+.{ { [ ",
"` ] { O.%.1.1.:.-.#.#.O.#.#.O.O.O.O.O.O.O.O.O.O.O.O.O.O.O.O.O.O.O.O.O.O.O.O.O.O.O.O.O.O.O.O.O.O.O.O.#.O.O.#.%.-.,.1.1.%.O.{ ] ` ",
") ] { O.*.1.1.1.:.%.#.#.#.#.#.%.-.-.-.-.-.%.%.%.-.-.-.-.-.-.-.-.-.-.-.-.-.%.%.-.-.-.-.-.-.-.%.#.#.#.#.#.#.#.%.:.1.1.1.:.O.{ ] ) ",
"] ] { O.:.1.1.1.:.%.%.#.#.#.#.%.%.-.-.-.%.%.%.%.-.-.-.-.-.-.-.-.-.-.-.-.%.%.%.%.-.-.-.-.-.%.%.#.#.#.#.#.#.#.%.:.1.1.1.:.O.{ ] ] ",
") ] { O.%.>.1.:.-.%.O.O.O.O.O.O.#.#.#.O.O.O.#.#.#.#.#.#.O.O.#.#.#.#.O.O.O.O.#.#.#.#.#.#.O.O.#.O.O.O.O.O.O.O.#.-.,.1.1.%.O.{ ] ` ",
") ) ` { O.%.%.%.O.{ { { { { { { { { { { { { { { { { { { { { { { { { { { { { { { { { { { { { { { { { { { { { { O.%.%.%.O.{ ` ) ) ",
"R R W ) ` ` { ` ` ) ) ) ) ) ) ) ) ) ) ) ) ) ) ) ) ) ) ) ) ) ) ) ) ) ) ) ) ) ) ) ) ) ) ) ) ) ) ) ) ) ) ) ) ) ) ` ` [ ` ` ) W R R ",
"P P I I Y R R R I I I I I I I I I I I I I I I I I I I I I I I I I I I I I I I I I I I I I I I I I I I I I I I Y R R R Y I I P P ",
"S S S F G G G G G F F F F F F F S S F F F F F F S S F F F F F F F S F F F F F F S S F F F F F F F F F F F F G G G G G G F S S S ",
"C C C C C C C S C C C C C C C S C C C C C C C S C C C C C C C S C C C C C C C S C C C C C C C S C C C C C C C S C C C C C C C C ",
"C C C C C C C C C C C C C C C C C C C C C C C C C C C C C C C C C C C C C C C C C C C C C C C C C C C C C C C C C C C C C C C C "
};
