/* XPM */
static char *ax9zi_xqo6e[] = {
/* columns rows colors chars-per-pixel */
"64 64 48 1 ",
"  c #323A4C",
". c #353E50",
"X c #374153",
"o c #384255",
"O c #3C475B",
"+ c #3E495E",
"@ c #3F4A60",
"# c #434E64",
"$ c #445066",
"% c #465269",
"& c #49556D",
"* c #4B586F",
"= c #4A5770",
"- c #4C5973",
"; c #4F5D78",
": c #505D76",
"> c #515F7A",
", c #54617C",
"< c #566582",
"1 c #596782",
"2 c #5A6883",
"3 c #5A6884",
"4 c #5B6984",
"5 c #5D6B87",
"6 c #5A6988",
"7 c #5C6B8B",
"8 c #5E6D89",
"9 c #5D6C8C",
"0 c #606F8B",
"q c #606F8E",
"w c #62718E",
"e c #637292",
"r c #647390",
"t c #657493",
"y c #647494",
"u c #677695",
"i c #687795",
"p c #697897",
"a c #6B7B9A",
"s c #6C7B9B",
"d c #6C7C9B",
"f c #6B7C9C",
"g c #6C7C9C",
"h c #6F7FA0",
"j c #6F80A0",
"k c #7080A1",
"l c #7283A4",
"z c #7384A5",
/* pixels */
"###############################$$##Oo                           ",
"###############################$$##+oX..........................",
"####################################++OOOOOOOOOOOOOOOOOOOOOOOOOO",
"##################################$%%&&&&&&&&&&&&&&&&&&&&&&&&&&&",
"##################################%*:,11111111111111222221111111",
"##################################&:2wuiiuuuuuuuuuuuuuuuuuuuuuuu",
"##################################&,8pgkgggggggggdsaapaaadgggggg",
"$$$$$$$$$$$$$$######$$$$$$$$$$###$&,wgkkhgaaaaaaaaaurwwruaggkkll",
"$$$$$$###$$$$$$######$$$$$$$$####$&,wdkjauuuuuuuuue84<<48euagklz",
"##################################&,8pgau9877889984,:--;,49uaggk",
"##################################%:1wrw7<<,<<<<<<,;&$$&-,<7wtui",
"OOOOOOOOOOOOOO++####++OOOOOOOOOOOO#%-,,,:-=====-;>-&#++@#&-:,,11",
"oooooooooooooooO+##@OooooooooooXooo+#$%%###@@##%&&&#+oooO@##$%%&",
"XXXXXXXXXXXXXXoO+##+OoXXXXXXXXXXXXoooOOOooooooO+#$$#OooXooooOOOO",
"OOOOOOOOOOOOOO++####++OOOOOOOOOOOOOOOOOOOOOOOO++####++OOOOOOOOOO",
"&&&&&&&&&&&&&&&%$$$$%&&&&&&&&&&&&&&&&&&&&&&&&&&%$##$%&&&&&&&&&&&",
"11121111222221,:&%%&:,122222222221111111111111,:&%%&:,1211111111",
"uuuuuuuuuuuipuw1;&&;1wupiuuuuuuuuuuuuuuuuuuiiuw1;&&;1wuiiuuuuuuu",
"ssddgfgggggghgp8>&&>8pghgggddddsggggsdddsdgghgp8>&&>8pggggdsddgg",
"aaaaaaaaaaagkka8,&&,0skkgaaaaaaaaaaaaaaaaaagkka0,&&,0akkgaaaaaaa",
"eeeeeeeeeeuagha8,&&,0akgaueeeeeeeeeeeeeeeeuagkaq,&&,8ahgaueeeeee",
"8888888889quagp8>&&>8pgauq9888889999999888quagp8>&&>8pgauq888999",
"66666666668euau5>&&:4rutw866666666666666668wuue4:&&>7uaue8666666",
"66666666667euue4:&%-,48886666666666666666667884,-%&:4euuq7666666",
"666666666679ee9<;&%&->,<46666666666666666644<,:-&%%-<8ee97666666",
"666666664666874,-%$$%&=;,<66666666666666644,;=&%$$%-,47876666666",
"<<<<<<<<<<<<<<,-&$####$&-,<<<<<<<<<<<<<<4<,>=%####%=>,<44<<<<<<<",
",>>;--========&%#+Oooo+#%&====--;>>,,>,,,>;-%$####%&-;>,,,,,>>>,",
"-==&%#########++oooXXXooO@#####%&==--===-==&%#####$%&===-=====--",
"%%$#+OoooooooooooXXXXXooooooooO+#$%%%%%%%%%%$######$%%%%%%%%%%%%",
"$###++OOOOOOOOOOOOOOOOOOOOOOOO++###$############################",
"###$%%&&&&&&&&&&&&&&&&&&&&&&&&%%$###############################",
"##%&:,121111111111111111111111,:&%##############################",
"##&:1wupiuuuuuuuuuuuuuuuuuuiiuw2:&##############################",
"##&,8pgggggdddddggggsdddddgghgp8,&##############################",
"##&,0akkgaaaaaaaaaaaaaaaaaagkkaw,&##############################",
"##&,0aggaueeerrrreeeeeeeeeuaghaq,&##############################",
"##&,8pgauq9888889999999888quagp8,&##############################",
"##&>5uaue964<<<446666666668euau8,&##############################",
"#$&>4euue76<<,,,<4666666668euue4>&$#####$$$$$$$$#######$$$$$$$$$",
"#$&;<9ee974<>--><46666666679ee91;&$###$$$$$$$#########$$##$$$$$$",
"##%-,47976<,-&&-,<6666666466774,-%##############################",
"###&-,<<<<,-&$$&;,<4<<<<<<<<<<,-&###############################",
"oO+#%&=-==&%#++#&;>,,,>;--====&%#+OOOOOOOOOOOO++####++OOOOOOOOOO",
"XoooO@####@Oooo+$&=---=&%#####++oooooooooooooooO@##+Oooooooooooo",
"XXXooooooooooooO#$%%%%$#+OoooooooXXXXXXXXXXXXXoO+##+OoXXXXXXXXXX",
"OOOOOOOOOOOOOO++#######+++OOOOOOOOOOOOOOOOOOOO++####++OOOOOOOOOO",
"&&&&&&&&&&&&&&&%$##++O+##%&&&&&&&&&&&&&&&&&&&&&%$$$$%&&&&&&&&&&&",
"22111111111121,:=%#+ooO#-,12211111221111111221,:&%%&:,1221111211",
"uuuuuuuuuuuiiuw2:&#Ooo+&,0upiuuuuuuuuuuuuuuiiuw1;&&;1wupiuuuuuuu",
"ggdddddsdgggggp8,&#+O+#-4tagggdddgggddssdgggggp8>&&>8pgggggsgddd",
"aaaaaaaaaaagkkaq,&$#$&-,8taaaaaaaaaaaaaaaaagkka0,&&,0akkgaaaaaaa",
"eeeeeeeeeeuagha0,&%&:,48qeeereeeeeeeeeeeeeuagha8,&&,0aggaueeeeee",
"98998888799uagp8,&&;1wtte988889998998888799uagp8>&&,8pgauq978899",
"66666666668euau5>&&>5uaue866666666666666668euau5:&&>5uaue8666666",
"66666666667quue4:&&:4tiue766666666666666667quue4;&&:4euuq7666666",
"666666666679ee8<-%&-<9ee97666666666666666679ee8<-%%-<9ee96666666",
"666666666667874,=%%-,48966666666666666666667874,=%%-,47866666666",
"<<<<<<<<<<<<4<,;&%%&;,<4<<<<<<<<<<<<<<<<<<<<4<,;&%%&;,<4<<<<<<<<",
">>>>>>>>>>>>>>;=&%%&=;>>>>>>>>>>>>>>>>>>>>>>>>;=&%%&=;>>>>>>>>>>",
"==============&&%$$%&&========================&&%$$%&&==========",
"%%%%%%%%%%%%%%%%$$$$%%%%%%%%%%%%%%%%%%%%%%%%%%%%$$$$%%%%%%%%%%%%",
"################################################################",
"################################################################"
};
